<svg width="180" height="56" viewBox="0 0 180 56" fill="none" xmlns="http://www.w3.org/2000/svg">
<rect width="180" height="56" rx="28" fill="black" fill-opacity="0.6"/>
<path d="M58.547 18.952V35.584H60.923V18.952H58.547ZM52.013 20.122C49.511 20.122 47.657 22.39 47.657 26.026C47.657 29.68 49.511 31.966 52.013 31.966C54.515 31.966 56.369 29.68 56.369 26.026C56.369 22.39 54.515 20.122 52.013 20.122ZM52.013 22.264C53.237 22.264 54.083 23.578 54.083 26.026C54.083 28.492 53.237 29.806 52.013 29.806C50.789 29.806 49.943 28.492 49.943 26.026C49.943 23.578 50.789 22.264 52.013 22.264ZM68.5536 29.554H66.4296V22.534H68.5536V29.554ZM72.3516 24.982H70.7496V20.662H64.2156V31.408H70.7496V26.908H72.3516V34.792H74.5656V19.222H72.3516V24.982ZM75.7176 18.952V35.53H77.9676V18.952H75.7176ZM94.0762 18.97H91.6822V27.268H94.0762V18.97ZM82.8442 23.236C82.8442 22.066 83.7622 21.364 84.9862 21.364C86.2102 21.364 87.0922 22.066 87.0922 23.236C87.0922 24.424 86.2102 25.108 84.9862 25.108C83.7622 25.108 82.8442 24.424 82.8442 23.236ZM89.3962 23.236C89.3962 21.04 87.5062 19.456 84.9862 19.456C82.4482 19.456 80.5402 21.04 80.5402 23.236C80.5402 25.45 82.4482 27.034 84.9862 27.034C87.5062 27.034 89.3962 25.45 89.3962 23.236ZM85.4002 33.514V32.47H94.0762V27.952H83.0242V29.77H91.7182V30.778H83.0422V35.368H94.4902V33.514H85.4002ZM111.988 23.974H105.418V21.526H111.988V23.974ZM114.328 19.672H103.078V25.846H114.328V19.672ZM105.346 30.454H102.97V35.26H114.58V33.37H105.346V30.454ZM101.224 27.16V29.032H107.758V31.858H110.134V29.032H116.236V27.16H101.224ZM123.128 20.068C120.536 20.068 118.574 21.778 118.574 24.154C118.574 26.548 120.536 28.24 123.128 28.24C125.72 28.24 127.7 26.548 127.7 24.154C127.7 21.778 125.72 20.068 123.128 20.068ZM123.128 22.102C124.406 22.102 125.378 22.858 125.378 24.154C125.378 25.45 124.406 26.206 123.128 26.206C121.85 26.206 120.878 25.45 120.878 24.154C120.878 22.858 121.85 22.102 123.128 22.102ZM129.248 18.952V35.584H131.624V18.952H129.248ZM118.178 32.218C121.04 32.218 124.928 32.182 128.492 31.462L128.348 29.752C124.856 30.274 120.788 30.292 117.872 30.292L118.178 32.218Z" fill="white"/>
<path d="M58.547 18.952V35.584H60.923V18.952H58.547ZM52.013 20.122C49.511 20.122 47.657 22.39 47.657 26.026C47.657 29.68 49.511 31.966 52.013 31.966C54.515 31.966 56.369 29.68 56.369 26.026C56.369 22.39 54.515 20.122 52.013 20.122ZM52.013 22.264C53.237 22.264 54.083 23.578 54.083 26.026C54.083 28.492 53.237 29.806 52.013 29.806C50.789 29.806 49.943 28.492 49.943 26.026C49.943 23.578 50.789 22.264 52.013 22.264ZM68.5536 29.554H66.4296V22.534H68.5536V29.554ZM72.3516 24.982H70.7496V20.662H64.2156V31.408H70.7496V26.908H72.3516V34.792H74.5656V19.222H72.3516V24.982ZM75.7176 18.952V35.53H77.9676V18.952H75.7176ZM94.0762 18.97H91.6822V27.268H94.0762V18.97ZM82.8442 23.236C82.8442 22.066 83.7622 21.364 84.9862 21.364C86.2102 21.364 87.0922 22.066 87.0922 23.236C87.0922 24.424 86.2102 25.108 84.9862 25.108C83.7622 25.108 82.8442 24.424 82.8442 23.236ZM89.3962 23.236C89.3962 21.04 87.5062 19.456 84.9862 19.456C82.4482 19.456 80.5402 21.04 80.5402 23.236C80.5402 25.45 82.4482 27.034 84.9862 27.034C87.5062 27.034 89.3962 25.45 89.3962 23.236ZM85.4002 33.514V32.47H94.0762V27.952H83.0242V29.77H91.7182V30.778H83.0422V35.368H94.4902V33.514H85.4002ZM111.988 23.974H105.418V21.526H111.988V23.974ZM114.328 19.672H103.078V25.846H114.328V19.672ZM105.346 30.454H102.97V35.26H114.58V33.37H105.346V30.454ZM101.224 27.16V29.032H107.758V31.858H110.134V29.032H116.236V27.16H101.224ZM123.128 20.068C120.536 20.068 118.574 21.778 118.574 24.154C118.574 26.548 120.536 28.24 123.128 28.24C125.72 28.24 127.7 26.548 127.7 24.154C127.7 21.778 125.72 20.068 123.128 20.068ZM123.128 22.102C124.406 22.102 125.378 22.858 125.378 24.154C125.378 25.45 124.406 26.206 123.128 26.206C121.85 26.206 120.878 25.45 120.878 24.154C120.878 22.858 121.85 22.102 123.128 22.102ZM129.248 18.952V35.584H131.624V18.952H129.248ZM118.178 32.218C121.04 32.218 124.928 32.182 128.492 31.462L128.348 29.752C124.856 30.274 120.788 30.292 117.872 30.292L118.178 32.218Z" fill="url(#paint0_linear)"/>
<defs>
<linearGradient id="paint0_linear" x1="90" y1="16" x2="90" y2="40" gradientUnits="userSpaceOnUse">
<stop stop-color="white"/>
<stop offset="1" stop-color="white" stop-opacity="0"/>
</linearGradient>
</defs>
</svg>
