<svg width="161" height="56" viewBox="0 0 161 56" fill="none" xmlns="http://www.w3.org/2000/svg">
<rect width="161" height="56" rx="28" fill="#00BCC8"/>
<path d="M60.5228 21.986L56.4818 35H54.2948L51.4508 26.108C51.3728 25.892 51.3008 25.628 51.2348 25.316C51.1988 25.466 51.1628 25.607 51.1268 25.739C51.0908 25.871 51.0518 25.994 51.0098 26.108L48.1388 35H45.9428L41.9108 21.986H43.9358C44.1458 21.986 44.3198 22.037 44.4578 22.139C44.6018 22.235 44.6978 22.367 44.7458 22.535L46.9598 30.32C47.0078 30.512 47.0528 30.722 47.0948 30.95C47.1428 31.172 47.1908 31.406 47.2388 31.652C47.2868 31.4 47.3378 31.163 47.3918 30.941C47.4518 30.719 47.5148 30.512 47.5808 30.32L50.1368 22.535C50.1848 22.397 50.2778 22.271 50.4158 22.157C50.5598 22.043 50.7338 21.986 50.9378 21.986H51.6488C51.8588 21.986 52.0298 22.037 52.1618 22.139C52.2938 22.241 52.3928 22.373 52.4588 22.535L55.0058 30.32C55.1318 30.692 55.2458 31.121 55.3478 31.607C55.4258 31.133 55.5128 30.704 55.6088 30.32L57.8228 22.535C57.8588 22.385 57.9488 22.256 58.0928 22.148C58.2428 22.04 58.4198 21.986 58.6238 21.986H60.5228ZM64.5509 23.912V27.521H69.1049V29.384H64.5509V33.065H70.3289V35H62.1209V21.986H70.3289V23.912H64.5509ZM77.3434 33.11C77.7934 33.11 78.1714 33.056 78.4774 32.948C78.7834 32.84 79.0264 32.696 79.2064 32.516C79.3924 32.336 79.5244 32.126 79.6024 31.886C79.6864 31.646 79.7284 31.391 79.7284 31.121C79.7284 30.839 79.6834 30.587 79.5934 30.365C79.5034 30.137 79.3624 29.945 79.1704 29.789C78.9784 29.627 78.7294 29.504 78.4234 29.42C78.1234 29.336 77.7604 29.294 77.3344 29.294H74.8954V33.11H77.3434ZM74.8954 23.858V27.62H76.8214C77.6494 27.62 78.2734 27.47 78.6934 27.17C79.1194 26.87 79.3324 26.393 79.3324 25.739C79.3324 25.061 79.1404 24.578 78.7564 24.29C78.3724 24.002 77.7724 23.858 76.9564 23.858H74.8954ZM76.9564 21.986C77.8084 21.986 78.5374 22.067 79.1434 22.229C79.7494 22.391 80.2444 22.622 80.6284 22.922C81.0184 23.222 81.3034 23.585 81.4834 24.011C81.6634 24.437 81.7534 24.917 81.7534 25.451C81.7534 25.757 81.7084 26.051 81.6184 26.333C81.5284 26.609 81.3874 26.87 81.1954 27.116C81.0094 27.356 80.7694 27.575 80.4754 27.773C80.1874 27.971 79.8424 28.139 79.4404 28.277C81.2284 28.679 82.1224 29.645 82.1224 31.175C82.1224 31.727 82.0174 32.237 81.8074 32.705C81.5974 33.173 81.2914 33.578 80.8894 33.92C80.4874 34.256 79.9924 34.52 79.4044 34.712C78.8164 34.904 78.1444 35 77.3884 35H72.4744V21.986H76.9564ZM91.252 24.353C91.18 24.479 91.102 24.572 91.018 24.632C90.94 24.686 90.841 24.713 90.721 24.713C90.595 24.713 90.457 24.668 90.307 24.578C90.163 24.482 89.989 24.377 89.785 24.263C89.581 24.149 89.341 24.047 89.065 23.957C88.795 23.861 88.474 23.813 88.102 23.813C87.766 23.813 87.472 23.855 87.22 23.939C86.968 24.017 86.755 24.128 86.581 24.272C86.413 24.416 86.287 24.59 86.203 24.794C86.119 24.992 86.077 25.211 86.077 25.451C86.077 25.757 86.161 26.012 86.329 26.216C86.503 26.42 86.731 26.594 87.013 26.738C87.295 26.882 87.616 27.011 87.976 27.125C88.336 27.239 88.705 27.362 89.083 27.494C89.461 27.62 89.83 27.77 90.19 27.944C90.55 28.112 90.871 28.328 91.153 28.592C91.435 28.85 91.66 29.168 91.828 29.546C92.002 29.924 92.089 30.383 92.089 30.923C92.089 31.511 91.987 32.063 91.783 32.579C91.585 33.089 91.291 33.536 90.901 33.92C90.517 34.298 90.046 34.598 89.488 34.82C88.93 35.036 88.291 35.144 87.571 35.144C87.157 35.144 86.749 35.102 86.347 35.018C85.945 34.94 85.558 34.826 85.186 34.676C84.82 34.526 84.475 34.346 84.151 34.136C83.827 33.926 83.539 33.692 83.287 33.434L83.998 32.273C84.058 32.189 84.136 32.12 84.232 32.066C84.328 32.006 84.43 31.976 84.538 31.976C84.688 31.976 84.85 32.039 85.024 32.165C85.198 32.285 85.405 32.42 85.645 32.57C85.885 32.72 86.164 32.858 86.482 32.984C86.806 33.104 87.193 33.164 87.643 33.164C88.333 33.164 88.867 33.002 89.245 32.678C89.623 32.348 89.812 31.877 89.812 31.265C89.812 30.923 89.725 30.644 89.551 30.428C89.383 30.212 89.158 30.032 88.876 29.888C88.594 29.738 88.273 29.612 87.913 29.51C87.553 29.408 87.187 29.297 86.815 29.177C86.443 29.057 86.077 28.913 85.717 28.745C85.357 28.577 85.036 28.358 84.754 28.088C84.472 27.818 84.244 27.482 84.07 27.08C83.902 26.672 83.818 26.171 83.818 25.577C83.818 25.103 83.911 24.641 84.097 24.191C84.289 23.741 84.565 23.342 84.925 22.994C85.285 22.646 85.729 22.367 86.257 22.157C86.785 21.947 87.391 21.842 88.075 21.842C88.843 21.842 89.551 21.962 90.199 22.202C90.847 22.442 91.399 22.778 91.855 23.21L91.252 24.353ZM96.631 35H94.201V21.986H96.631V35ZM108.635 23.975H104.711V35H102.29V23.975H98.3657V21.986H108.635V23.975ZM112.768 23.912V27.521H117.322V29.384H112.768V33.065H118.546V35H110.338V21.986H118.546V23.912H112.768Z" fill="white"/>
<path d="M60.5228 21.986L56.4818 35H54.2948L51.4508 26.108C51.3728 25.892 51.3008 25.628 51.2348 25.316C51.1988 25.466 51.1628 25.607 51.1268 25.739C51.0908 25.871 51.0518 25.994 51.0098 26.108L48.1388 35H45.9428L41.9108 21.986H43.9358C44.1458 21.986 44.3198 22.037 44.4578 22.139C44.6018 22.235 44.6978 22.367 44.7458 22.535L46.9598 30.32C47.0078 30.512 47.0528 30.722 47.0948 30.95C47.1428 31.172 47.1908 31.406 47.2388 31.652C47.2868 31.4 47.3378 31.163 47.3918 30.941C47.4518 30.719 47.5148 30.512 47.5808 30.32L50.1368 22.535C50.1848 22.397 50.2778 22.271 50.4158 22.157C50.5598 22.043 50.7338 21.986 50.9378 21.986H51.6488C51.8588 21.986 52.0298 22.037 52.1618 22.139C52.2938 22.241 52.3928 22.373 52.4588 22.535L55.0058 30.32C55.1318 30.692 55.2458 31.121 55.3478 31.607C55.4258 31.133 55.5128 30.704 55.6088 30.32L57.8228 22.535C57.8588 22.385 57.9488 22.256 58.0928 22.148C58.2428 22.04 58.4198 21.986 58.6238 21.986H60.5228ZM64.5509 23.912V27.521H69.1049V29.384H64.5509V33.065H70.3289V35H62.1209V21.986H70.3289V23.912H64.5509ZM77.3434 33.11C77.7934 33.11 78.1714 33.056 78.4774 32.948C78.7834 32.84 79.0264 32.696 79.2064 32.516C79.3924 32.336 79.5244 32.126 79.6024 31.886C79.6864 31.646 79.7284 31.391 79.7284 31.121C79.7284 30.839 79.6834 30.587 79.5934 30.365C79.5034 30.137 79.3624 29.945 79.1704 29.789C78.9784 29.627 78.7294 29.504 78.4234 29.42C78.1234 29.336 77.7604 29.294 77.3344 29.294H74.8954V33.11H77.3434ZM74.8954 23.858V27.62H76.8214C77.6494 27.62 78.2734 27.47 78.6934 27.17C79.1194 26.87 79.3324 26.393 79.3324 25.739C79.3324 25.061 79.1404 24.578 78.7564 24.29C78.3724 24.002 77.7724 23.858 76.9564 23.858H74.8954ZM76.9564 21.986C77.8084 21.986 78.5374 22.067 79.1434 22.229C79.7494 22.391 80.2444 22.622 80.6284 22.922C81.0184 23.222 81.3034 23.585 81.4834 24.011C81.6634 24.437 81.7534 24.917 81.7534 25.451C81.7534 25.757 81.7084 26.051 81.6184 26.333C81.5284 26.609 81.3874 26.87 81.1954 27.116C81.0094 27.356 80.7694 27.575 80.4754 27.773C80.1874 27.971 79.8424 28.139 79.4404 28.277C81.2284 28.679 82.1224 29.645 82.1224 31.175C82.1224 31.727 82.0174 32.237 81.8074 32.705C81.5974 33.173 81.2914 33.578 80.8894 33.92C80.4874 34.256 79.9924 34.52 79.4044 34.712C78.8164 34.904 78.1444 35 77.3884 35H72.4744V21.986H76.9564ZM91.252 24.353C91.18 24.479 91.102 24.572 91.018 24.632C90.94 24.686 90.841 24.713 90.721 24.713C90.595 24.713 90.457 24.668 90.307 24.578C90.163 24.482 89.989 24.377 89.785 24.263C89.581 24.149 89.341 24.047 89.065 23.957C88.795 23.861 88.474 23.813 88.102 23.813C87.766 23.813 87.472 23.855 87.22 23.939C86.968 24.017 86.755 24.128 86.581 24.272C86.413 24.416 86.287 24.59 86.203 24.794C86.119 24.992 86.077 25.211 86.077 25.451C86.077 25.757 86.161 26.012 86.329 26.216C86.503 26.42 86.731 26.594 87.013 26.738C87.295 26.882 87.616 27.011 87.976 27.125C88.336 27.239 88.705 27.362 89.083 27.494C89.461 27.62 89.83 27.77 90.19 27.944C90.55 28.112 90.871 28.328 91.153 28.592C91.435 28.85 91.66 29.168 91.828 29.546C92.002 29.924 92.089 30.383 92.089 30.923C92.089 31.511 91.987 32.063 91.783 32.579C91.585 33.089 91.291 33.536 90.901 33.92C90.517 34.298 90.046 34.598 89.488 34.82C88.93 35.036 88.291 35.144 87.571 35.144C87.157 35.144 86.749 35.102 86.347 35.018C85.945 34.94 85.558 34.826 85.186 34.676C84.82 34.526 84.475 34.346 84.151 34.136C83.827 33.926 83.539 33.692 83.287 33.434L83.998 32.273C84.058 32.189 84.136 32.12 84.232 32.066C84.328 32.006 84.43 31.976 84.538 31.976C84.688 31.976 84.85 32.039 85.024 32.165C85.198 32.285 85.405 32.42 85.645 32.57C85.885 32.72 86.164 32.858 86.482 32.984C86.806 33.104 87.193 33.164 87.643 33.164C88.333 33.164 88.867 33.002 89.245 32.678C89.623 32.348 89.812 31.877 89.812 31.265C89.812 30.923 89.725 30.644 89.551 30.428C89.383 30.212 89.158 30.032 88.876 29.888C88.594 29.738 88.273 29.612 87.913 29.51C87.553 29.408 87.187 29.297 86.815 29.177C86.443 29.057 86.077 28.913 85.717 28.745C85.357 28.577 85.036 28.358 84.754 28.088C84.472 27.818 84.244 27.482 84.07 27.08C83.902 26.672 83.818 26.171 83.818 25.577C83.818 25.103 83.911 24.641 84.097 24.191C84.289 23.741 84.565 23.342 84.925 22.994C85.285 22.646 85.729 22.367 86.257 22.157C86.785 21.947 87.391 21.842 88.075 21.842C88.843 21.842 89.551 21.962 90.199 22.202C90.847 22.442 91.399 22.778 91.855 23.21L91.252 24.353ZM96.631 35H94.201V21.986H96.631V35ZM108.635 23.975H104.711V35H102.29V23.975H98.3657V21.986H108.635V23.975ZM112.768 23.912V27.521H117.322V29.384H112.768V33.065H118.546V35H110.338V21.986H118.546V23.912H112.768Z" fill="url(#paint0_linear)"/>
<defs>
<linearGradient id="paint0_linear" x1="80.5" y1="17" x2="80.5" y2="39" gradientUnits="userSpaceOnUse">
<stop stop-color="white"/>
<stop offset="1" stop-color="white" stop-opacity="0"/>
</linearGradient>
</defs>
</svg>
