<svg width="161" height="56" viewBox="0 0 161 56" fill="none" xmlns="http://www.w3.org/2000/svg">
<rect width="161" height="56" rx="28" fill="black" fill-opacity="0.6"/>
<path d="M78.7052 28.493C78.7052 29.447 78.5462 30.323 78.2282 31.121C77.9102 31.919 77.4632 32.606 76.8872 33.182C76.3112 33.758 75.6182 34.205 74.8082 34.523C73.9982 34.841 73.0982 35 72.1082 35H67.1492V21.986H72.1082C73.0982 21.986 73.9982 22.148 74.8082 22.472C75.6182 22.79 76.3112 23.237 76.8872 23.813C77.4632 24.383 77.9102 25.067 78.2282 25.865C78.5462 26.663 78.7052 27.539 78.7052 28.493ZM76.2212 28.493C76.2212 27.779 76.1252 27.14 75.9332 26.576C75.7472 26.006 75.4742 25.526 75.1142 25.136C74.7602 24.74 74.3282 24.437 73.8182 24.227C73.3142 24.017 72.7442 23.912 72.1082 23.912H69.5792V33.074H72.1082C72.7442 33.074 73.3142 32.969 73.8182 32.759C74.3282 32.549 74.7602 32.249 75.1142 31.859C75.4742 31.463 75.7472 30.983 75.9332 30.419C76.1252 29.849 76.2212 29.207 76.2212 28.493ZM83.2726 23.912V27.521H87.8266V29.384H83.2726V33.065H89.0506V35H80.8426V21.986H89.0506V23.912H83.2726ZM105.308 21.986V35H103.175V26.594C103.175 26.258 103.193 25.895 103.229 25.505L99.2961 32.894C99.1101 33.248 98.8251 33.425 98.4411 33.425H98.0991C97.7151 33.425 97.4301 33.248 97.2441 32.894L93.2661 25.478C93.2841 25.676 93.2991 25.871 93.3111 26.063C93.3231 26.255 93.3291 26.432 93.3291 26.594V35H91.1961V21.986H93.0231C93.1311 21.986 93.2241 21.989 93.3021 21.995C93.3801 22.001 93.4491 22.016 93.5091 22.04C93.5751 22.064 93.6321 22.103 93.6801 22.157C93.7341 22.211 93.7851 22.283 93.8331 22.373L97.7301 29.6C97.8321 29.792 97.9251 29.99 98.0091 30.194C98.0991 30.398 98.1861 30.608 98.2701 30.824C98.3541 30.602 98.4411 30.389 98.5311 30.185C98.6211 29.975 98.7171 29.774 98.8191 29.582L102.662 22.373C102.71 22.283 102.761 22.211 102.815 22.157C102.869 22.103 102.926 22.064 102.986 22.04C103.052 22.016 103.124 22.001 103.202 21.995C103.28 21.989 103.373 21.986 103.481 21.986H105.308ZM120.623 28.493C120.623 29.447 120.464 30.332 120.146 31.148C119.834 31.958 119.39 32.66 118.814 33.254C118.238 33.848 117.545 34.313 116.735 34.649C115.925 34.979 115.025 35.144 114.035 35.144C113.051 35.144 112.154 34.979 111.344 34.649C110.534 34.313 109.838 33.848 109.256 33.254C108.68 32.66 108.233 31.958 107.915 31.148C107.597 30.332 107.438 29.447 107.438 28.493C107.438 27.539 107.597 26.657 107.915 25.847C108.233 25.031 108.68 24.326 109.256 23.732C109.838 23.138 110.534 22.676 111.344 22.346C112.154 22.01 113.051 21.842 114.035 21.842C114.695 21.842 115.316 21.92 115.898 22.076C116.48 22.226 117.014 22.442 117.5 22.724C117.986 23 118.421 23.339 118.805 23.741C119.195 24.137 119.525 24.581 119.795 25.073C120.065 25.565 120.269 26.099 120.407 26.675C120.551 27.251 120.623 27.857 120.623 28.493ZM118.148 28.493C118.148 27.779 118.052 27.14 117.86 26.576C117.668 26.006 117.395 25.523 117.041 25.127C116.687 24.731 116.255 24.428 115.745 24.218C115.241 24.008 114.671 23.903 114.035 23.903C113.399 23.903 112.826 24.008 112.316 24.218C111.812 24.428 111.38 24.731 111.02 25.127C110.666 25.523 110.393 26.006 110.201 26.576C110.009 27.14 109.913 27.779 109.913 28.493C109.913 29.207 110.009 29.849 110.201 30.419C110.393 30.983 110.666 31.463 111.02 31.859C111.38 32.249 111.812 32.549 112.316 32.759C112.826 32.969 113.399 33.074 114.035 33.074C114.671 33.074 115.241 32.969 115.745 32.759C116.255 32.549 116.687 32.249 117.041 31.859C117.395 31.463 117.668 30.983 117.86 30.419C118.052 29.849 118.148 29.207 118.148 28.493Z" fill="white"/>
<path d="M78.7052 28.493C78.7052 29.447 78.5462 30.323 78.2282 31.121C77.9102 31.919 77.4632 32.606 76.8872 33.182C76.3112 33.758 75.6182 34.205 74.8082 34.523C73.9982 34.841 73.0982 35 72.1082 35H67.1492V21.986H72.1082C73.0982 21.986 73.9982 22.148 74.8082 22.472C75.6182 22.79 76.3112 23.237 76.8872 23.813C77.4632 24.383 77.9102 25.067 78.2282 25.865C78.5462 26.663 78.7052 27.539 78.7052 28.493ZM76.2212 28.493C76.2212 27.779 76.1252 27.14 75.9332 26.576C75.7472 26.006 75.4742 25.526 75.1142 25.136C74.7602 24.74 74.3282 24.437 73.8182 24.227C73.3142 24.017 72.7442 23.912 72.1082 23.912H69.5792V33.074H72.1082C72.7442 33.074 73.3142 32.969 73.8182 32.759C74.3282 32.549 74.7602 32.249 75.1142 31.859C75.4742 31.463 75.7472 30.983 75.9332 30.419C76.1252 29.849 76.2212 29.207 76.2212 28.493ZM83.2726 23.912V27.521H87.8266V29.384H83.2726V33.065H89.0506V35H80.8426V21.986H89.0506V23.912H83.2726ZM105.308 21.986V35H103.175V26.594C103.175 26.258 103.193 25.895 103.229 25.505L99.2961 32.894C99.1101 33.248 98.8251 33.425 98.4411 33.425H98.0991C97.7151 33.425 97.4301 33.248 97.2441 32.894L93.2661 25.478C93.2841 25.676 93.2991 25.871 93.3111 26.063C93.3231 26.255 93.3291 26.432 93.3291 26.594V35H91.1961V21.986H93.0231C93.1311 21.986 93.2241 21.989 93.3021 21.995C93.3801 22.001 93.4491 22.016 93.5091 22.04C93.5751 22.064 93.6321 22.103 93.6801 22.157C93.7341 22.211 93.7851 22.283 93.8331 22.373L97.7301 29.6C97.8321 29.792 97.9251 29.99 98.0091 30.194C98.0991 30.398 98.1861 30.608 98.2701 30.824C98.3541 30.602 98.4411 30.389 98.5311 30.185C98.6211 29.975 98.7171 29.774 98.8191 29.582L102.662 22.373C102.71 22.283 102.761 22.211 102.815 22.157C102.869 22.103 102.926 22.064 102.986 22.04C103.052 22.016 103.124 22.001 103.202 21.995C103.28 21.989 103.373 21.986 103.481 21.986H105.308ZM120.623 28.493C120.623 29.447 120.464 30.332 120.146 31.148C119.834 31.958 119.39 32.66 118.814 33.254C118.238 33.848 117.545 34.313 116.735 34.649C115.925 34.979 115.025 35.144 114.035 35.144C113.051 35.144 112.154 34.979 111.344 34.649C110.534 34.313 109.838 33.848 109.256 33.254C108.68 32.66 108.233 31.958 107.915 31.148C107.597 30.332 107.438 29.447 107.438 28.493C107.438 27.539 107.597 26.657 107.915 25.847C108.233 25.031 108.68 24.326 109.256 23.732C109.838 23.138 110.534 22.676 111.344 22.346C112.154 22.01 113.051 21.842 114.035 21.842C114.695 21.842 115.316 21.92 115.898 22.076C116.48 22.226 117.014 22.442 117.5 22.724C117.986 23 118.421 23.339 118.805 23.741C119.195 24.137 119.525 24.581 119.795 25.073C120.065 25.565 120.269 26.099 120.407 26.675C120.551 27.251 120.623 27.857 120.623 28.493ZM118.148 28.493C118.148 27.779 118.052 27.14 117.86 26.576C117.668 26.006 117.395 25.523 117.041 25.127C116.687 24.731 116.255 24.428 115.745 24.218C115.241 24.008 114.671 23.903 114.035 23.903C113.399 23.903 112.826 24.008 112.316 24.218C111.812 24.428 111.38 24.731 111.02 25.127C110.666 25.523 110.393 26.006 110.201 26.576C110.009 27.14 109.913 27.779 109.913 28.493C109.913 29.207 110.009 29.849 110.201 30.419C110.393 30.983 110.666 31.463 111.02 31.859C111.38 32.249 111.812 32.549 112.316 32.759C112.826 32.969 113.399 33.074 114.035 33.074C114.671 33.074 115.241 32.969 115.745 32.759C116.255 32.549 116.687 32.249 117.041 31.859C117.395 31.463 117.668 30.983 117.86 30.419C118.052 29.849 118.148 29.207 118.148 28.493Z" fill="url(#paint0_linear)"/>
<path d="M37.0001 37.8397C35.054 37.8397 33.1516 37.2626 31.5335 36.1814C29.9153 35.1002 28.6542 33.5634 27.9094 31.7655C27.1647 29.9675 26.9698 27.9891 27.3495 26.0804C27.7291 24.1716 28.6663 22.4184 30.0424 21.0423C31.4185 19.6662 33.1718 18.729 35.0805 18.3493C36.9892 17.9697 38.9676 18.1645 40.7656 18.9093C42.5636 19.654 44.1003 20.9152 45.1815 22.5333C46.2627 24.1515 46.8398 26.0539 46.8398 28C46.8367 30.6087 45.799 33.1097 43.9544 34.9543C42.1098 36.7989 39.6088 37.8366 37.0001 37.8397ZM37.0001 19.4603C35.3111 19.4603 33.66 19.9611 32.2557 20.8995C30.8514 21.8378 29.7568 23.1716 29.1105 24.732C28.4641 26.2924 28.295 28.0095 28.6245 29.666C28.954 31.3225 29.7673 32.8442 30.9616 34.0385C32.1559 35.2328 33.6776 36.0461 35.3341 36.3756C36.9906 36.7051 38.7077 36.536 40.2681 35.8896C41.8285 35.2433 43.1623 34.1487 44.1006 32.7444C45.039 31.34 45.5398 29.689 45.5398 28C45.5371 25.736 44.6365 23.5655 43.0355 21.9645C41.4346 20.3636 39.2641 19.463 37.0001 19.4603Z" fill="white"/>
<path d="M37.0001 37.8397C34.4664 37.8397 33.1001 32.7697 33.1001 28C33.1001 23.2303 34.4664 18.1603 37.0001 18.1603C39.5338 18.1603 40.9001 23.2303 40.9001 28C40.9001 32.7697 39.5338 37.8397 37.0001 37.8397ZM37.0001 19.4603C35.9406 19.4603 34.4001 22.787 34.4001 28C34.4001 30.3829 34.7251 32.6137 35.3101 34.2816C35.795 35.6531 36.4567 36.5397 37.0001 36.5397C38.0596 36.5397 39.6001 33.213 39.6001 28C39.6001 25.6171 39.2751 23.3863 38.6901 21.7184C38.2 20.3469 37.5383 19.4603 37.0001 19.4603Z" fill="white"/>
<path d="M46.1898 28.65H27.8104C27.638 28.65 27.4727 28.5815 27.3508 28.4596C27.2289 28.3377 27.1604 28.1724 27.1604 28C27.1604 27.8276 27.2289 27.6623 27.3508 27.5404C27.4727 27.4185 27.638 27.35 27.8104 27.35H46.1898C46.3622 27.35 46.5275 27.4185 46.6494 27.5404C46.7713 27.6623 46.8398 27.8276 46.8398 28C46.8398 28.1724 46.7713 28.3377 46.6494 28.4596C46.5275 28.5815 46.3622 28.65 46.1898 28.65Z" fill="white"/>
<path d="M45.1964 24.4901H28.8099C28.6375 24.4901 28.4722 24.4216 28.3503 24.2997C28.2284 24.1778 28.1599 24.0125 28.1599 23.8401C28.1599 23.6677 28.2284 23.5023 28.3503 23.3804C28.4722 23.2585 28.6375 23.1901 28.8099 23.1901H45.2029C45.3753 23.1901 45.5406 23.2585 45.6625 23.3804C45.7844 23.5023 45.8529 23.6677 45.8529 23.8401C45.8529 24.0125 45.7844 24.1778 45.6625 24.2997C45.5406 24.4216 45.3753 24.4901 45.2029 24.4901H45.1964Z" fill="white"/>
<path d="M45.1964 32.81H28.8099C28.6375 32.81 28.4722 32.7415 28.3503 32.6196C28.2284 32.4977 28.1599 32.3324 28.1599 32.16C28.1599 31.9876 28.2284 31.8223 28.3503 31.7004C28.4722 31.5785 28.6375 31.51 28.8099 31.51H45.2029C45.3753 31.51 45.5406 31.5785 45.6625 31.7004C45.7844 31.8223 45.8529 31.9876 45.8529 32.16C45.8529 32.3324 45.7844 32.4977 45.6625 32.6196C45.5406 32.7415 45.3753 32.81 45.2029 32.81H45.1964Z" fill="white"/>
<defs>
<linearGradient id="paint0_linear" x1="93.5" y1="17" x2="93.5" y2="39" gradientUnits="userSpaceOnUse">
<stop stop-color="white"/>
<stop offset="1" stop-color="white" stop-opacity="0"/>
</linearGradient>
</defs>
</svg>
