<svg width="178" height="50" viewBox="0 0 178 50" fill="none" xmlns="http://www.w3.org/2000/svg">
<path d="M44.9475 0.0771484C44.9475 2.35055 44.9475 4.62394 44.9475 6.82156C44.9475 7.4278 44.9475 7.4278 44.411 7.4278C36.2867 7.4278 28.2391 7.4278 20.1148 7.4278C18.0454 7.4278 16.0527 7.65514 14.1366 8.41294C11.1475 9.62542 9.23136 11.8988 8.23498 14.93C7.77512 16.3698 7.54519 17.8854 7.54519 19.401C7.54519 21.9018 7.54519 24.4025 7.54519 26.979C7.54519 27.3579 7.3919 27.4337 7.08532 27.4337C4.93929 27.4337 2.79325 27.4337 0.570573 27.4337C0.187352 27.4337 0.034064 27.3579 0.034064 26.979C0.034064 23.6447 -0.0425801 20.3104 0.034064 16.9761C0.263996 12.5808 1.56695 8.5645 4.63271 5.23018C6.7021 2.95678 9.38465 1.51697 12.4504 0.759168C13.83 0.456048 15.2096 0.228708 16.5892 0.152928C16.7425 0.152928 16.8958 0.0771484 17.0491 0.0771484C26.323 0.0771484 35.5969 0.0771484 44.9475 0.0771484Z" fill="#999999"/>
<path d="M12.5086 48.9294C12.5086 48.6968 12.5086 48.5418 12.5086 48.3868C12.5086 43.2709 12.5086 38.155 12.5086 32.9615C12.5086 32.574 12.6616 32.4965 13.0442 32.4965C19.7002 32.4965 26.3563 32.4965 33.0124 32.4965C33.6244 32.4965 33.6244 32.4965 33.6244 33.039C33.6244 34.2018 33.6244 35.2869 33.5479 36.4496C33.4714 37.5348 32.7829 38.155 31.7118 38.155C27.7334 38.155 23.6786 38.155 19.7002 38.155C19.0882 38.155 19.0882 38.155 19.0882 38.7751C19.0882 39.8603 19.0882 41.023 19.0882 42.1081C19.0882 42.4957 19.2412 42.5732 19.5472 42.5732C24.3671 42.5732 29.187 42.5732 34.007 42.5732C34.6955 42.5732 35.4606 42.4957 36.1491 42.2632C37.6028 41.7981 38.2913 40.5579 38.3678 39.0851C38.5208 37.2248 38.4443 35.3645 38.4443 33.5041C38.4443 31.8763 38.4443 30.2486 38.5208 28.6208C38.5208 28.0007 38.5208 28.0007 37.8323 28.0007C33.3949 28.0007 28.9575 28.0007 24.5202 28.0007C24.1376 28.0007 23.9846 27.9231 23.9846 27.4581C23.9846 26.5279 23.9846 25.6752 23.9846 24.7451C23.9846 23.5824 24.6732 22.7297 25.9738 22.7297C29.9521 22.7297 33.8539 22.7297 37.8323 22.7297C38.3678 22.7297 38.3678 22.7297 38.3678 22.1096C38.3678 20.9469 38.3678 19.7842 38.3678 18.699C38.3678 18.389 38.2913 18.3114 37.9088 18.3114C33.0124 18.3114 28.116 18.3114 23.2195 18.3114C22.3015 18.3114 21.3834 18.4665 20.5418 19.0091C19.5472 19.7842 19.0882 20.8694 19.0117 22.0321C18.9352 23.8149 18.9352 25.5977 18.9352 27.3805C18.9352 27.7681 18.8587 27.9231 18.4761 27.9231C16.64 27.9231 14.7273 27.9231 12.8912 27.9231C12.5086 27.9231 12.4321 27.8456 12.4321 27.4581C12.4321 24.6676 12.4321 21.7996 12.4321 19.0091C12.4321 16.5286 13.3502 14.4358 15.4924 13.0405C16.487 12.3429 17.6346 11.9553 18.8587 11.8778C20.0063 11.8003 21.1539 11.8003 22.225 11.8003C29.6461 11.8003 36.9907 11.8003 44.4118 11.8003C44.7944 11.8003 44.9474 11.9553 44.9474 12.3429C44.9474 21.1019 44.9474 29.861 44.9474 38.62C44.9474 40.7904 44.4883 42.8833 43.2642 44.6661C41.8106 46.759 39.8215 47.9217 37.3732 48.4643C36.1491 48.7743 35.0015 48.7743 33.7774 48.7743C26.8153 48.7743 19.8533 48.7743 12.8912 48.7743C12.8147 48.9294 12.6616 48.9294 12.5086 48.9294Z" fill="#999999"/>
<path d="M157.121 11.0221C157.292 16.8316 152.338 22.1285 146.017 22.1285C139.696 22.1285 134.827 16.917 134.998 11.0221C135.083 4.95625 139.952 -0.0843638 146.273 0.00107031C152.252 0.0865045 157.292 4.95625 157.121 11.0221ZM154.986 10.7658C154.815 5.12712 149.946 1.70975 145.419 2.05149C141.062 2.39323 136.791 6.06689 137.133 11.8764C137.389 16.2336 141.233 20.3344 146.358 20.0781C151.227 19.8218 155.156 16.0627 154.986 10.7658Z" fill="#999999"/>
<path d="M127.822 37.935C127.993 43.8298 123.039 49.0412 116.718 49.0412C110.397 49.0412 105.528 43.7444 105.613 37.8495C105.784 31.7838 110.568 26.8287 116.889 26.9142C122.868 26.9996 127.908 31.8693 127.822 37.935ZM107.834 38.0204C107.749 43.0609 112.02 46.9908 116.547 46.9054C121.758 46.9054 125.601 43.0609 125.601 37.8495C125.601 32.0401 120.733 28.7937 116.632 28.8791C111.764 28.9646 107.834 32.9799 107.834 38.0204Z" fill="#999999"/>
<path d="M162.16 0.854798C166.602 5.98104 171.129 11.1927 175.571 16.319C175.657 16.4044 175.742 16.4898 175.913 16.6607C175.913 11.2782 175.913 5.89561 175.913 0.598486C176.596 0.598486 177.28 0.598486 177.963 0.598486C177.963 7.60435 177.963 14.6102 177.963 21.5307C177.963 22.0779 177.28 21.3598 177.28 21.3598C172.838 16.319 168.481 11.1927 164.04 6.15192C163.954 5.98104 163.783 5.89561 163.613 5.72473C163.613 5.81017 163.613 5.98104 163.613 6.06648C163.613 11.0219 163.613 16.0627 163.613 21.018C163.613 21.4452 163.613 21.4452 163.185 21.4452C162.673 21.4452 162.16 21.4452 161.733 21.4452C161.562 21.4452 161.477 21.3598 161.477 21.1889C161.477 21.1035 161.477 21.018 161.477 21.018C161.477 14.2685 161.477 1.23947 161.477 0.854798C161.477 0.470128 161.862 0.51003 162.16 0.854798Z" fill="#999999"/>
<path d="M124.149 21.616C123.551 21.616 122.868 21.616 122.27 21.616C122.184 21.616 122.099 21.4451 122.099 21.3596C122.099 21.1888 122.099 21.0179 122.099 20.9324C122.099 17.9421 122.099 14.9518 122.099 11.876C122.099 11.7051 122.099 11.6197 122.099 11.4488C118.511 11.4488 115.009 11.4488 111.422 11.4488C111.422 11.6197 111.422 11.7051 111.422 11.876C111.422 14.9518 111.422 18.113 111.422 21.1888C111.422 21.5305 111.336 21.616 110.995 21.616C110.482 21.616 109.884 21.616 109.286 21.616C109.286 14.61 109.286 7.60408 109.286 0.598145C109.969 0.598145 110.653 0.598145 111.336 0.598145C111.336 3.50304 111.336 6.40794 111.336 9.39828C114.924 9.39828 118.426 9.39828 122.013 9.39828C122.013 6.49338 122.013 3.58848 122.013 0.598145C122.697 0.598145 123.38 0.598145 124.064 0.598145C124.149 7.60408 124.149 14.5246 124.149 21.616Z" fill="#999999"/>
<path d="M90.6647 21.6155C89.8959 21.6155 89.2126 21.6155 88.5292 21.6155C88.4438 21.6155 88.2729 21.4447 88.2729 21.3592C87.4188 19.5651 86.5646 17.8564 85.7104 16.0623C85.5395 15.6351 85.3687 15.2934 85.1125 14.8662C85.027 14.7808 84.8562 14.6099 84.7708 14.6099C81.952 14.6099 79.0477 14.6099 76.2289 14.6099C75.9727 14.6099 75.8872 14.6953 75.8872 14.8662C74.8622 17.0021 73.8372 19.1379 72.8976 21.1883C72.8122 21.4447 72.6413 21.5301 72.4705 21.5301C71.7871 21.5301 71.1892 21.5301 70.5059 21.5301C70.5059 21.4447 70.5913 21.3592 70.5913 21.2738C73.8372 14.439 77.0831 7.60424 80.329 0.684038C80.4144 0.513169 80.4998 0.427734 80.6707 0.427734C80.8415 0.427734 81.0124 0.513169 81.0978 0.684038C84.2583 7.51881 87.5042 14.3536 90.6647 21.1883C90.5793 21.4447 90.5793 21.4447 90.6647 21.6155ZM80.5853 5.0412C79.3894 7.60424 78.1935 10.0818 76.9977 12.6449C79.3894 12.6449 81.7811 12.6449 84.1729 12.6449C82.977 10.0818 81.7811 7.60424 80.5853 5.0412Z" fill="#999999"/>
<path d="M84.344 38.1908C84.344 38.3616 84.344 38.447 84.344 38.5325C84.344 41.0099 84.344 43.5728 84.344 46.0502C84.344 46.3919 84.4294 46.4773 84.7711 46.4773C87.7608 46.4773 90.8359 46.4773 93.8256 46.4773C94.1673 46.4773 94.2527 46.5627 94.2527 46.9045C94.2527 47.3316 94.2527 47.7587 94.2527 48.1859C94.2527 48.4422 94.1673 48.5276 93.911 48.5276C92.6297 48.5276 91.3484 48.5276 90.0671 48.5276C87.59 48.5276 85.1982 48.5276 82.721 48.5276C82.5502 48.5276 82.4648 48.5276 82.2939 48.5276C82.2939 41.5225 82.2939 34.5173 82.2939 27.5122C86.3087 27.5122 90.238 27.5122 94.2527 27.5122C94.2527 28.1956 94.2527 28.7936 94.2527 29.5625C90.9213 29.5625 87.6754 29.5625 84.344 29.5625C84.344 31.7836 84.344 33.9193 84.344 36.1405C84.5149 36.1405 84.6003 36.1405 84.7711 36.1405C87.7608 36.1405 90.8359 36.1405 93.8256 36.1405C94.0818 36.1405 94.2527 36.2259 94.2527 36.4822C94.2527 36.9093 94.2527 37.4219 94.2527 37.849C94.2527 38.1053 94.1673 38.1908 93.911 38.1908C92.0318 38.1908 90.238 38.1908 88.3587 38.1908C87.1629 38.1908 85.967 38.1908 84.7711 38.1908C84.6857 38.1908 84.5149 38.1908 84.344 38.1908Z" fill="#999999"/>
<path d="M139.524 27.4263C140.208 27.4263 140.891 27.4263 141.66 27.4263C141.66 27.5971 141.66 27.6826 141.66 27.8535C141.66 32.2962 141.66 36.7389 141.66 41.1816C141.66 41.9505 141.745 42.7194 141.831 43.4884C142.087 44.8554 143.027 45.7952 144.308 46.3932C146.272 47.2476 148.323 46.9913 149.775 45.7097C150.714 44.7699 151.227 43.6592 151.312 42.3777C151.398 41.5233 151.398 40.7544 151.398 39.9C151.398 35.8845 151.398 31.869 151.398 27.8535C151.398 27.6826 151.398 27.5971 151.398 27.4263C152.081 27.4263 152.764 27.4263 153.533 27.4263C153.533 27.5117 153.533 27.6826 153.533 27.768C153.533 31.869 153.533 35.9699 153.533 40.0709C153.533 41.6088 153.448 43.0612 153.021 44.5136C152.337 46.8204 150.031 48.7 147.639 48.8709C145.845 49.0418 144.222 48.7855 142.685 47.8456C140.891 46.735 139.952 45.1117 139.781 43.0612C139.695 41.8651 139.695 40.7544 139.695 39.5583C139.695 35.6282 139.695 31.6981 139.695 27.768C139.524 27.768 139.524 27.5971 139.524 27.4263Z" fill="#999999"/>
<path d="M92.4585 17.6866C93.0564 17.3448 93.6544 17.0031 94.2523 16.5759C94.3377 16.7468 94.5086 16.9177 94.594 17.0885C95.1065 17.9429 95.7044 18.7118 96.4732 19.3098C98.6941 20.933 101.855 19.8224 102.453 17.174C102.709 16.1488 102.367 15.209 101.769 14.3547C100.83 13.1586 99.7191 12.2188 98.5232 11.2791C97.4982 10.5102 96.4732 9.74126 95.5336 8.88693C93.5689 7.09283 93.2273 4.10266 94.7648 2.05226C95.7044 0.856197 96.9003 0.17273 98.4378 0.0872971C100.659 -0.0835696 102.282 0.856197 103.648 2.47943C103.905 2.82116 104.161 3.1629 104.417 3.50463C103.819 3.9318 103.307 4.35896 102.709 4.78613C102.367 4.35896 101.94 3.9318 101.598 3.50463C100.744 2.56486 99.6337 2.05226 98.267 2.22313C96.2169 2.56486 95.2773 4.61526 96.3878 6.40936C96.7294 7.0074 97.242 7.52 97.7545 7.94716C99.0358 8.97236 100.317 9.91213 101.598 10.9373C102.623 11.7062 103.478 12.646 104.075 13.7566C106.211 17.6011 103.392 21.3602 100.061 21.9582C97.242 22.4708 95.0211 21.3602 93.3127 19.0535C93.0564 18.6263 92.8002 18.1992 92.4585 17.6866Z" fill="#999999"/>
<path d="M69.8224 30.3312C69.2245 30.7584 68.6266 31.1855 68.1141 31.6127C67.8578 31.2709 67.5161 30.9292 67.2599 30.5875C66.5765 29.8186 65.8932 29.2206 64.8681 29.1351C63.9285 28.9643 62.9889 29.1351 62.2202 29.8186C61.2805 30.6729 61.1097 32.1253 61.7931 33.3213C62.2202 34.0048 62.7327 34.6028 63.416 35.03C64.6973 36.0552 66.064 36.9949 67.3453 38.1055C68.3703 38.9599 69.2245 39.985 69.8224 41.2665C70.9329 43.9149 69.8224 46.8196 67.2599 48.272C64.7827 49.6389 61.4514 49.0409 59.5722 46.8196C58.9742 46.1362 58.4617 45.3673 57.9492 44.5984C58.6326 44.1712 59.1451 43.8295 59.8284 43.4878C59.9139 43.6586 59.9993 43.7441 60.0847 43.9149C60.5972 44.8547 61.2806 45.709 62.1347 46.307C64.2702 47.7594 67.4307 46.6488 68.0286 44.1712C68.2849 43.146 68.0286 42.1208 67.3453 41.2665C66.4911 40.0705 65.3807 39.2161 64.2702 38.2764C63.2452 37.4221 62.1347 36.6532 61.1951 35.7134C59.4013 34.0902 58.8888 31.5272 59.9993 29.4769C60.8535 27.8537 62.2202 26.9993 64.014 26.9139C65.9786 26.743 67.5161 27.4265 68.8828 28.8788C69.0537 29.3914 69.3953 29.8186 69.8224 30.3312Z" fill="#999999"/>
<path d="M60.9387 2.565C60.9387 4.78621 60.9387 6.92199 60.9387 9.1432C63.7576 9.1432 66.491 9.1432 69.3098 9.1432C69.3098 9.82665 69.3098 10.5101 69.3098 11.1936C66.491 11.1936 63.7576 11.1936 60.9387 11.1936C60.9387 11.3644 60.9387 11.4498 60.9387 11.6207C60.9387 14.7817 60.9387 17.9426 60.9387 21.189C60.9387 21.4453 60.8533 21.6162 60.5971 21.5307C59.9991 21.5307 59.4866 21.5307 58.8887 21.5307C58.8887 14.5254 58.8887 7.52001 58.8887 0.514648C62.3909 0.514648 65.8076 0.514648 69.3953 0.514648C69.3953 1.1981 69.3953 1.79612 69.3953 2.47957C66.5764 2.565 63.7576 2.565 60.9387 2.565Z" fill="#999999"/>
<path d="M7.65063 48.929C5.12671 48.929 2.60279 48.929 0 48.929C0 48.7718 0 48.6145 0 48.4572C0 43.2675 0 37.9991 0 32.8093C0 32.4162 0.157745 32.2589 0.552108 32.3375C2.76054 32.3375 4.96897 32.3375 7.1774 32.3375C7.57176 32.3375 7.65063 32.4162 7.65063 32.8093C7.65063 38.0777 7.65063 43.2675 7.65063 48.5359C7.65063 48.6931 7.65063 48.7718 7.65063 48.929Z" fill="#999999"/>
<path d="M167.713 27.4263C168.396 27.4263 169.08 27.4263 169.763 27.4263C169.763 33.7486 169.763 40.0709 169.763 46.3932C172.496 46.3932 175.144 46.3932 177.792 46.3932C177.792 47.0767 177.792 47.7602 177.792 48.4437C174.376 48.4437 171.044 48.4437 167.627 48.4437C167.713 41.4379 167.713 34.5175 167.713 27.4263Z" fill="#999999"/>
<path d="M131.068 21.5308C130.385 21.5308 129.701 21.5308 129.018 21.5308C129.018 14.5254 129.018 7.52005 129.018 0.514648C129.701 0.514648 130.385 0.514648 131.068 0.514648C131.068 7.60548 131.068 14.5254 131.068 21.5308Z" fill="#999999"/>
</svg>
