<svg width="21" height="22" viewBox="0 0 21 22" fill="none" xmlns="http://www.w3.org/2000/svg">
<path d="M10.4211 14.6666C12.3395 14.6666 13.8948 13.025 13.8948 10.9999C13.8948 8.97487 12.3395 7.33325 10.4211 7.33325C8.50261 7.33325 6.94739 8.97487 6.94739 10.9999C6.94739 13.025 8.50261 14.6666 10.4211 14.6666Z" fill="#666666"/>
<path d="M14.7623 0H6.07808C2.72684 0 0 2.87925 0 6.41758V15.5842C0 19.1217 2.72771 22 6.07982 22H14.764C18.1153 22 20.8421 19.1208 20.8421 15.5824V6.41575C20.8421 2.87833 18.1144 0 14.7623 0ZM10.4211 16.5C7.54745 16.5 5.21053 14.0332 5.21053 11C5.21053 7.96675 7.54745 5.5 10.4211 5.5C13.2947 5.5 15.6316 7.96675 15.6316 11C15.6316 14.0332 13.2947 16.5 10.4211 16.5ZM16.5 5.5C16.0206 5.5 15.6316 5.08933 15.6316 4.58333C15.6316 4.07733 16.0206 3.66667 16.5 3.66667C16.9794 3.66667 17.3684 4.07733 17.3684 4.58333C17.3684 5.08933 16.9794 5.5 16.5 5.5Z" fill="#666666"/>
</svg>
