<svg width="22" height="22" viewBox="0 0 22 22" fill="none" xmlns="http://www.w3.org/2000/svg">
<path d="M15.5824 0H6.41575C2.87833 0 0 2.87925 0 6.41758V15.5842C0 19.1217 2.87925 22 6.41758 22H15.5842C19.1217 22 22 19.1208 22 15.5824V6.41575C22 2.87833 19.1208 0 15.5824 0ZM11 16.5C7.96675 16.5 5.5 14.0332 5.5 11C5.5 7.96675 7.96675 5.5 11 5.5C14.0332 5.5 16.5 7.96675 16.5 11C16.5 14.0332 14.0332 16.5 11 16.5ZM17.4167 5.5C16.9107 5.5 16.5 5.08933 16.5 4.58333C16.5 4.07733 16.9107 3.66667 17.4167 3.66667C17.9227 3.66667 18.3333 4.07733 18.3333 4.58333C18.3333 5.08933 17.9227 5.5 17.4167 5.5Z" fill="#666666"/>
</svg>
