<svg width="214" height="49" viewBox="0 0 214 49" fill="none" xmlns="http://www.w3.org/2000/svg">
<path d="M61.3098 0L43.3409 44.0563L26.1795 24.4681L47.648 0H33.044L12.7196 23.2309V0H0V48.9361H12.7196V25.7052L33.044 48.9361H54.2434L68.8474 12.0278L79.4134 39.1764H62.5885L66.6265 48.9361H96.3729L76.3176 0H61.3098Z" fill="#999999"/>
<path d="M114.091 0H101.371V48.9361H114.091V0Z" fill="#999999"/>
<path d="M147.692 19.382H137.058C134.232 19.382 131.944 18.2136 131.944 14.7771C131.944 11.4093 134.232 10.1721 137.058 10.1721H159.94V0H135.578C126.492 0 119.089 5.36098 119.089 14.7771C119.089 24.1931 126.492 29.5541 135.578 29.5541H146.548C149.374 29.5541 151.662 30.7225 151.662 34.1591C151.662 37.5269 149.374 38.764 146.548 38.764H120.906V48.9361H147.759C156.844 48.9361 164.247 43.5752 164.247 34.1591C164.18 24.743 156.777 19.382 147.692 19.382Z" fill="#999999"/>
<path d="M169.246 0V10.1721H185.263V48.9361H197.983V10.1721H214V0H169.246Z" fill="#999999"/>
</svg>
