<svg width="284" height="50" viewBox="0 0 284 50" fill="none" xmlns="http://www.w3.org/2000/svg">
<path d="M25.9225 12.2323H30.039V36.8094H25.9225V12.2323ZM31.0403 4.87048C31.0403 5.66329 30.7065 6.4561 30.039 7.02239C29.3715 7.70194 28.5927 7.92846 27.8139 7.92846C26.9238 7.92846 26.2563 7.58868 25.5888 7.02239C25.0325 6.34284 24.6987 5.66329 24.6987 4.87048C24.6987 3.96441 25.0325 3.28486 25.5888 2.71857C26.145 2.15228 26.9238 1.8125 27.8139 1.8125C28.7039 1.8125 29.4827 2.15228 30.039 2.71857C30.7065 3.28486 31.0403 3.96441 31.0403 4.87048Z" fill="#999999"/>
<path d="M60.1895 22.0854H55.7393C54.738 18.9142 51.6228 16.5358 48.0627 16.5358C43.8349 16.5358 40.386 20.0468 40.386 24.3506C40.386 28.6544 43.8349 32.1655 48.0627 32.1655H48.1739C56.2956 32.2787 63.3047 22.0854 63.3047 22.0854C70.5363 11.8922 77.4342 12.0054 78.1017 12.1187H78.213C84.8884 12.1187 90.2286 17.5551 90.2286 24.3506C90.2286 31.1461 84.8884 36.5826 78.213 36.5826C75.5429 36.5826 72.539 35.6765 70.5363 34.2041V49.041H66.1974V28.0882H70.5363H70.8701C72.2052 30.5798 75.3204 32.2787 78.213 32.2787C82.4407 32.2787 85.8897 28.7677 85.8897 24.4639C85.8897 20.16 82.4407 16.649 78.213 16.649H78.1017C72.5389 16.5358 65.6411 26.1628 65.6411 26.1628C57.8532 36.6958 49.064 36.8091 48.2852 36.8091C41.6098 36.8091 36.2695 31.3727 36.2695 24.5771C36.2695 17.7816 41.6098 12.3452 48.2852 12.3452C51.0666 12.3452 53.9592 13.3645 55.9618 14.9501V0H60.3008V22.0854H60.1895Z" fill="#999999"/>
<path d="M21.1385 36.8094L6.45282 24.3511L20.8048 12.2326H14.2407L4.11645 20.8401V6.00342H0V36.8094H4.11645V27.9753L14.5745 36.8094H21.1385Z" fill="#999999"/>
<path d="M103.802 18.1217C103.357 19.0278 103.134 19.9338 103.134 20.9532C103.134 22.5388 103.691 24.0111 104.803 25.1437C105.916 26.2762 107.362 26.8425 108.92 26.8425C110.588 26.8425 111.923 26.2762 113.036 25.1437C114.149 24.0111 114.705 22.5388 114.705 20.9532C114.705 19.9338 114.482 19.0278 114.037 18.1217C113.592 17.2157 112.925 16.5361 112.146 15.9699H115.372V13.5915H110.366V12.0059H107.473V13.5915H102.355V15.9699H105.693C104.803 16.5361 104.247 17.3289 103.802 18.1217ZM108.92 29.2209H106.027V36.9224H120.601V34.544H108.92V29.2209ZM117.709 30.0137H120.601V18.688H122.827V16.3096H120.601V12.5721H117.709V30.0137ZM111.367 23.2183C110.7 23.8978 109.921 24.2376 108.92 24.2376C108.03 24.2376 107.139 23.8978 106.472 23.2183C105.804 22.5388 105.471 21.746 105.471 20.8399C105.471 19.9338 105.804 19.0278 106.472 18.3482C107.139 17.6687 107.918 17.3289 108.92 17.3289C109.81 17.3289 110.7 17.6687 111.367 18.3482C112.035 19.0278 112.368 19.8206 112.368 20.8399C112.368 21.746 112.035 22.5388 111.367 23.2183Z" fill="#999999"/>
<path d="M143.298 21.9723H144.299V24.3507H136.845V27.2955H143.298V36.9225H140.405V29.6739H126.943V27.2955H133.952V24.3507H126.387V21.9723H140.405V14.9502H126.387V12.5718H143.298V21.9723Z" fill="#999999"/>
<path d="M166.438 36.9225H163.657V28.4281H149.75V12.5718H161.209V14.9502H152.643V26.0496H163.657V12.5718H166.438V36.9225Z" fill="#999999"/>
<path d="M187.132 12.5718H190.025V16.3093H192.25V18.6878H190.025V36.9225H187.132V12.5718ZM171.779 12.5718H184.796V14.9502H179.901L186.131 27.522L183.795 28.7678L178.232 17.7817L172.669 28.8811L170.333 27.6353L176.674 15.0635H171.779V12.5718Z" fill="#999999"/>
<path d="M214.167 34.5442H202.263V27.9751H199.37V36.9226H214.167V34.5442ZM214.167 12.5717H211.386V30.0138H214.278V12.5717H214.167ZM206.824 14.1574C205.6 12.9115 204.043 12.2319 202.374 12.2319C200.594 12.2319 199.147 12.9115 197.924 14.1574C196.7 15.4032 196.032 16.9889 196.032 18.6878C196.032 20.4999 196.7 21.9723 197.924 23.2182C199.147 24.464 200.705 25.1436 202.374 25.1436C204.154 25.1436 205.6 24.464 206.824 23.2182C208.048 21.9723 208.715 20.3867 208.715 18.6878C208.604 16.8756 208.048 15.4032 206.824 14.1574ZM205.044 21.5193C204.265 22.3121 203.375 22.6519 202.374 22.6519C201.261 22.6519 200.371 22.3121 199.704 21.5193C198.925 20.7264 198.591 19.8204 198.591 18.801C198.591 17.6684 198.925 16.7623 199.704 16.0828C200.482 15.29 201.373 14.9502 202.374 14.9502C203.375 14.9502 204.376 15.29 205.044 16.0828C205.823 16.8756 206.157 17.7817 206.157 18.801C206.045 19.8204 205.711 20.7264 205.044 21.5193Z" fill="#999999"/>
<path d="M234.304 24.6905L232.079 26.0496L226.516 16.7624L220.954 26.0496L218.729 24.6905L224.625 14.9502H220.064V12.5718H232.747V14.9502H228.408L234.304 24.6905ZM225.738 27.975H222.845V36.9225H238.198V34.5441H225.738V27.975ZM238.198 30.127H235.306V12.5718H238.198V30.127Z" fill="#999999"/>
<path d="M246.876 17.3289C246.765 17.7819 246.654 18.3482 246.654 18.8012C246.654 20.2735 247.099 21.4061 248.1 22.4254C249.101 23.4447 250.325 23.8977 251.66 23.8977C253.107 23.8977 254.219 23.4447 255.221 22.4254C256.222 21.4061 256.778 20.1603 256.778 18.8012C256.778 18.2349 256.667 17.7819 256.556 17.3289C256.444 16.8758 256.222 16.4228 255.999 15.9698H259.226V13.5914H253.107V11.7793H250.214V13.5914H244.095V15.9698H247.321C247.321 16.4228 247.099 16.8758 246.876 17.3289ZM261.451 24.5773H242.204V26.9557H261.451V24.5773ZM253.663 20.5C253.107 21.0663 252.55 21.2928 251.772 21.2928C251.104 21.2928 250.437 21.0663 249.992 20.5C249.435 19.9338 249.213 19.3675 249.213 18.6879C249.213 18.0084 249.435 17.3289 249.992 16.7626C250.548 16.1963 251.104 15.9698 251.772 15.9698C252.439 15.9698 253.107 16.1963 253.663 16.7626C254.219 17.3289 254.442 17.8951 254.442 18.6879C254.442 19.3675 254.219 20.047 253.663 20.5ZM255.443 29.2208C254.442 28.2015 253.218 27.7485 251.883 27.7485C250.437 27.7485 249.324 28.2015 248.323 29.2208C247.321 30.2401 246.876 31.4859 246.876 32.845C246.876 34.3173 247.321 35.4499 248.323 36.4692C249.324 37.4885 250.548 37.9416 251.883 37.9416C253.329 37.9416 254.442 37.3753 255.443 36.4692C256.444 35.4499 257.001 34.2041 257.001 32.845C256.889 31.3727 256.444 30.2401 255.443 29.2208ZM253.552 34.6571C253.107 35.1101 252.439 35.4499 251.772 35.4499C251.104 35.4499 250.437 35.2234 249.992 34.6571C249.547 34.2041 249.213 33.5245 249.213 32.845C249.213 32.1655 249.435 31.4859 249.992 31.0329C250.437 30.5799 251.104 30.2401 251.772 30.2401C252.439 30.2401 253.107 30.4666 253.552 31.0329C253.997 31.4859 254.331 32.1655 254.331 32.845C254.331 33.5245 254.108 34.2041 253.552 34.6571Z" fill="#999999"/>
<path d="M283.034 34.5441H270.351V28.4282H267.458V36.9225H283.034V34.5441ZM283.034 12.5721H280.142V23.7846H265.122V26.163H271.019V30.58H273.911V26.2763H280.142V27.6354H276.248V29.7872H280.142V31.2596H283.034V12.5721ZM276.025 13.4782C274.913 12.3456 273.577 11.7793 271.909 11.7793C270.351 11.7793 269.016 12.3456 267.903 13.4782C266.791 14.6107 266.235 15.9698 266.235 17.6687C266.235 19.2543 266.791 20.6134 267.903 21.746C269.016 22.8785 270.351 23.4448 271.909 23.4448C273.466 23.4448 274.801 22.8785 276.025 21.746C277.138 20.6134 277.694 19.2543 277.694 17.6687C277.694 16.0831 277.138 14.6107 276.025 13.4782ZM274.134 19.8206C273.577 20.3869 272.799 20.7266 271.909 20.7266C271.019 20.7266 270.351 20.3869 269.684 19.8206C269.127 19.141 268.794 18.4615 268.794 17.5554C268.794 16.6494 269.127 15.9698 269.684 15.2903C270.351 14.724 271.019 14.3842 271.909 14.3842C272.799 14.3842 273.466 14.724 274.134 15.2903C274.69 15.8566 275.024 16.6494 275.024 17.5554C275.024 18.4615 274.801 19.2543 274.134 19.8206Z" fill="#999999"/>
</svg>
