<svg width="161" height="46" viewBox="0 0 161 46" fill="none" xmlns="http://www.w3.org/2000/svg">
<rect width="161" height="46" rx="23" fill="#00BCC8"/>
<path d="M53.2139 23.1981C53.2139 23.9448 53.0926 24.6284 52.8499 25.2491C52.6073 25.8651 52.2643 26.3948 51.8209 26.8381C51.3823 27.2814 50.8526 27.6268 50.2319 27.8741C49.6159 28.1168 48.9299 28.2381 48.1739 28.2381H44.3659V18.1581H48.1739C48.9299 18.1581 49.6159 18.2818 50.2319 18.5291C50.8526 18.7718 51.3823 19.1148 51.8209 19.5581C52.2643 20.0014 52.6073 20.5334 52.8499 21.1541C53.0926 21.7701 53.2139 22.4514 53.2139 23.1981ZM51.5409 23.1981C51.5409 22.6194 51.4616 22.0991 51.3029 21.6371C51.1489 21.1751 50.9249 20.7854 50.6309 20.4681C50.3416 20.1508 49.9893 19.9081 49.5739 19.7401C49.1586 19.5674 48.6919 19.4811 48.1739 19.4811H46.0109V26.9151H48.1739C48.6919 26.9151 49.1586 26.8311 49.5739 26.6631C49.9893 26.4951 50.3416 26.2524 50.6309 25.9351C50.9249 25.6131 51.1489 25.2234 51.3029 24.7661C51.4616 24.3041 51.5409 23.7814 51.5409 23.1981ZM61.3093 26.9151L61.3023 28.2381H55.0163V18.1581H61.3023V19.4811H56.6613V22.5191H60.3713V23.8001H56.6613V26.9151H61.3093ZM73.8067 18.1581V28.2381H72.3647V21.3291C72.3647 21.2171 72.3671 21.0958 72.3717 20.9651C72.3811 20.8298 72.3927 20.6944 72.4067 20.5591L69.1657 26.5441C69.0397 26.7914 68.8461 26.9151 68.5847 26.9151H68.3537C68.0877 26.9151 67.8941 26.7914 67.7727 26.5441L64.4827 20.5451C64.4967 20.6804 64.5061 20.8158 64.5107 20.9511C64.5201 21.0864 64.5247 21.2124 64.5247 21.3291V28.2381H63.0827V18.1581H64.3077C64.4524 18.1581 64.5644 18.1721 64.6437 18.2001C64.7231 18.2234 64.7954 18.3004 64.8607 18.4311L68.0947 24.2901C68.1647 24.4254 68.2301 24.5654 68.2907 24.7101C68.3561 24.8501 68.4144 24.9948 68.4657 25.1441C68.5217 24.9948 68.5801 24.8478 68.6407 24.7031C68.7061 24.5538 68.7737 24.4114 68.8437 24.2761L72.0287 18.4311C72.0941 18.3004 72.1664 18.2234 72.2457 18.2001C72.3251 18.1721 72.4371 18.1581 72.5817 18.1581H73.8067ZM85.6651 23.1981C85.6651 23.9448 85.5437 24.6331 85.3011 25.2631C85.0584 25.8931 84.7154 26.4368 84.2721 26.8941C83.8334 27.3468 83.3037 27.7014 82.6831 27.9581C82.0671 28.2148 81.3811 28.3431 80.6251 28.3431C79.8737 28.3431 79.1877 28.2148 78.5671 27.9581C77.9511 27.7014 77.4214 27.3468 76.9781 26.8941C76.5347 26.4368 76.1917 25.8931 75.9491 25.2631C75.7064 24.6331 75.5851 23.9448 75.5851 23.1981C75.5851 22.4514 75.7064 21.7631 75.9491 21.1331C76.1917 20.5031 76.5347 19.9594 76.9781 19.5021C77.4214 19.0448 77.9511 18.6878 78.5671 18.4311C79.1877 18.1744 79.8737 18.0461 80.6251 18.0461C81.3811 18.0461 82.0671 18.1744 82.6831 18.4311C83.3037 18.6878 83.8334 19.0448 84.2721 19.5021C84.7154 19.9594 85.0584 20.5031 85.3011 21.1331C85.5437 21.7631 85.6651 22.4514 85.6651 23.1981ZM83.9921 23.1981C83.9921 22.6194 83.9127 22.0991 83.7541 21.6371C83.6001 21.1751 83.3761 20.7831 83.0821 20.4611C82.7927 20.1391 82.4404 19.8918 82.0251 19.7191C81.6097 19.5464 81.1431 19.4601 80.6251 19.4601C80.1117 19.4601 79.6474 19.5464 79.2321 19.7191C78.8167 19.8918 78.4621 20.1391 78.1681 20.4611C77.8741 20.7831 77.6477 21.1751 77.4891 21.6371C77.3304 22.0991 77.2511 22.6194 77.2511 23.1981C77.2511 23.7814 77.3304 24.3041 77.4891 24.7661C77.6477 25.2281 77.8741 25.6201 78.1681 25.9421C78.4621 26.2594 78.8167 26.5044 79.2321 26.6771C79.6474 26.8451 80.1117 26.9291 80.6251 26.9291C81.1431 26.9291 81.6097 26.8451 82.0251 26.6771C82.4404 26.5044 82.7927 26.2594 83.0821 25.9421C83.3761 25.6201 83.6001 25.2281 83.7541 24.7661C83.9127 24.3041 83.9921 23.7814 83.9921 23.1981ZM96.217 19.8801C96.1657 19.9641 96.112 20.0271 96.056 20.0691C96 20.1064 95.93 20.1251 95.846 20.1251C95.7574 20.1251 95.657 20.0878 95.545 20.0131C95.4377 19.9384 95.3024 19.8568 95.139 19.7681C94.9804 19.6748 94.7914 19.5908 94.572 19.5161C94.3527 19.4368 94.0914 19.3971 93.788 19.3971C93.508 19.3971 93.2607 19.4321 93.046 19.5021C92.836 19.5721 92.6587 19.6701 92.514 19.7961C92.3694 19.9221 92.2597 20.0714 92.185 20.2441C92.115 20.4121 92.08 20.5964 92.08 20.7971C92.08 21.0538 92.1477 21.2684 92.283 21.4411C92.4184 21.6091 92.5957 21.7538 92.815 21.8751C93.039 21.9964 93.2934 22.1038 93.578 22.1971C93.8627 22.2858 94.152 22.3814 94.446 22.4841C94.7447 22.5868 95.0364 22.7034 95.321 22.8341C95.6057 22.9648 95.8577 23.1304 96.077 23.3311C96.301 23.5318 96.4807 23.7768 96.616 24.0661C96.7514 24.3554 96.819 24.7078 96.819 25.1231C96.819 25.5711 96.742 25.9911 96.588 26.3831C96.434 26.7751 96.21 27.1181 95.916 27.4121C95.6267 27.7014 95.2674 27.9301 94.838 28.0981C94.4134 28.2661 93.928 28.3501 93.382 28.3501C93.06 28.3501 92.745 28.3174 92.437 28.2521C92.1337 28.1914 91.842 28.1051 91.562 27.9931C91.2867 27.8764 91.0277 27.7364 90.785 27.5731C90.5424 27.4098 90.3254 27.2278 90.134 27.0271L90.61 26.2431C90.652 26.1778 90.7057 26.1264 90.771 26.0891C90.8364 26.0518 90.9087 26.0331 90.988 26.0331C91.0954 26.0331 91.2144 26.0844 91.345 26.1871C91.4757 26.2851 91.632 26.3948 91.814 26.5161C92.0007 26.6328 92.2247 26.7424 92.486 26.8451C92.7474 26.9431 93.06 26.9921 93.424 26.9921C94.0167 26.9921 94.474 26.8474 94.796 26.5581C95.1227 26.2688 95.286 25.8698 95.286 25.3611C95.286 25.0764 95.2184 24.8454 95.083 24.6681C94.9477 24.4861 94.768 24.3344 94.544 24.2131C94.3247 24.0918 94.0727 23.9891 93.788 23.9051C93.5034 23.8211 93.214 23.7324 92.92 23.6391C92.626 23.5411 92.3367 23.4291 92.052 23.3031C91.7674 23.1724 91.513 23.0044 91.289 22.7991C91.0697 22.5891 90.8924 22.3324 90.757 22.0291C90.6217 21.7211 90.554 21.3384 90.554 20.8811C90.554 20.5171 90.624 20.1648 90.764 19.8241C90.9087 19.4834 91.1164 19.1824 91.387 18.9211C91.6624 18.6551 92.0007 18.4428 92.402 18.2841C92.8034 18.1254 93.2607 18.0461 93.774 18.0461C94.3527 18.0461 94.8824 18.1371 95.363 18.3191C95.8484 18.5011 96.266 18.7601 96.616 19.0961L96.217 19.8801ZM100.234 28.2381H98.5886V18.1581H100.234V28.2381ZM109.559 19.5231H106.416V28.2381H104.785V19.5231H101.635V18.1581H109.559V19.5231ZM117.255 26.9151L117.248 28.2381H110.962V18.1581H117.248V19.4811H112.607V22.5191H116.317V23.8001H112.607V26.9151H117.255Z" fill="white"/>
<path d="M53.2139 23.1981C53.2139 23.9448 53.0926 24.6284 52.8499 25.2491C52.6073 25.8651 52.2643 26.3948 51.8209 26.8381C51.3823 27.2814 50.8526 27.6268 50.2319 27.8741C49.6159 28.1168 48.9299 28.2381 48.1739 28.2381H44.3659V18.1581H48.1739C48.9299 18.1581 49.6159 18.2818 50.2319 18.5291C50.8526 18.7718 51.3823 19.1148 51.8209 19.5581C52.2643 20.0014 52.6073 20.5334 52.8499 21.1541C53.0926 21.7701 53.2139 22.4514 53.2139 23.1981ZM51.5409 23.1981C51.5409 22.6194 51.4616 22.0991 51.3029 21.6371C51.1489 21.1751 50.9249 20.7854 50.6309 20.4681C50.3416 20.1508 49.9893 19.9081 49.5739 19.7401C49.1586 19.5674 48.6919 19.4811 48.1739 19.4811H46.0109V26.9151H48.1739C48.6919 26.9151 49.1586 26.8311 49.5739 26.6631C49.9893 26.4951 50.3416 26.2524 50.6309 25.9351C50.9249 25.6131 51.1489 25.2234 51.3029 24.7661C51.4616 24.3041 51.5409 23.7814 51.5409 23.1981ZM61.3093 26.9151L61.3023 28.2381H55.0163V18.1581H61.3023V19.4811H56.6613V22.5191H60.3713V23.8001H56.6613V26.9151H61.3093ZM73.8067 18.1581V28.2381H72.3647V21.3291C72.3647 21.2171 72.3671 21.0958 72.3717 20.9651C72.3811 20.8298 72.3927 20.6944 72.4067 20.5591L69.1657 26.5441C69.0397 26.7914 68.8461 26.9151 68.5847 26.9151H68.3537C68.0877 26.9151 67.8941 26.7914 67.7727 26.5441L64.4827 20.5451C64.4967 20.6804 64.5061 20.8158 64.5107 20.9511C64.5201 21.0864 64.5247 21.2124 64.5247 21.3291V28.2381H63.0827V18.1581H64.3077C64.4524 18.1581 64.5644 18.1721 64.6437 18.2001C64.7231 18.2234 64.7954 18.3004 64.8607 18.4311L68.0947 24.2901C68.1647 24.4254 68.2301 24.5654 68.2907 24.7101C68.3561 24.8501 68.4144 24.9948 68.4657 25.1441C68.5217 24.9948 68.5801 24.8478 68.6407 24.7031C68.7061 24.5538 68.7737 24.4114 68.8437 24.2761L72.0287 18.4311C72.0941 18.3004 72.1664 18.2234 72.2457 18.2001C72.3251 18.1721 72.4371 18.1581 72.5817 18.1581H73.8067ZM85.6651 23.1981C85.6651 23.9448 85.5437 24.6331 85.3011 25.2631C85.0584 25.8931 84.7154 26.4368 84.2721 26.8941C83.8334 27.3468 83.3037 27.7014 82.6831 27.9581C82.0671 28.2148 81.3811 28.3431 80.6251 28.3431C79.8737 28.3431 79.1877 28.2148 78.5671 27.9581C77.9511 27.7014 77.4214 27.3468 76.9781 26.8941C76.5347 26.4368 76.1917 25.8931 75.9491 25.2631C75.7064 24.6331 75.5851 23.9448 75.5851 23.1981C75.5851 22.4514 75.7064 21.7631 75.9491 21.1331C76.1917 20.5031 76.5347 19.9594 76.9781 19.5021C77.4214 19.0448 77.9511 18.6878 78.5671 18.4311C79.1877 18.1744 79.8737 18.0461 80.6251 18.0461C81.3811 18.0461 82.0671 18.1744 82.6831 18.4311C83.3037 18.6878 83.8334 19.0448 84.2721 19.5021C84.7154 19.9594 85.0584 20.5031 85.3011 21.1331C85.5437 21.7631 85.6651 22.4514 85.6651 23.1981ZM83.9921 23.1981C83.9921 22.6194 83.9127 22.0991 83.7541 21.6371C83.6001 21.1751 83.3761 20.7831 83.0821 20.4611C82.7927 20.1391 82.4404 19.8918 82.0251 19.7191C81.6097 19.5464 81.1431 19.4601 80.6251 19.4601C80.1117 19.4601 79.6474 19.5464 79.2321 19.7191C78.8167 19.8918 78.4621 20.1391 78.1681 20.4611C77.8741 20.7831 77.6477 21.1751 77.4891 21.6371C77.3304 22.0991 77.2511 22.6194 77.2511 23.1981C77.2511 23.7814 77.3304 24.3041 77.4891 24.7661C77.6477 25.2281 77.8741 25.6201 78.1681 25.9421C78.4621 26.2594 78.8167 26.5044 79.2321 26.6771C79.6474 26.8451 80.1117 26.9291 80.6251 26.9291C81.1431 26.9291 81.6097 26.8451 82.0251 26.6771C82.4404 26.5044 82.7927 26.2594 83.0821 25.9421C83.3761 25.6201 83.6001 25.2281 83.7541 24.7661C83.9127 24.3041 83.9921 23.7814 83.9921 23.1981ZM96.217 19.8801C96.1657 19.9641 96.112 20.0271 96.056 20.0691C96 20.1064 95.93 20.1251 95.846 20.1251C95.7574 20.1251 95.657 20.0878 95.545 20.0131C95.4377 19.9384 95.3024 19.8568 95.139 19.7681C94.9804 19.6748 94.7914 19.5908 94.572 19.5161C94.3527 19.4368 94.0914 19.3971 93.788 19.3971C93.508 19.3971 93.2607 19.4321 93.046 19.5021C92.836 19.5721 92.6587 19.6701 92.514 19.7961C92.3694 19.9221 92.2597 20.0714 92.185 20.2441C92.115 20.4121 92.08 20.5964 92.08 20.7971C92.08 21.0538 92.1477 21.2684 92.283 21.4411C92.4184 21.6091 92.5957 21.7538 92.815 21.8751C93.039 21.9964 93.2934 22.1038 93.578 22.1971C93.8627 22.2858 94.152 22.3814 94.446 22.4841C94.7447 22.5868 95.0364 22.7034 95.321 22.8341C95.6057 22.9648 95.8577 23.1304 96.077 23.3311C96.301 23.5318 96.4807 23.7768 96.616 24.0661C96.7514 24.3554 96.819 24.7078 96.819 25.1231C96.819 25.5711 96.742 25.9911 96.588 26.3831C96.434 26.7751 96.21 27.1181 95.916 27.4121C95.6267 27.7014 95.2674 27.9301 94.838 28.0981C94.4134 28.2661 93.928 28.3501 93.382 28.3501C93.06 28.3501 92.745 28.3174 92.437 28.2521C92.1337 28.1914 91.842 28.1051 91.562 27.9931C91.2867 27.8764 91.0277 27.7364 90.785 27.5731C90.5424 27.4098 90.3254 27.2278 90.134 27.0271L90.61 26.2431C90.652 26.1778 90.7057 26.1264 90.771 26.0891C90.8364 26.0518 90.9087 26.0331 90.988 26.0331C91.0954 26.0331 91.2144 26.0844 91.345 26.1871C91.4757 26.2851 91.632 26.3948 91.814 26.5161C92.0007 26.6328 92.2247 26.7424 92.486 26.8451C92.7474 26.9431 93.06 26.9921 93.424 26.9921C94.0167 26.9921 94.474 26.8474 94.796 26.5581C95.1227 26.2688 95.286 25.8698 95.286 25.3611C95.286 25.0764 95.2184 24.8454 95.083 24.6681C94.9477 24.4861 94.768 24.3344 94.544 24.2131C94.3247 24.0918 94.0727 23.9891 93.788 23.9051C93.5034 23.8211 93.214 23.7324 92.92 23.6391C92.626 23.5411 92.3367 23.4291 92.052 23.3031C91.7674 23.1724 91.513 23.0044 91.289 22.7991C91.0697 22.5891 90.8924 22.3324 90.757 22.0291C90.6217 21.7211 90.554 21.3384 90.554 20.8811C90.554 20.5171 90.624 20.1648 90.764 19.8241C90.9087 19.4834 91.1164 19.1824 91.387 18.9211C91.6624 18.6551 92.0007 18.4428 92.402 18.2841C92.8034 18.1254 93.2607 18.0461 93.774 18.0461C94.3527 18.0461 94.8824 18.1371 95.363 18.3191C95.8484 18.5011 96.266 18.7601 96.616 19.0961L96.217 19.8801ZM100.234 28.2381H98.5886V18.1581H100.234V28.2381ZM109.559 19.5231H106.416V28.2381H104.785V19.5231H101.635V18.1581H109.559V19.5231ZM117.255 26.9151L117.248 28.2381H110.962V18.1581H117.248V19.4811H112.607V22.5191H116.317V23.8001H112.607V26.9151H117.255Z" fill="url(#paint0_linear)"/>
<defs>
<linearGradient id="paint0_linear" x1="80.5" y1="14.2381" x2="80.5" y2="32.3095" gradientUnits="userSpaceOnUse">
<stop stop-color="white"/>
<stop offset="1" stop-color="white" stop-opacity="0"/>
</linearGradient>
</defs>
</svg>
