<svg width="21" height="22" viewBox="0 0 21 22" fill="none" xmlns="http://www.w3.org/2000/svg">
<rect x="0.0526428" width="20.8421" height="22" rx="5" fill="#666666"/>
<path d="M15.3947 16.5H12.0658C12.0196 16.5 11.9741 16.4873 11.9331 16.463C11.892 16.4386 11.8566 16.4033 11.8299 16.36L9.17105 12.045V16.1667C9.17105 16.2551 9.14055 16.3399 9.08626 16.4024C9.03198 16.4649 8.95835 16.5 8.88157 16.5H5.55263C5.47585 16.5 5.40222 16.4649 5.34794 16.4024C5.29365 16.3399 5.26315 16.2551 5.26315 16.1667V5.83333C5.26315 5.74493 5.29365 5.66014 5.34794 5.59763C5.40222 5.53512 5.47585 5.5 5.55263 5.5H8.88157C8.92774 5.49998 8.97325 5.51268 9.01429 5.53703C9.05533 5.56139 9.09072 5.59669 9.1175 5.64L11.7763 9.955V5.83333C11.7763 5.74493 11.8068 5.66014 11.8611 5.59763C11.9154 5.53512 11.989 5.5 12.0658 5.5H15.3947C15.4715 5.5 15.5451 5.53512 15.5994 5.59763C15.6537 5.66014 15.6842 5.74493 15.6842 5.83333V16.1667C15.6842 16.2551 15.6537 16.3399 15.5994 16.4024C15.5451 16.4649 15.4715 16.5 15.3947 16.5Z" fill="white"/>
</svg>
