<svg width="22" height="22" viewBox="0 0 22 22" fill="none" xmlns="http://www.w3.org/2000/svg">
<rect width="22" height="22" rx="5" fill="#666666"/>
<path d="M16.1944 16.5H12.6806C12.6318 16.5 12.5838 16.4873 12.5405 16.463C12.4971 16.4386 12.4598 16.4033 12.4315 16.36L9.625 12.045V16.1667C9.625 16.2551 9.59281 16.3399 9.53551 16.4024C9.4782 16.4649 9.40048 16.5 9.31944 16.5H5.80556C5.72452 16.5 5.6468 16.4649 5.5895 16.4024C5.53219 16.3399 5.5 16.2551 5.5 16.1667V5.83333C5.5 5.74493 5.53219 5.66014 5.5895 5.59763C5.6468 5.53512 5.72452 5.5 5.80556 5.5H9.31944C9.36818 5.49998 9.41621 5.51268 9.45953 5.53703C9.50285 5.56139 9.54021 5.59669 9.56847 5.64L12.375 9.955V5.83333C12.375 5.74493 12.4072 5.66014 12.4645 5.59763C12.5218 5.53512 12.5995 5.5 12.6806 5.5H16.1944C16.2755 5.5 16.3532 5.53512 16.4105 5.59763C16.4678 5.66014 16.5 5.74493 16.5 5.83333V16.1667C16.5 16.2551 16.4678 16.3399 16.4105 16.4024C16.3532 16.4649 16.2755 16.5 16.1944 16.5Z" fill="white"/>
</svg>
