<svg width="40" height="40" viewBox="0 0 40 40" fill="none" xmlns="http://www.w3.org/2000/svg">
<path d="M37.8915 19.062V13.7767C38.6247 13.5153 39.1546 12.8206 39.1546 11.9983C39.1546 10.9538 38.3045 10.1038 37.26 10.1038C37.0427 10.1038 36.8369 10.148 36.6423 10.2155L33.8125 6.67775C33.9931 6.38914 34.1024 6.05001 34.1024 5.68373C34.1024 4.63918 33.2523 3.78915 32.2078 3.78915C31.6767 3.78915 31.198 4.01018 30.8532 4.36321L25.8748 2.06572C25.8805 2.00825 25.8925 1.95331 25.8925 1.89458C25.8925 0.850033 25.0425 0 23.998 0C23.1757 0 22.481 0.52985 22.2196 1.26305H15.0404C14.779 0.52985 14.0843 0 13.262 0C12.2175 0 11.3675 0.850033 11.3675 1.89458C11.3675 1.97288 11.3813 2.04804 11.3908 2.12382L8.25845 3.69C7.91743 3.36224 7.45642 3.15763 6.94678 3.15763C5.90223 3.15763 5.0522 4.00766 5.0522 5.0522C5.0522 5.41849 5.16145 5.75761 5.34144 6.04748L2.51158 9.58466C2.31707 9.51708 2.11182 9.47288 1.89458 9.47288C0.850033 9.47288 0 10.3229 0 11.3675C0 12.1897 0.52985 12.8844 1.26305 13.1458V17.168C0.52985 17.4288 0 18.1235 0 18.9458C0 19.9903 0.850033 20.8403 1.89458 20.8403C2.5962 20.8403 3.20246 20.4526 3.53023 19.8848L6.97772 20.5119C7.1236 21.4119 7.90038 22.1034 8.84135 22.1034C8.86724 22.1034 8.89061 22.0971 8.91587 22.0958L10.1208 25.1082C9.72675 25.4561 9.47288 25.9582 9.47288 26.5241C9.47288 27.5686 10.3229 28.4186 11.3675 28.4186C12.0028 28.4186 12.5629 28.1016 12.9065 27.6204L18.3262 29.1689C18.3749 29.9381 18.8801 30.5797 19.5773 30.8285V35.4822C18.8441 35.7437 18.3142 36.4384 18.3142 37.2606C18.3142 38.3052 19.1643 39.1552 20.2088 39.1552C21.2533 39.1552 22.1034 38.3052 22.1034 37.2606C22.1034 36.4384 21.5735 35.7437 20.8403 35.4822V30.8285C21.5735 30.5671 22.1034 29.8724 22.1034 29.0502C22.1034 28.4452 21.8129 27.9109 21.3695 27.5642L22.1236 25.3021L27.7903 27.1909C27.8054 27.9974 28.3271 28.6757 29.0495 28.9333V35.4816C28.3163 35.7431 27.7865 36.4377 27.7865 37.26C27.7865 38.3045 28.6365 39.1546 29.681 39.1546C30.7256 39.1546 31.5756 38.3045 31.5756 37.26C31.5756 36.4377 31.0458 35.7431 30.3126 35.4816V28.934C31.0458 28.6725 31.5756 27.9778 31.5756 27.1556C31.5756 26.9251 31.5283 26.7066 31.4525 26.5019L36.2982 22.464C36.5811 22.632 36.9076 22.7349 37.26 22.7349C38.3045 22.7349 39.1546 21.8849 39.1546 20.8403C39.1546 20.0181 38.6247 19.3234 37.8915 19.062ZM10.7321 20.1734C10.7309 20.0977 10.7195 20.025 10.7094 19.9518L15.8898 17.2659L17.492 22.4273L10.7321 20.1734ZM9.32257 18.3837L8.44728 11.6718L12.7751 11.4552C13.0498 12.1209 13.6934 12.592 14.4499 12.6223L15.5103 16.0395L10.1316 18.8283C9.90547 18.618 9.62949 18.4652 9.32257 18.3837ZM3.64516 10.6475C3.60538 10.5509 3.55422 10.4599 3.49928 10.3722L6.32914 6.835C6.4024 6.86026 6.4744 6.88741 6.55081 6.90383L7.01751 10.4789L3.64516 10.6475ZM7.80249 6.73332C8.41634 6.41945 8.84135 5.7873 8.84135 5.0522C8.84135 4.97389 8.82746 4.89874 8.81799 4.82296L11.9503 3.25677C12.2914 3.58454 12.7524 3.78915 13.262 3.78915C13.6498 3.78915 14.0104 3.67106 14.311 3.47023L18.2328 6.41124L15.3934 9.06112C15.132 8.92597 14.8396 8.84135 14.5251 8.84135C13.67 8.84135 12.9538 9.41414 12.7189 10.1941L8.28308 10.4157L7.80249 6.73332ZM22.2632 2.65051L19.1706 5.53658L15.156 2.5261H22.2196C22.2347 2.56778 22.2455 2.61009 22.2632 2.65051ZM24.0238 11.6251L18.942 14.2605L16.2296 11.5481C16.3477 11.3005 16.4197 11.0277 16.4197 10.7359C16.4197 10.4669 16.3616 10.2124 16.2605 9.98062L19.259 7.1817L24.0921 10.8067C24.0365 10.9847 23.998 11.171 23.998 11.3675C23.998 11.4559 24.0125 11.5399 24.0238 11.6251ZM15.1566 10.7359C15.1566 11.0839 14.8737 11.3675 14.5251 11.3675C14.1765 11.3675 13.8936 11.0839 13.8936 10.7359C13.8936 10.388 14.1765 10.1044 14.5251 10.1044C14.8737 10.1044 15.1566 10.388 15.1566 10.7359ZM17.7661 14.8699L16.6489 15.449L15.8854 12.9892L17.7661 14.8699ZM17.0291 16.6748L18.7026 15.8071L21.6613 18.7658C21.5438 19.0127 21.4719 19.2855 21.4719 19.5773C21.4719 20.1829 21.7624 20.7165 22.2057 21.0633L21.3253 23.7043L18.9672 22.918L17.0291 16.6748ZM23.3664 20.2088C23.0178 20.2088 22.7349 19.9252 22.7349 19.5773C22.7349 19.2293 23.0178 18.9458 23.3664 18.9458C23.715 18.9458 23.998 19.2293 23.998 19.5773C23.998 19.9252 23.715 20.2088 23.3664 20.2088ZM23.3664 17.6827C23.0747 17.6827 22.8018 17.7541 22.5549 17.8728L19.8791 15.197L24.603 12.7473C24.9415 13.0644 25.393 13.262 25.8925 13.262C26.2449 13.262 26.5714 13.1591 26.8543 12.9905L29.7297 15.3865L24.6251 18.1709C24.2891 17.8709 23.8514 17.6827 23.3664 17.6827ZM31.3098 7.34148C31.5781 7.48799 31.8813 7.5783 32.2078 7.5783C32.425 7.5783 32.6303 7.53409 32.8248 7.46652L35.6546 11.0043C35.4747 11.2942 35.3654 11.6327 35.3654 11.999C35.3654 12.1007 35.3799 12.1992 35.3957 12.2964L30.9226 14.7366L27.664 12.0211C27.7397 11.8165 27.7871 11.598 27.7871 11.3675C27.7871 11.1104 27.7347 10.866 27.6419 10.6425L31.3098 7.34148ZM36.2988 19.2167L31.9659 15.6056L36.002 13.4041C36.1832 13.5671 36.3948 13.6934 36.6291 13.7767V19.062C36.5129 19.1036 36.403 19.1548 36.2988 19.2167ZM26.5241 11.3675C26.5241 11.7154 26.2411 11.999 25.8925 11.999C25.5439 11.999 25.261 11.7154 25.261 11.3675C25.261 11.0195 25.5439 10.7359 25.8925 10.7359C26.2411 10.7359 26.5241 11.0195 26.5241 11.3675ZM30.773 16.2567L35.2985 20.0282L25.4934 19.1365L30.773 16.2567ZM37.8915 11.999C37.8915 12.3469 37.6086 12.6305 37.26 12.6305C36.9114 12.6305 36.6285 12.3469 36.6285 11.999C36.6285 11.651 36.9114 11.3675 37.26 11.3675C37.6086 11.3675 37.8915 11.651 37.8915 11.999ZM32.2078 5.0522C32.5564 5.0522 32.8393 5.33576 32.8393 5.68373C32.8393 6.0317 32.5564 6.31525 32.2078 6.31525C31.8592 6.31525 31.5763 6.0317 31.5763 5.68373C31.5763 5.33576 31.8592 5.0522 32.2078 5.0522ZM30.3303 5.51258C30.3252 5.57005 30.3132 5.62499 30.3132 5.68373C30.3132 5.94076 30.3656 6.18516 30.4585 6.40872L26.7899 9.7097C26.5222 9.56318 26.219 9.47288 25.8925 9.47288C25.5048 9.47288 25.1442 9.59097 24.8436 9.79179L20.1968 6.30641L23.1302 3.56875C23.3911 3.70516 23.6835 3.78915 23.998 3.78915C24.5291 3.78915 25.0084 3.56812 25.3526 3.21509L30.3303 5.51258ZM23.998 1.26305C24.3466 1.26305 24.6295 1.5466 24.6295 1.89458C24.6295 2.24255 24.3466 2.5261 23.998 2.5261C23.6494 2.5261 23.3664 2.24255 23.3664 1.89458C23.3664 1.5466 23.6494 1.26305 23.998 1.26305ZM13.262 1.26305C13.6106 1.26305 13.8936 1.5466 13.8936 1.89458C13.8936 2.24255 13.6106 2.5261 13.262 2.5261C12.9134 2.5261 12.6305 2.24255 12.6305 1.89458C12.6305 1.5466 12.9134 1.26305 13.262 1.26305ZM6.94678 4.42068C7.29538 4.42068 7.5783 4.70423 7.5783 5.0522C7.5783 5.40017 7.29538 5.68373 6.94678 5.68373C6.59817 5.68373 6.31525 5.40017 6.31525 5.0522C6.31525 4.70423 6.59817 4.42068 6.94678 4.42068ZM1.89458 10.7359C2.24318 10.7359 2.5261 11.0195 2.5261 11.3675C2.5261 11.7154 2.24318 11.999 1.89458 11.999C1.54597 11.999 1.26305 11.7154 1.26305 11.3675C1.26305 11.0195 1.54597 10.7359 1.89458 10.7359ZM1.89458 19.5773C1.54597 19.5773 1.26305 19.2937 1.26305 18.9458C1.26305 18.5978 1.54597 18.3142 1.89458 18.3142C2.24318 18.3142 2.5261 18.5978 2.5261 18.9458C2.5261 19.2937 2.24318 19.5773 1.89458 19.5773ZM2.5261 17.1674V13.1452C3.09068 12.9437 3.52707 12.4859 3.70074 11.9087L7.1817 11.7344L8.06205 18.4854C7.69955 18.6496 7.40337 18.9262 7.2057 19.2685L3.75884 18.6426C3.64706 17.9555 3.1671 17.396 2.5261 17.1674ZM8.20983 20.2088C8.20983 19.8608 8.49275 19.5773 8.84135 19.5773C9.18995 19.5773 9.47288 19.8608 9.47288 20.2088C9.47288 20.5568 9.18995 20.8403 8.84135 20.8403C8.49275 20.8403 8.20983 20.5568 8.20983 20.2088ZM10.088 21.6241C10.1758 21.547 10.2553 21.4617 10.3273 21.3695L17.953 23.9114L19.079 27.5383C18.9224 27.6557 18.7835 27.794 18.6698 27.9532L13.25 26.4047C13.1875 25.417 12.3716 24.6295 11.3675 24.6295C11.3422 24.6295 11.3182 24.6358 11.2936 24.6371L10.088 21.6241ZM11.3675 27.1556C11.0189 27.1556 10.7359 26.872 10.7359 26.5241C10.7359 26.1761 11.0189 25.8925 11.3675 25.8925C11.7161 25.8925 11.999 26.1761 11.999 26.5241C11.999 26.872 11.7161 27.1556 11.3675 27.1556ZM20.2088 37.8915C19.8602 37.8915 19.5773 37.6079 19.5773 37.26C19.5773 36.912 19.8602 36.6285 20.2088 36.6285C20.5574 36.6285 20.8403 36.912 20.8403 37.26C20.8403 37.6079 20.5574 37.8915 20.2088 37.8915ZM20.2088 29.6817C19.8602 29.6817 19.5773 29.3981 19.5773 29.0502C19.5773 28.7022 19.8602 28.4186 20.2088 28.4186C20.5574 28.4186 20.8403 28.7022 20.8403 29.0502C20.8403 29.3981 20.5574 29.6817 20.2088 29.6817ZM20.2303 26.9889L19.4276 24.4034L20.9256 24.9029L20.2303 26.9889ZM23.4018 21.4681C24.1483 21.4542 24.7874 21.007 25.0829 20.3673L35.4311 21.3083C35.4475 21.3714 35.4664 21.4333 35.4886 21.494L30.6429 25.5319C30.3599 25.3639 30.0341 25.261 29.6817 25.261C29.0767 25.261 28.5424 25.5515 28.1957 25.9948L22.5233 24.104L23.4018 21.4681ZM29.6817 37.8915C29.3331 37.8915 29.0502 37.6079 29.0502 37.26C29.0502 36.912 29.3331 36.6285 29.6817 36.6285C30.0303 36.6285 30.3132 36.912 30.3132 37.26C30.3132 37.6079 30.0303 37.8915 29.6817 37.8915ZM29.6817 27.7871C29.3331 27.7871 29.0502 27.5035 29.0502 27.1556C29.0502 26.8076 29.3331 26.5241 29.6817 26.5241C30.0303 26.5241 30.3132 26.8076 30.3132 27.1556C30.3132 27.5035 30.0303 27.7871 29.6817 27.7871ZM37.26 21.4719C36.9114 21.4719 36.6285 21.1883 36.6285 20.8403C36.6285 20.4924 36.9114 20.2088 37.26 20.2088C37.6086 20.2088 37.8915 20.4924 37.8915 20.8403C37.8915 21.1883 37.6086 21.4719 37.26 21.4719Z" fill="#00BCC8"/>
</svg>
