<svg width="30" height="30" viewBox="0 0 30 30" fill="none" xmlns="http://www.w3.org/2000/svg">
<path d="M28.64 14.2965V10.3325C29.1941 10.1365 29.5946 9.61544 29.5946 8.99876C29.5946 8.21535 28.9521 7.57783 28.1626 7.57783C27.9984 7.57783 27.8428 7.61098 27.6958 7.66166L25.5569 5.00831C25.6934 4.79185 25.776 4.53751 25.776 4.26279C25.776 3.47939 25.1335 2.84186 24.344 2.84186C23.9425 2.84186 23.5807 3.00764 23.3201 3.27241L19.5573 1.54929C19.5616 1.50619 19.5706 1.46498 19.5706 1.42093C19.5706 0.637525 18.9281 0 18.1386 0C17.5172 0 16.9921 0.397387 16.7945 0.947288H11.3682C11.1705 0.397387 10.6455 0 10.024 0C9.23448 0 8.59199 0.637525 8.59199 1.42093C8.59199 1.47966 8.60249 1.53603 8.60965 1.59286L6.24208 2.7675C5.98432 2.52168 5.63587 2.36822 5.25066 2.36822C4.46115 2.36822 3.81866 3.00574 3.81866 3.78915C3.81866 4.06386 3.90124 4.31821 4.03728 4.53561L1.89835 7.18849C1.75133 7.13781 1.5962 7.10466 1.432 7.10466C0.64249 7.10466 0 7.74218 0 8.52559C0 9.14227 0.400482 9.66328 0.954665 9.85937V12.876C0.400482 13.0716 0 13.5926 0 14.2093C0 14.9927 0.64249 15.6302 1.432 15.6302C1.96231 15.6302 2.42055 15.3394 2.66829 14.9136L5.27405 15.384C5.38431 16.0589 5.97143 16.5775 6.68266 16.5775C6.70223 16.5775 6.71989 16.5728 6.73898 16.5718L7.64973 18.8311C7.35188 19.0921 7.15999 19.4687 7.15999 19.893C7.15999 20.6764 7.80248 21.314 8.59199 21.314C9.07218 21.314 9.49558 21.0762 9.75525 20.7153L13.8517 21.8767C13.8885 22.4536 14.2703 22.9348 14.7973 23.1214V26.6117C14.2431 26.8078 13.8426 27.3288 13.8426 27.9455C13.8426 28.7289 14.4851 29.3664 15.2746 29.3664C16.0642 29.3664 16.7066 28.7289 16.7066 27.9455C16.7066 27.3288 16.3062 26.8078 15.752 26.6117V23.1214C16.3062 22.9253 16.7066 22.4043 16.7066 21.7876C16.7066 21.3339 16.4871 20.9332 16.152 20.6731L16.7219 18.9765L21.005 20.3932C21.0165 20.998 21.4108 21.5067 21.9568 21.7V26.6112C21.4026 26.8073 21.0022 27.3283 21.0022 27.945C21.0022 28.7284 21.6446 29.3659 22.4342 29.3659C23.2237 29.3659 23.8662 28.7284 23.8662 27.945C23.8662 27.3283 23.4657 26.8073 22.9115 26.6112V21.7005C23.4657 21.5044 23.8662 20.9834 23.8662 20.3667C23.8662 20.1938 23.8304 20.0299 23.7731 19.8765L27.4356 16.848C27.6495 16.974 27.8963 17.0512 28.1626 17.0512C28.9521 17.0512 29.5946 16.4137 29.5946 15.6302C29.5946 15.0136 29.1941 14.4926 28.64 14.2965ZM8.11179 15.1301C8.11084 15.0732 8.10224 15.0188 8.09461 14.9638L12.0102 12.9494L13.2212 16.8205L8.11179 15.1301ZM7.04638 13.7878L6.3848 8.75388L9.65596 8.59142C9.8636 9.09064 10.35 9.44398 10.9218 9.46672L11.7233 12.0296L7.65785 14.1212C7.48696 13.9635 7.27837 13.8489 7.04638 13.7878ZM2.75516 7.98563C2.72509 7.91317 2.68643 7.84496 2.6449 7.77913L4.78383 5.12625C4.8392 5.14519 4.89361 5.16556 4.95137 5.17787L5.30412 7.85917L2.75516 7.98563ZM5.89744 5.04999C6.36141 4.81459 6.68266 4.34047 6.68266 3.78915C6.68266 3.73042 6.67216 3.67406 6.665 3.61722L9.03257 2.44258C9.29033 2.6884 9.63878 2.84186 10.024 2.84186C10.3171 2.84186 10.5896 2.75329 10.8168 2.60267L13.7811 4.80843L11.635 6.79584C11.4374 6.69448 11.2164 6.63101 10.9787 6.63101C10.3323 6.63101 9.79105 7.06061 9.61348 7.64556L6.2607 7.81181L5.89744 5.04999ZM16.8274 1.98788L14.4899 4.15244L11.4555 1.89458H16.7945C16.8059 1.92584 16.814 1.95757 16.8274 1.98788ZM18.1582 8.71884L14.3171 10.6954L12.267 8.66105C12.3562 8.47538 12.4106 8.27077 12.4106 8.05194C12.4106 7.85017 12.3667 7.65929 12.2904 7.48547L14.5567 5.38628L18.2098 8.10499C18.1678 8.23856 18.1386 8.37829 18.1386 8.52559C18.1386 8.5919 18.1496 8.65489 18.1582 8.71884ZM11.456 8.05194C11.456 8.31292 11.2421 8.52559 10.9787 8.52559C10.7152 8.52559 10.5013 8.31292 10.5013 8.05194C10.5013 7.79097 10.7152 7.5783 10.9787 7.5783C11.2421 7.5783 11.456 7.79097 11.456 8.05194ZM13.4283 11.1524L12.5839 11.5867L12.0068 9.74191L13.4283 11.1524ZM12.8713 12.5061L14.1362 11.8553L16.3725 14.0743C16.2837 14.2595 16.2293 14.4641 16.2293 14.683C16.2293 15.1372 16.4489 15.5374 16.784 15.7974L16.1186 17.7782L14.3362 17.1885L12.8713 12.5061ZM17.6613 15.1566C17.3978 15.1566 17.184 14.9439 17.184 14.683C17.184 14.422 17.3978 14.2093 17.6613 14.2093C17.9248 14.2093 18.1386 14.422 18.1386 14.683C18.1386 14.9439 17.9248 15.1566 17.6613 15.1566ZM17.6613 13.262C17.4408 13.262 17.2346 13.3155 17.0479 13.4046L15.0255 11.3978L18.5959 9.5605C18.8518 9.79827 19.1931 9.94652 19.5706 9.94652C19.837 9.94652 20.0838 9.86932 20.2976 9.74285L22.4709 11.5399L18.6126 13.6282C18.3587 13.4032 18.0279 13.262 17.6613 13.262ZM23.6652 5.50611C23.8681 5.61599 24.0972 5.68373 24.344 5.68373C24.5082 5.68373 24.6633 5.65057 24.8103 5.59989L26.9492 8.25324C26.8132 8.47064 26.7306 8.72452 26.7306 8.99923C26.7306 9.07549 26.7416 9.14938 26.7535 9.22232L23.3726 11.0525L20.9096 9.01581C20.9668 8.86235 21.0026 8.69847 21.0026 8.52559C21.0026 8.33282 20.963 8.14951 20.8929 7.98184L23.6652 5.50611ZM27.4361 14.4125L24.1611 11.7042L27.2118 10.0531C27.3488 10.1753 27.5087 10.27 27.6858 10.3325V14.2965C27.5979 14.3277 27.5149 14.3661 27.4361 14.4125ZM20.048 8.52559C20.048 8.78657 19.8341 8.99923 19.5706 8.99923C19.3071 8.99923 19.0933 8.78657 19.0933 8.52559C19.0933 8.26461 19.3071 8.05194 19.5706 8.05194C19.8341 8.05194 20.048 8.26461 20.048 8.52559ZM23.2595 12.1925L26.68 15.0211L19.269 14.3524L23.2595 12.1925ZM28.64 8.99923C28.64 9.26021 28.4261 9.47288 28.1626 9.47288C27.8991 9.47288 27.6853 9.26021 27.6853 8.99923C27.6853 8.73825 27.8991 8.52559 28.1626 8.52559C28.4261 8.52559 28.64 8.73825 28.64 8.99923ZM24.344 3.78915C24.6075 3.78915 24.8213 4.00182 24.8213 4.26279C24.8213 4.52377 24.6075 4.73644 24.344 4.73644C24.0805 4.73644 23.8666 4.52377 23.8666 4.26279C23.8666 4.00182 24.0805 3.78915 24.344 3.78915ZM22.9249 4.13444C22.921 4.17754 22.912 4.21875 22.912 4.26279C22.912 4.45557 22.9516 4.63887 23.0218 4.80654L20.2489 7.28227C20.0465 7.17239 19.8174 7.10466 19.5706 7.10466C19.2776 7.10466 19.005 7.19323 18.7778 7.34385L15.2656 4.72981L17.4828 2.67656C17.6799 2.77887 17.9009 2.84186 18.1386 2.84186C18.5401 2.84186 18.9024 2.67609 19.1625 2.41132L22.9249 4.13444ZM18.1386 0.947288C18.4021 0.947288 18.616 1.15995 18.616 1.42093C18.616 1.68191 18.4021 1.89458 18.1386 1.89458C17.8752 1.89458 17.6613 1.68191 17.6613 1.42093C17.6613 1.15995 17.8752 0.947288 18.1386 0.947288ZM10.024 0.947288C10.2875 0.947288 10.5013 1.15995 10.5013 1.42093C10.5013 1.68191 10.2875 1.89458 10.024 1.89458C9.7605 1.89458 9.54665 1.68191 9.54665 1.42093C9.54665 1.15995 9.7605 0.947288 10.024 0.947288ZM5.25066 3.31551C5.51415 3.31551 5.72799 3.52817 5.72799 3.78915C5.72799 4.05013 5.51415 4.26279 5.25066 4.26279C4.98717 4.26279 4.77333 4.05013 4.77333 3.78915C4.77333 3.52817 4.98717 3.31551 5.25066 3.31551ZM1.432 8.05194C1.69549 8.05194 1.90933 8.26461 1.90933 8.52559C1.90933 8.78657 1.69549 8.99923 1.432 8.99923C1.16851 8.99923 0.954665 8.78657 0.954665 8.52559C0.954665 8.26461 1.16851 8.05194 1.432 8.05194ZM1.432 14.683C1.16851 14.683 0.954665 14.4703 0.954665 14.2093C0.954665 13.9483 1.16851 13.7357 1.432 13.7357C1.69549 13.7357 1.90933 13.9483 1.90933 14.2093C1.90933 14.4703 1.69549 14.683 1.432 14.683ZM1.90933 12.8755V9.8589C2.33607 9.7078 2.6659 9.36441 2.79717 8.9315L5.42823 8.80077L6.09363 13.864C5.81964 13.9872 5.59577 14.1946 5.44637 14.4513L2.84108 13.982C2.7566 13.4666 2.39382 13.047 1.90933 12.8755ZM6.20532 15.1566C6.20532 14.8956 6.41917 14.683 6.68266 14.683C6.94614 14.683 7.15999 14.8956 7.15999 15.1566C7.15999 15.4176 6.94614 15.6302 6.68266 15.6302C6.41917 15.6302 6.20532 15.4176 6.20532 15.1566ZM7.62491 16.218C7.69126 16.1603 7.75141 16.0963 7.80582 16.0272L13.5696 17.9336L14.4207 20.6537C14.3023 20.7418 14.1973 20.8455 14.1114 20.9649L10.0149 19.8035C9.96766 19.0627 9.35095 18.4721 8.59199 18.4721C8.57289 18.4721 8.55476 18.4768 8.53614 18.4778L7.62491 16.218ZM8.59199 20.3667C8.3285 20.3667 8.11465 20.154 8.11465 19.893C8.11465 19.6321 8.3285 19.4194 8.59199 19.4194C8.85548 19.4194 9.06932 19.6321 9.06932 19.893C9.06932 20.154 8.85548 20.3667 8.59199 20.3667ZM15.2746 28.4186C15.0112 28.4186 14.7973 28.206 14.7973 27.945C14.7973 27.684 15.0112 27.4713 15.2746 27.4713C15.5381 27.4713 15.752 27.684 15.752 27.945C15.752 28.206 15.5381 28.4186 15.2746 28.4186ZM15.2746 22.2613C15.0112 22.2613 14.7973 22.0486 14.7973 21.7876C14.7973 21.5266 15.0112 21.314 15.2746 21.314C15.5381 21.314 15.752 21.5266 15.752 21.7876C15.752 22.0486 15.5381 22.2613 15.2746 22.2613ZM15.2909 20.2416L14.6842 18.3025L15.8164 18.6772L15.2909 20.2416ZM17.688 16.101C18.2522 16.0906 18.7353 15.7553 18.9587 15.2755L26.7803 15.9812C26.7927 16.0286 26.807 16.075 26.8237 16.1205L23.1611 19.1489C22.9473 19.023 22.701 18.9458 22.4346 18.9458C21.9774 18.9458 21.5735 19.1636 21.3115 19.4961L17.0241 18.078L17.688 16.101ZM22.4346 28.4186C22.1711 28.4186 21.9573 28.206 21.9573 27.945C21.9573 27.684 22.1711 27.4713 22.4346 27.4713C22.6981 27.4713 22.912 27.684 22.912 27.945C22.912 28.206 22.6981 28.4186 22.4346 28.4186ZM22.4346 20.8403C22.1711 20.8403 21.9573 20.6277 21.9573 20.3667C21.9573 20.1057 22.1711 19.893 22.4346 19.893C22.6981 19.893 22.912 20.1057 22.912 20.3667C22.912 20.6277 22.6981 20.8403 22.4346 20.8403ZM28.1626 16.1039C27.8991 16.1039 27.6853 15.8912 27.6853 15.6302C27.6853 15.3693 27.8991 15.1566 28.1626 15.1566C28.4261 15.1566 28.64 15.3693 28.64 15.6302C28.64 15.8912 28.4261 16.1039 28.1626 16.1039Z" fill="#00BCC8"/>
</svg>
