<svg width="510" height="490" viewBox="0 0 510 490" fill="none" xmlns="http://www.w3.org/2000/svg">
<path d="M94.863 200.796L250.627 87.6268L406.391 200.796L346.894 383.907H154.359L94.863 200.796Z" stroke="#E3E3E3" stroke-width="2"/>
<path d="M122.972 209.929L250.627 117.182L378.282 209.929L329.522 359.997H171.732L122.972 209.929Z" stroke="#D6D6D6" stroke-width="2"/>
<path d="M157.639 221.193L250.627 153.633L343.615 221.193L308.097 330.507H193.157L157.639 221.193Z" stroke="#C7C7C7" stroke-width="2"/>
<path d="M190.432 231.848L250.627 188.114L310.822 231.848L287.829 302.611H213.424L190.432 231.848Z" stroke="#BCBCBC" stroke-width="2"/>
<path d="M232.727 8.60285C232.727 8.15724 232.57 7.81648 232.255 7.58057C231.941 7.33942 231.374 7.08778 230.557 6.82566C229.739 6.5583 229.091 6.29617 228.614 6.03929C227.314 5.33681 226.664 4.39055 226.664 3.20051C226.664 2.5819 226.837 2.03145 227.183 1.54914C227.534 1.06159 228.035 0.681518 228.685 0.408911C229.34 0.136303 230.074 0 230.887 0C231.705 0 232.433 0.14941 233.073 0.448229C233.713 0.741806 234.208 1.15858 234.559 1.69855C234.916 2.23852 235.094 2.85189 235.094 3.53865H232.735C232.735 3.0144 232.57 2.60812 232.239 2.31978C231.909 2.0262 231.445 1.87942 230.848 1.87942C230.271 1.87942 229.823 2.00261 229.503 2.24901C229.183 2.49016 229.023 2.80995 229.023 3.20837C229.023 3.58059 229.209 3.89251 229.581 4.14415C229.959 4.39579 230.512 4.6317 231.241 4.85188C232.583 5.25555 233.56 5.7562 234.174 6.35384C234.787 6.95148 235.094 7.69591 235.094 8.58712C235.094 9.57794 234.719 10.3564 233.969 10.9226C233.22 11.4836 232.211 11.764 230.942 11.764C230.061 11.764 229.259 11.6041 228.536 11.2844C227.812 10.9593 227.259 10.5163 226.876 9.9554C226.499 9.39446 226.31 8.74439 226.31 8.00521H228.677C228.677 9.26864 229.432 9.90035 230.942 9.90035C231.503 9.90035 231.941 9.78764 232.255 9.56222C232.57 9.33155 232.727 9.01176 232.727 8.60285Z" fill="#999999"/>
<path d="M245.317 2.06814H241.809V11.6068H239.45V2.06814H235.99V0.157273H245.317V2.06814Z" fill="#999999"/>
<path d="M250.743 5.31584L253.125 0.157273H255.705L251.946 7.45475V11.6068H249.547V7.45475L245.788 0.157273H248.376L250.743 5.31584Z" fill="#999999"/>
<path d="M259.11 9.71163H264.119V11.6068H256.75V0.157273H259.11V9.71163Z" fill="#999999"/>
<path d="M272.368 6.6448H267.838V9.71163H273.154V11.6068H265.479V0.157273H273.138V2.06814H267.838V4.79683H272.368V6.6448Z" fill="#999999"/>
<path d="M455.18 204.827C455.09 206.059 454.634 207.029 453.811 207.736C452.993 208.444 451.913 208.798 450.571 208.798C449.104 208.798 447.948 208.305 447.104 207.32C446.265 206.329 445.845 204.971 445.845 203.246V202.546C445.845 201.445 446.039 200.476 446.427 199.637C446.815 198.798 447.368 198.156 448.086 197.71C448.81 197.259 449.649 197.034 450.603 197.034C451.924 197.034 452.988 197.388 453.796 198.096C454.603 198.803 455.069 199.797 455.195 201.076H452.836C452.778 200.337 452.571 199.802 452.215 199.472C451.864 199.136 451.326 198.968 450.603 198.968C449.816 198.968 449.227 199.251 448.834 199.818C448.446 200.379 448.246 201.251 448.236 202.436V203.301C448.236 204.538 448.422 205.443 448.794 206.014C449.172 206.586 449.764 206.871 450.571 206.871C451.3 206.871 451.843 206.706 452.199 206.376C452.561 206.04 452.768 205.524 452.82 204.827H455.18Z" fill="#999999"/>
<path d="M466.134 203.175C466.134 204.303 465.934 205.291 465.536 206.14C465.138 206.989 464.566 207.645 463.822 208.106C463.082 208.567 462.233 208.798 461.274 208.798C460.325 208.798 459.478 208.57 458.734 208.114C457.989 207.658 457.413 207.008 457.004 206.164C456.595 205.314 456.388 204.339 456.383 203.238V202.672C456.383 201.545 456.584 200.554 456.988 199.7C457.397 198.84 457.971 198.182 458.71 197.726C459.455 197.265 460.304 197.034 461.258 197.034C462.212 197.034 463.059 197.265 463.798 197.726C464.543 198.182 465.117 198.84 465.52 199.7C465.929 200.554 466.134 201.542 466.134 202.664V203.175ZM463.743 202.656C463.743 201.456 463.528 200.544 463.098 199.92C462.668 199.296 462.055 198.984 461.258 198.984C460.467 198.984 459.856 199.293 459.426 199.912C458.996 200.525 458.778 201.427 458.773 202.617V203.175C458.773 204.345 458.988 205.251 459.418 205.896C459.848 206.541 460.467 206.864 461.274 206.864C462.065 206.864 462.674 206.554 463.098 205.936C463.523 205.312 463.738 204.405 463.743 203.215V202.656Z" fill="#999999"/>
<path d="M470.207 206.746H475.216V208.641H467.848V197.191H470.207V206.746Z" fill="#999999"/>
<path d="M485.478 203.175C485.478 204.303 485.279 205.291 484.881 206.14C484.482 206.989 483.911 207.645 483.166 208.106C482.427 208.567 481.578 208.798 480.618 208.798C479.67 208.798 478.823 208.57 478.078 208.114C477.334 207.658 476.757 207.008 476.348 206.164C475.94 205.314 475.733 204.339 475.727 203.238V202.672C475.727 201.545 475.929 200.554 476.333 199.7C476.742 198.84 477.316 198.182 478.055 197.726C478.799 197.265 479.649 197.034 480.603 197.034C481.557 197.034 482.404 197.265 483.143 197.726C483.887 198.182 484.461 198.84 484.865 199.7C485.274 200.554 485.478 201.542 485.478 202.664V203.175ZM483.088 202.656C483.088 201.456 482.873 200.544 482.443 199.92C482.013 199.296 481.4 198.984 480.603 198.984C479.811 198.984 479.2 199.293 478.771 199.912C478.341 200.525 478.123 201.427 478.118 202.617V203.175C478.118 204.345 478.333 205.251 478.763 205.896C479.193 206.541 479.811 206.864 480.618 206.864C481.41 206.864 482.018 206.554 482.443 205.936C482.867 205.312 483.082 204.405 483.088 203.215V202.656Z" fill="#999999"/>
<path d="M491.431 204.449H489.552V208.641H487.192V197.191H491.447C492.799 197.191 493.843 197.493 494.576 198.096C495.31 198.698 495.677 199.55 495.677 200.651C495.677 201.432 495.507 202.085 495.166 202.609C494.831 203.128 494.32 203.542 493.633 203.852L496.11 208.531V208.641H493.578L491.431 204.449ZM489.552 202.539H491.455C492.047 202.539 492.506 202.389 492.831 202.09C493.156 201.786 493.318 201.369 493.318 200.84C493.318 200.3 493.164 199.875 492.854 199.566C492.55 199.257 492.081 199.102 491.447 199.102H489.552V202.539Z" fill="#999999"/>
<rect x="433.376" y="225.3" width="22.6589" height="22.6589" fill="#F7BB87"/>
<rect x="459.976" y="225.3" width="22.6589" height="22.6589" fill="#A3B5BF"/>
<rect x="486.575" y="225.3" width="22.6589" height="22.6589" fill="#647697"/>
<path d="M233.88 44.2762C233.785 45.2756 233.416 46.0563 232.773 46.6182C232.13 47.1758 231.274 47.4546 230.206 47.4546C229.46 47.4546 228.801 47.2787 228.231 46.927C227.665 46.571 227.227 46.067 226.918 45.415C226.609 44.7631 226.449 44.006 226.436 43.1439V42.2689C226.436 41.3853 226.592 40.6068 226.905 39.9334C227.218 39.2599 227.667 38.7409 228.25 38.3763C228.838 38.0118 229.515 37.8295 230.283 37.8295C231.317 37.8295 232.149 38.1104 232.78 38.6723C233.41 39.2342 233.777 40.0277 233.88 41.0529H232.258C232.181 40.3794 231.984 39.8948 231.666 39.5988C231.353 39.2985 230.892 39.1484 230.283 39.1484C229.575 39.1484 229.031 39.4079 228.649 39.9269C228.271 40.4416 228.078 41.1987 228.07 42.1981V43.0281C228.07 44.0403 228.25 44.8124 228.61 45.3443C228.975 45.8761 229.507 46.1421 230.206 46.1421C230.845 46.1421 231.325 45.9984 231.647 45.711C231.969 45.4236 232.173 44.9454 232.258 44.2762H233.88Z" fill="#D6D6D6"/>
<path d="M240.584 45.1448H236.955L236.196 47.3259H234.504L238.042 37.9581H239.503L243.048 47.3259H241.349L240.584 45.1448ZM237.412 43.8323H240.127L238.769 39.9462L237.412 43.8323Z" fill="#D6D6D6"/>
<path d="M249.012 44.9132C249.012 44.5014 248.866 44.184 248.575 43.961C248.287 43.7379 247.766 43.5128 247.011 43.2854C246.256 43.0581 245.656 42.805 245.21 42.5262C244.356 41.9901 243.929 41.2909 243.929 40.4288C243.929 39.6739 244.236 39.0519 244.85 38.5629C245.467 38.074 246.267 37.8295 247.249 37.8295C247.901 37.8295 248.483 37.9496 248.993 38.1898C249.503 38.43 249.904 38.7731 250.196 39.2192C250.488 39.661 250.634 40.1521 250.634 40.6926H249.012C249.012 40.2036 248.858 39.8218 248.549 39.5473C248.244 39.2685 247.807 39.1291 247.236 39.1291C246.705 39.1291 246.291 39.2428 245.995 39.4701C245.703 39.6974 245.557 40.0149 245.557 40.4223C245.557 40.7655 245.716 41.0529 246.033 41.2845C246.351 41.5118 246.874 41.7348 247.603 41.9536C248.332 42.1681 248.918 42.4147 249.36 42.6935C249.801 42.968 250.125 43.2854 250.331 43.6457C250.537 44.0017 250.64 44.4199 250.64 44.9003C250.64 45.681 250.34 46.3029 249.739 46.7662C249.143 47.2251 248.332 47.4546 247.307 47.4546C246.63 47.4546 246.005 47.3302 245.435 47.0814C244.869 46.8284 244.427 46.4809 244.11 46.0391C243.796 45.5973 243.64 45.0826 243.64 44.495H245.268C245.268 45.0269 245.444 45.4386 245.795 45.7303C246.147 46.022 246.651 46.1678 247.307 46.1678C247.873 46.1678 248.298 46.0541 248.581 45.8268C248.869 45.5952 249.012 45.2907 249.012 44.9132Z" fill="#D6D6D6"/>
<path d="M258.92 37.9581V44.2183C258.92 45.2134 258.601 46.0027 257.962 46.586C257.327 47.1651 256.48 47.4546 255.42 47.4546C254.348 47.4546 253.497 47.1694 252.866 46.5989C252.236 46.0241 251.92 45.2285 251.92 44.2119V37.9581H253.542V44.2248C253.542 44.851 253.7 45.3293 254.018 45.6595C254.335 45.9898 254.803 46.1549 255.42 46.1549C256.673 46.1549 257.299 45.4944 257.299 44.1733V37.9581H258.92Z" fill="#D6D6D6"/>
<path d="M265.766 45.1448H262.137L261.378 47.3259H259.686L263.225 37.9581H264.685L268.23 47.3259H266.532L265.766 45.1448ZM262.594 43.8323H265.309L263.952 39.9462L262.594 43.8323Z" fill="#D6D6D6"/>
<path d="M270.926 46.0263H275.179V47.3259H269.298V37.9581H270.926V46.0263Z" fill="#D6D6D6"/>
<path d="M15.8146 237.435H12.0443V241.405H10.4165V232.037H16.3679V233.349H12.0443V236.135H15.8146V237.435Z" fill="#D6D6D6"/>
<path d="M19.3789 241.405H17.7576V232.037H19.3789V241.405Z" fill="#D6D6D6"/>
<path d="M27.9553 233.349H25.0343V241.405H23.4194V233.349H20.5242V232.037H27.9553V233.349Z" fill="#D6D6D6"/>
<path d="M36.0621 233.349H33.1411V241.405H31.5262V233.349H28.6309V232.037H36.0621V233.349Z" fill="#D6D6D6"/>
<path d="M42.7726 237.222H38.9251V240.105H43.4224V241.405H37.2974V232.037H43.3774V233.349H38.9251V235.936H42.7726V237.222Z" fill="#D6D6D6"/>
<path d="M44.7478 241.405V232.037H47.5144C48.3422 232.037 49.0757 232.221 49.7148 232.59C50.3582 232.959 50.8558 233.482 51.2075 234.16C51.5592 234.838 51.7351 235.614 51.7351 236.489V236.959C51.7351 237.847 51.557 238.627 51.201 239.301C50.8493 239.974 50.3453 240.493 49.6891 240.858C49.0371 241.222 48.2886 241.405 47.4436 241.405H44.7478ZM46.3756 233.349V240.105H47.4372C48.2908 240.105 48.9449 239.839 49.3995 239.307C49.8585 238.771 50.0923 238.003 50.1008 237.004V236.483C50.1008 235.466 49.8799 234.69 49.4381 234.153C48.9964 233.617 48.3551 233.349 47.5144 233.349H46.3756Z" fill="#D6D6D6"/>
<path d="M124.648 461.003C124.554 462.002 124.185 462.783 123.542 463.345C122.898 463.902 122.042 464.181 120.974 464.181C120.228 464.181 119.57 464.005 118.999 463.654C118.433 463.298 117.995 462.794 117.687 462.142C117.378 461.49 117.217 460.733 117.204 459.871V458.996C117.204 458.112 117.361 457.333 117.674 456.66C117.987 455.987 118.435 455.468 119.018 455.103C119.606 454.738 120.284 454.556 121.052 454.556C122.085 454.556 122.917 454.837 123.548 455.399C124.178 455.961 124.545 456.754 124.648 457.78H123.027C122.95 457.106 122.752 456.621 122.435 456.325C122.122 456.025 121.661 455.875 121.052 455.875C120.344 455.875 119.799 456.135 119.417 456.654C119.04 457.168 118.847 457.925 118.838 458.925V459.755C118.838 460.767 119.018 461.539 119.379 462.071C119.743 462.603 120.275 462.869 120.974 462.869C121.613 462.869 122.094 462.725 122.416 462.438C122.737 462.15 122.941 461.672 123.027 461.003H124.648Z" fill="#D6D6D6"/>
<path d="M133.546 464.053H131.925V459.89H127.736V464.053H126.109V454.685H127.736V458.584H131.925V454.685H133.546V464.053Z" fill="#D6D6D6"/>
<path d="M140.952 459.871H137.104V462.753H141.601V464.053H135.476V454.685H141.556V455.997H137.104V458.584H140.952V459.871Z" fill="#D6D6D6"/>
<path d="M150.075 461.003C149.981 462.002 149.612 462.783 148.968 463.345C148.325 463.902 147.469 464.181 146.401 464.181C145.655 464.181 144.996 464.005 144.426 463.654C143.86 463.298 143.422 462.794 143.113 462.142C142.805 461.49 142.644 460.733 142.631 459.871V458.996C142.631 458.112 142.787 457.333 143.101 456.66C143.414 455.987 143.862 455.468 144.445 455.103C145.033 454.738 145.711 454.556 146.478 454.556C147.512 454.556 148.344 454.837 148.975 455.399C149.605 455.961 149.972 456.754 150.075 457.78H148.454C148.376 457.106 148.179 456.621 147.862 456.325C147.549 456.025 147.087 455.875 146.478 455.875C145.771 455.875 145.226 456.135 144.844 456.654C144.467 457.168 144.274 457.925 144.265 458.925V459.755C144.265 460.767 144.445 461.539 144.806 462.071C145.17 462.603 145.702 462.869 146.401 462.869C147.04 462.869 147.521 462.725 147.842 462.438C148.164 462.15 148.368 461.672 148.454 461.003H150.075Z" fill="#D6D6D6"/>
<path d="M154.225 460.006L153.163 461.132V464.053H151.535V454.685H153.163V459.079L154.064 457.966L156.805 454.685H158.774L155.293 458.835L158.973 464.053H157.043L154.225 460.006Z" fill="#D6D6D6"/>
<path d="M165.323 459.871H161.476V462.753H165.973V464.053H159.848V454.685H165.928V455.997H161.476V458.584H165.323V459.871Z" fill="#D6D6D6"/>
<path d="M170.741 460.443H168.926V464.053H167.299V454.685H170.593C171.674 454.685 172.508 454.927 173.095 455.412C173.683 455.897 173.977 456.598 173.977 457.516C173.977 458.142 173.825 458.667 173.52 459.092C173.22 459.512 172.799 459.836 172.259 460.064L174.363 463.969V464.053H172.619L170.741 460.443ZM168.926 459.137H170.599C171.148 459.137 171.577 459 171.886 458.725C172.195 458.447 172.349 458.067 172.349 457.587C172.349 457.085 172.205 456.696 171.918 456.422C171.635 456.147 171.21 456.006 170.644 455.997H168.926V459.137Z" fill="#D6D6D6"/>
<path d="M180.996 459.871H177.149V462.753H181.646V464.053H175.521V454.685H181.601V455.997H177.149V458.584H180.996V459.871Z" fill="#D6D6D6"/>
<path d="M182.972 464.053V454.685H185.738C186.566 454.685 187.299 454.869 187.938 455.238C188.582 455.607 189.079 456.13 189.431 456.808C189.783 457.486 189.959 458.262 189.959 459.137V459.607C189.959 460.495 189.781 461.275 189.425 461.949C189.073 462.622 188.569 463.141 187.913 463.506C187.261 463.87 186.512 464.053 185.667 464.053H182.972ZM184.599 455.997V462.753H185.661C186.514 462.753 187.169 462.487 187.623 461.955C188.082 461.419 188.316 460.651 188.325 459.652V459.131C188.325 458.114 188.104 457.338 187.662 456.802C187.22 456.265 186.579 455.997 185.738 455.997H184.599Z" fill="#D6D6D6"/>
<path d="M313.498 460.608C313.404 461.607 313.035 462.388 312.392 462.949C311.748 463.507 310.893 463.786 309.825 463.786C309.078 463.786 308.42 463.61 307.85 463.258C307.283 462.902 306.846 462.398 306.537 461.746C306.228 461.094 306.067 460.337 306.054 459.475V458.6C306.054 457.717 306.211 456.938 306.524 456.265C306.837 455.591 307.285 455.072 307.869 454.708C308.456 454.343 309.134 454.161 309.902 454.161C310.936 454.161 311.768 454.442 312.398 455.004C313.029 455.566 313.396 456.359 313.498 457.384H311.877C311.8 456.711 311.603 456.226 311.285 455.93C310.972 455.63 310.511 455.48 309.902 455.48C309.194 455.48 308.649 455.739 308.268 456.258C307.89 456.773 307.697 457.53 307.689 458.529V459.359C307.689 460.372 307.869 461.144 308.229 461.676C308.594 462.207 309.126 462.473 309.825 462.473C310.464 462.473 310.944 462.33 311.266 462.042C311.588 461.755 311.791 461.277 311.877 460.608H313.498Z" fill="#D6D6D6"/>
<path d="M320.203 461.476H316.574L315.815 463.657H314.123L317.661 454.289H319.122L322.667 463.657H320.968L320.203 461.476ZM317.031 460.164H319.746L318.388 456.278L317.031 460.164Z" fill="#D6D6D6"/>
<path d="M325.363 462.358H329.615V463.657H323.735V454.289H325.363V462.358Z" fill="#D6D6D6"/>
<path d="M332.839 461.618L335.219 454.289H337.008L333.637 463.657H332.06L328.702 454.289H330.484L332.839 461.618Z" fill="#D6D6D6"/>
<path d="M339.787 463.657H338.166V454.289H339.787V463.657Z" fill="#D6D6D6"/>
<path d="M349.22 463.657H347.592L343.416 457.011V463.657H341.788V454.289H343.416L347.605 460.961V454.289H349.22V463.657Z" fill="#D6D6D6"/>
<path d="M357.114 459.61L356.052 460.736V463.657H354.425V454.289H356.052V458.684L356.953 457.571L359.694 454.289H361.663L358.182 458.439L361.862 463.657H359.932L357.114 459.61Z" fill="#D6D6D6"/>
<path d="M364.365 462.358H368.618V463.657H362.737V454.289H364.365V462.358Z" fill="#D6D6D6"/>
<path d="M375.341 459.475H371.494V462.358H375.991V463.657H369.866V454.289H375.946V455.602H371.494V458.188H375.341V459.475Z" fill="#D6D6D6"/>
<path d="M379.034 463.657H377.413V454.289H379.034V463.657Z" fill="#D6D6D6"/>
<path d="M388.466 463.657H386.839L382.663 457.011V463.657H381.035V454.289H382.663L386.851 460.961V454.289H388.466V463.657Z" fill="#D6D6D6"/>
<path d="M5.37231 264.606C5.37231 264.194 5.22648 263.877 4.93481 263.654C4.64743 263.431 4.12628 263.206 3.37137 262.978C2.61646 262.751 2.01596 262.498 1.56987 262.219C0.716308 261.683 0.289526 260.984 0.289526 260.122C0.289526 259.367 0.596209 258.745 1.20957 258.256C1.82723 257.767 2.62718 257.522 3.60942 257.522C4.26139 257.522 4.84259 257.642 5.35301 257.883C5.86343 258.123 6.26448 258.466 6.55615 258.912C6.84782 259.354 6.99366 259.845 6.99366 260.385H5.37231C5.37231 259.896 5.2179 259.515 4.90907 259.24C4.60453 258.961 4.16703 258.822 3.59655 258.822C3.06468 258.822 2.65077 258.936 2.35481 259.163C2.06314 259.39 1.9173 259.708 1.9173 260.115C1.9173 260.458 2.07601 260.746 2.39341 260.977C2.71082 261.205 3.23411 261.428 3.96329 261.646C4.69246 261.861 5.27795 262.108 5.71974 262.386C6.16154 262.661 6.48538 262.978 6.69126 263.339C6.89715 263.695 7.00009 264.113 7.00009 264.593C7.00009 265.374 6.69984 265.996 6.09934 266.459C5.50314 266.918 4.69246 267.147 3.66733 267.147C2.98962 267.147 2.36553 267.023 1.79506 266.774C1.22888 266.521 0.787081 266.174 0.469675 265.732C0.156558 265.29 0 264.775 0 264.188H1.62778C1.62778 264.72 1.80364 265.132 2.15536 265.423C2.50708 265.715 3.01107 265.861 3.66733 265.861C4.23351 265.861 4.65815 265.747 4.94124 265.52C5.22862 265.288 5.37231 264.984 5.37231 264.606Z" fill="#D6D6D6"/>
<path d="M15.1969 258.964H12.2759V267.019H10.661V258.964H7.76573V257.651H15.1969V258.964Z" fill="#D6D6D6"/>
<path d="M19.8743 263.409H18.06V267.019H16.4322V257.651H19.7264C20.8073 257.651 21.6415 257.893 22.2292 258.378C22.8168 258.863 23.1106 259.564 23.1106 260.482C23.1106 261.108 22.9583 261.634 22.6538 262.058C22.3535 262.479 21.9332 262.802 21.3927 263.03L23.4966 266.935V267.019H21.753L19.8743 263.409ZM18.06 262.103H19.7328C20.2818 262.103 20.7107 261.966 21.0196 261.692C21.3284 261.413 21.4828 261.033 21.4828 260.553C21.4828 260.051 21.3391 259.663 21.0517 259.388C20.7687 259.114 20.344 258.972 19.7778 258.964H18.06V262.103Z" fill="#D6D6D6"/>
<path d="M29.8984 264.838H26.2696L25.5104 267.019H23.8183L27.357 257.651H28.8175L32.3626 267.019H30.664L29.8984 264.838ZM26.7265 263.525H29.4416L28.084 259.639L26.7265 263.525Z" fill="#D6D6D6"/>
<path d="M35.1484 267.019H33.5271V257.651H35.1484V267.019Z" fill="#D6D6D6"/>
<path d="M44.3296 265.803C43.9908 266.245 43.5211 266.579 42.9206 266.806C42.3201 267.034 41.6381 267.147 40.8746 267.147C40.0897 267.147 39.3948 266.969 38.79 266.613C38.1852 266.257 37.7177 265.749 37.3874 265.089C37.0615 264.424 36.892 263.65 36.8792 262.766V262.033C36.8792 260.617 37.218 259.513 37.8957 258.719C38.5734 257.921 39.5192 257.522 40.7331 257.522C41.7754 257.522 42.6032 257.78 43.2166 258.294C43.8299 258.809 44.1988 259.551 44.3232 260.521H42.7276C42.5474 259.392 41.8933 258.828 40.7652 258.828C40.0361 258.828 39.4806 259.092 39.0989 259.62C38.7214 260.143 38.5262 260.913 38.5134 261.93V262.65C38.5134 263.662 38.7257 264.45 39.1503 265.011C39.5793 265.569 40.1733 265.848 40.9325 265.848C41.7646 265.848 42.3566 265.659 42.7083 265.282V263.448H40.7781V262.213H44.3296V265.803Z" fill="#D6D6D6"/>
<path d="M53.5558 267.019H51.9345V262.856H47.746V267.019H46.1182V257.651H47.746V261.55H51.9345V257.651H53.5558V267.019Z" fill="#D6D6D6"/>
<path d="M62.0615 258.964H59.1405V267.019H57.5256V258.964H54.6303V257.651H62.0615V258.964Z" fill="#D6D6D6"/>
<path d="M138.041 487.255C138.041 486.843 137.895 486.525 137.603 486.302C137.316 486.079 136.795 485.854 136.04 485.627C135.285 485.399 134.685 485.146 134.239 484.868C133.385 484.331 132.958 483.632 132.958 482.77C132.958 482.015 133.265 481.393 133.878 480.904C134.496 480.415 135.296 480.171 136.278 480.171C136.93 480.171 137.511 480.291 138.022 480.531C138.532 480.771 138.933 481.114 139.225 481.561C139.516 482.002 139.662 482.493 139.662 483.034H138.041C138.041 482.545 137.887 482.163 137.578 481.889C137.273 481.61 136.836 481.47 136.265 481.47C135.733 481.47 135.319 481.584 135.023 481.811C134.732 482.039 134.586 482.356 134.586 482.764C134.586 483.107 134.745 483.394 135.062 483.626C135.379 483.853 135.903 484.076 136.632 484.295C137.361 484.509 137.947 484.756 138.388 485.035C138.83 485.309 139.154 485.627 139.36 485.987C139.566 486.343 139.669 486.761 139.669 487.242C139.669 488.022 139.368 488.644 138.768 489.107C138.172 489.566 137.361 489.796 136.336 489.796C135.658 489.796 135.034 489.672 134.464 489.423C133.898 489.17 133.456 488.822 133.138 488.38C132.825 487.939 132.669 487.424 132.669 486.836H134.296C134.296 487.368 134.472 487.78 134.824 488.072C135.176 488.363 135.68 488.509 136.336 488.509C136.902 488.509 137.327 488.395 137.61 488.168C137.897 487.937 138.041 487.632 138.041 487.255Z" fill="#D6D6D6"/>
<path d="M147.866 481.612H144.945V489.667H143.33V481.612H140.434V480.299H147.866V481.612Z" fill="#D6D6D6"/>
<path d="M152.543 486.058H150.729V489.667H149.101V480.299H152.395C153.476 480.299 154.31 480.542 154.898 481.026C155.485 481.511 155.779 482.212 155.779 483.13C155.779 483.757 155.627 484.282 155.322 484.707C155.022 485.127 154.602 485.451 154.061 485.678L156.165 489.584V489.667H154.422L152.543 486.058ZM150.729 484.752H152.401C152.95 484.752 153.379 484.614 153.688 484.34C153.997 484.061 154.151 483.682 154.151 483.201C154.151 482.699 154.008 482.311 153.72 482.037C153.437 481.762 153.013 481.621 152.446 481.612H150.729V484.752Z" fill="#D6D6D6"/>
<path d="M159.041 489.667H157.42V480.299H159.041V489.667Z" fill="#D6D6D6"/>
<path d="M162.67 486.186V489.667H161.042V480.299H164.626C165.672 480.299 166.502 480.572 167.116 481.117C167.733 481.661 168.042 482.382 168.042 483.278C168.042 484.196 167.74 484.91 167.135 485.421C166.535 485.931 165.692 486.186 164.607 486.186H162.67ZM162.67 484.88H164.626C165.205 484.88 165.647 484.745 165.951 484.475C166.256 484.201 166.408 483.806 166.408 483.291C166.408 482.785 166.254 482.382 165.945 482.082C165.636 481.777 165.211 481.621 164.671 481.612H162.67V484.88Z" fill="#D6D6D6"/>
<path d="M174.946 485.485H171.098V488.368H175.596V489.667H169.471V480.299H175.551V481.612H171.098V484.198H174.946V485.485Z" fill="#D6D6D6"/>
<path d="M332.755 488.368H337.761V489.667H330.787V488.612L335.631 481.612H330.819V480.299H337.607V481.329L332.755 488.368Z" fill="#D6D6D6"/>
<path d="M344.497 487.486H340.869L340.109 489.667H338.417L341.956 480.299H343.416L346.961 489.667H345.263L344.497 487.486ZM341.325 486.174H344.04L342.683 482.288L341.325 486.174Z" fill="#D6D6D6"/>
<path d="M351.472 486.058H349.657V489.667H348.029V480.299H351.324C352.405 480.299 353.239 480.542 353.826 481.026C354.414 481.511 354.708 482.212 354.708 483.13C354.708 483.757 354.556 484.282 354.251 484.707C353.951 485.127 353.53 485.451 352.99 485.678L355.094 489.584V489.667H353.35L351.472 486.058ZM349.657 484.752H351.33C351.879 484.752 352.308 484.614 352.617 484.34C352.926 484.061 353.08 483.682 353.08 483.201C353.08 482.699 352.936 482.311 352.649 482.037C352.366 481.762 351.941 481.621 351.375 481.612H349.657V484.752Z" fill="#D6D6D6"/>
<path d="M361.496 487.486H357.867L357.108 489.667H355.416L358.954 480.299H360.415L363.96 489.667H362.261L361.496 487.486ZM358.324 486.174H361.039L359.681 482.288L358.324 486.174Z" fill="#D6D6D6"/>
<path d="M232.291 69.8906C232.196 70.89 231.827 71.6707 231.184 72.2326C230.541 72.7902 229.685 73.069 228.617 73.069C227.87 73.069 227.212 72.8931 226.642 72.5414C226.075 72.1854 225.638 71.6814 225.329 71.0294C225.02 70.3775 224.859 69.6204 224.847 68.7583V67.8832C224.847 66.9997 225.003 66.2212 225.316 65.5477C225.629 64.8743 226.078 64.3553 226.661 63.9907C227.249 63.6261 227.926 63.4438 228.694 63.4438C229.728 63.4438 230.56 63.7248 231.19 64.2867C231.821 64.8486 232.188 65.6421 232.291 66.6672H230.669C230.592 65.9938 230.395 65.5091 230.077 65.2132C229.764 64.9129 229.303 64.7628 228.694 64.7628C227.986 64.7628 227.442 65.0223 227.06 65.5413C226.682 66.056 226.489 66.8131 226.481 67.8125V68.6424C226.481 69.6547 226.661 70.4268 227.021 70.9587C227.386 71.4905 227.918 71.7565 228.617 71.7565C229.256 71.7565 229.736 71.6128 230.058 71.3254C230.38 71.038 230.583 70.5597 230.669 69.8906H232.291Z" fill="#D6D6D6"/>
<path d="M235.379 71.6406H239.632V72.9403H233.751V63.5725H235.379V71.6406Z" fill="#D6D6D6"/>
<path d="M246.252 70.7592H242.623L241.864 72.9403H240.172L243.711 63.5725H245.171L248.716 72.9403H247.018L246.252 70.7592ZM243.08 69.4467H245.795L244.438 65.5606L243.08 69.4467Z" fill="#D6D6D6"/>
<path d="M254.681 70.5276C254.681 70.1158 254.535 69.7984 254.243 69.5754C253.956 69.3523 253.435 69.1271 252.68 68.8998C251.925 68.6725 251.324 68.4194 250.878 68.1406C250.025 67.6044 249.598 66.9053 249.598 66.0431C249.598 65.2882 249.904 64.6663 250.518 64.1773C251.136 63.6883 251.935 63.4438 252.918 63.4438C253.57 63.4438 254.151 63.5639 254.661 63.8041C255.172 64.0443 255.573 64.3875 255.864 64.8336C256.156 65.2754 256.302 65.7665 256.302 66.3069H254.681C254.681 65.818 254.526 65.4362 254.217 65.1617C253.913 64.8829 253.475 64.7435 252.905 64.7435C252.373 64.7435 251.959 64.8572 251.663 65.0845C251.371 65.3118 251.226 65.6292 251.226 66.0367C251.226 66.3799 251.384 66.6672 251.702 66.8989C252.019 67.1262 252.542 67.3492 253.272 67.568C254.001 67.7824 254.586 68.0291 255.028 68.3079C255.47 68.5824 255.794 68.8998 256 69.2601C256.205 69.6161 256.308 70.0343 256.308 70.5147C256.308 71.2954 256.008 71.9173 255.408 72.3805C254.811 72.8395 254.001 73.069 252.976 73.069C252.298 73.069 251.674 72.9446 251.103 72.6958C250.537 72.4427 250.095 72.0953 249.778 71.6535C249.465 71.2117 249.308 70.697 249.308 70.1094H250.936C250.936 70.6412 251.112 71.053 251.464 71.3447C251.815 71.6364 252.319 71.7822 252.976 71.7822C253.542 71.7822 253.966 71.6685 254.25 71.4412C254.537 71.2096 254.681 70.905 254.681 70.5276Z" fill="#D6D6D6"/>
<path d="M262.633 70.5276C262.633 70.1158 262.487 69.7984 262.195 69.5754C261.908 69.3523 261.387 69.1271 260.632 68.8998C259.877 68.6725 259.277 68.4194 258.83 68.1406C257.977 67.6044 257.55 66.9053 257.55 66.0431C257.55 65.2882 257.857 64.6663 258.47 64.1773C259.088 63.6883 259.888 63.4438 260.87 63.4438C261.522 63.4438 262.103 63.5639 262.614 63.8041C263.124 64.0443 263.525 64.3875 263.817 64.8336C264.108 65.2754 264.254 65.7665 264.254 66.3069H262.633C262.633 65.818 262.478 65.4362 262.17 65.1617C261.865 64.8829 261.428 64.7435 260.857 64.7435C260.325 64.7435 259.911 64.8572 259.615 65.0845C259.324 65.3118 259.178 65.6292 259.178 66.0367C259.178 66.3799 259.337 66.6672 259.654 66.8989C259.971 67.1262 260.495 67.3492 261.224 67.568C261.953 67.7824 262.539 68.0291 262.98 68.3079C263.422 68.5824 263.746 68.8998 263.952 69.2601C264.158 69.6161 264.261 70.0343 264.261 70.5147C264.261 71.2954 263.96 71.9173 263.36 72.3805C262.764 72.8395 261.953 73.069 260.928 73.069C260.25 73.069 259.626 72.9446 259.056 72.6958C258.489 72.4427 258.048 72.0953 257.73 71.6535C257.417 71.2117 257.261 70.697 257.261 70.1094H258.888C258.888 70.6412 259.064 71.053 259.416 71.3447C259.768 71.6364 260.272 71.7822 260.928 71.7822C261.494 71.7822 261.919 71.6685 262.202 71.4412C262.489 71.2096 262.633 70.905 262.633 70.5276Z" fill="#D6D6D6"/>
<path d="M267.407 72.9403H265.786V63.5725H267.407V72.9403Z" fill="#D6D6D6"/>
<path d="M276.556 69.8906C276.462 70.89 276.093 71.6707 275.449 72.2326C274.806 72.7902 273.95 73.069 272.882 73.069C272.136 73.069 271.477 72.8931 270.907 72.5414C270.341 72.1854 269.903 71.6814 269.594 71.0294C269.286 70.3775 269.125 69.6204 269.112 68.7583V67.8832C269.112 66.9997 269.268 66.2212 269.582 65.5477C269.895 64.8743 270.343 64.3553 270.926 63.9907C271.514 63.6261 272.192 63.4438 272.959 63.4438C273.993 63.4438 274.825 63.7248 275.456 64.2867C276.086 64.8486 276.453 65.6421 276.556 66.6672H274.935C274.857 65.9938 274.66 65.5091 274.343 65.2132C274.029 64.9129 273.568 64.7628 272.959 64.7628C272.252 64.7628 271.707 65.0223 271.325 65.5413C270.948 66.056 270.755 66.8131 270.746 67.8125V68.6424C270.746 69.6547 270.926 70.4268 271.287 70.9587C271.651 71.4905 272.183 71.7565 272.882 71.7565C273.521 71.7565 274.002 71.6128 274.323 71.3254C274.645 71.038 274.849 70.5597 274.935 69.8906H276.556Z" fill="#D6D6D6"/>
<path d="M12.5226 205.863C12.5226 205.417 12.3653 205.076 12.0508 204.84C11.7362 204.599 11.17 204.348 10.3522 204.085C9.53439 203.818 8.88695 203.556 8.40989 203.299C7.10976 202.597 6.4597 201.65 6.4597 200.46C6.4597 199.842 6.6327 199.291 6.9787 198.809C7.32995 198.321 7.8306 197.941 8.48066 197.669C9.13597 197.396 9.86991 197.26 10.6825 197.26C11.5003 197.26 12.229 197.409 12.8686 197.708C13.5082 198.002 14.0036 198.418 14.3548 198.958C14.7113 199.498 14.8895 200.112 14.8895 200.798H12.5304C12.5304 200.274 12.3653 199.868 12.035 199.58C11.7048 199.286 11.2408 199.139 10.6432 199.139C10.0665 199.139 9.61827 199.262 9.29848 199.509C8.97869 199.75 8.8188 200.07 8.8188 200.468C8.8188 200.84 9.00491 201.152 9.37712 201.404C9.75458 201.656 10.3077 201.891 11.0364 202.112C12.3784 202.515 13.3561 203.016 13.9695 203.614C14.5829 204.211 14.8895 204.956 14.8895 205.847C14.8895 206.838 14.5147 207.616 13.765 208.182C13.0154 208.743 12.0062 209.024 10.7375 209.024C9.8568 209.024 9.05471 208.864 8.33125 208.544C7.60779 208.219 7.05472 207.776 6.67202 207.215C6.29456 206.654 6.10583 206.004 6.10583 205.265H8.4728C8.4728 206.528 9.22771 207.16 10.7375 207.16C11.2985 207.16 11.7362 207.047 12.0508 206.822C12.3653 206.591 12.5226 206.272 12.5226 205.863Z" fill="#999999"/>
<path d="M25.8122 208.867H23.4531V203.96H18.8528V208.867H16.4937V197.417H18.8528V202.057H23.4531V197.417H25.8122V208.867Z" fill="#999999"/>
<path d="M34.4858 206.507H30.3495L29.5631 208.867H27.0546L31.3167 197.417H33.5028L37.7885 208.867H35.28L34.4858 206.507ZM30.9865 204.597H33.8488L32.4098 200.311L30.9865 204.597Z" fill="#999999"/>
<path d="M41.2171 204.832V208.867H38.858V197.417H43.3246C44.1843 197.417 44.9392 197.574 45.5893 197.889C46.2446 198.203 46.7479 198.652 47.0991 199.234C47.4504 199.81 47.626 200.468 47.626 201.207C47.626 202.329 47.2407 203.215 46.47 203.865C45.7046 204.51 44.643 204.832 43.2852 204.832H41.2171ZM41.2171 202.922H43.3246C43.9484 202.922 44.4228 202.775 44.7479 202.481C45.0782 202.188 45.2433 201.768 45.2433 201.223C45.2433 200.662 45.0782 200.209 44.7479 199.863C44.4176 199.517 43.9615 199.338 43.3796 199.328H41.2171V202.922Z" fill="#999999"/>
<path d="M56.1423 203.905H51.6129V206.971H56.9287V208.867H49.2538V197.417H56.913V199.328H51.6129V202.057H56.1423V203.905Z" fill="#999999"/>
<path d="M321.57 427.348V415.899H325.58C326.969 415.899 328.023 416.166 328.741 416.701C329.459 417.23 329.819 418.009 329.819 419.036C329.819 419.597 329.674 420.093 329.386 420.523C329.098 420.947 328.697 421.259 328.183 421.458C328.77 421.605 329.231 421.901 329.567 422.347C329.908 422.793 330.078 423.338 330.078 423.983C330.078 425.084 329.727 425.917 329.024 426.483C328.322 427.049 327.321 427.338 326.02 427.348H321.57ZM323.929 422.363V425.453H325.95C326.505 425.453 326.938 425.322 327.247 425.06C327.562 424.793 327.719 424.426 327.719 423.959C327.719 422.911 327.176 422.378 326.091 422.363H323.929ZM323.929 420.696H325.674C326.864 420.675 327.459 420.2 327.459 419.272C327.459 418.753 327.307 418.381 327.003 418.156C326.705 417.925 326.23 417.81 325.58 417.81H323.929V420.696Z" fill="#999999"/>
<path d="M336.094 423.157H334.214V427.348H331.855V415.899H336.109C337.462 415.899 338.505 416.2 339.239 416.803C339.973 417.406 340.34 418.258 340.34 419.359C340.34 420.14 340.17 420.793 339.829 421.317C339.493 421.836 338.982 422.25 338.296 422.559L340.773 427.238V427.348H338.241L336.094 423.157ZM334.214 421.246H336.117C336.71 421.246 337.168 421.097 337.493 420.798C337.819 420.494 337.981 420.077 337.981 419.548C337.981 419.008 337.826 418.583 337.517 418.274C337.213 417.964 336.744 417.81 336.109 417.81H334.214V421.246Z" fill="#999999"/>
<path d="M348.605 424.989H344.469L343.682 427.348H341.174L345.436 415.899H347.622L351.908 427.348H349.399L348.605 424.989ZM345.106 423.078H347.968L346.529 418.793L345.106 423.078Z" fill="#999999"/>
<path d="M362.288 427.348H359.929L355.336 419.815V427.348H352.977V415.899H355.336L359.936 423.448V415.899H362.288V427.348Z" fill="#999999"/>
<path d="M364.348 427.348V415.899H367.871C368.877 415.899 369.776 416.127 370.568 416.583C371.365 417.034 371.986 417.679 372.432 418.517C372.877 419.351 373.1 420.3 373.1 421.364V421.891C373.1 422.955 372.88 423.901 372.44 424.73C372.005 425.558 371.389 426.2 370.592 426.656C369.795 427.112 368.896 427.343 367.894 427.348H364.348ZM366.707 417.81V425.453H367.847C368.77 425.453 369.475 425.152 369.963 424.549C370.45 423.946 370.699 423.084 370.71 421.962V421.356C370.71 420.192 370.468 419.312 369.986 418.714C369.504 418.111 368.799 417.81 367.871 417.81H366.707Z" fill="#999999"/>
<path d="M122.626 423.314V427.348H120.267V415.899H124.733C125.593 415.899 126.348 416.056 126.998 416.371C127.654 416.685 128.157 417.133 128.508 417.715C128.859 418.292 129.035 418.95 129.035 419.689C129.035 420.811 128.65 421.697 127.879 422.347C127.114 422.992 126.052 423.314 124.694 423.314H122.626ZM122.626 421.403H124.733C125.357 421.403 125.832 421.257 126.157 420.963C126.487 420.669 126.652 420.25 126.652 419.705C126.652 419.144 126.487 418.69 126.157 418.344C125.827 417.998 125.37 417.82 124.789 417.81H122.626V421.403Z" fill="#999999"/>
<path d="M135.727 424.989H131.591L130.804 427.348H128.296L132.558 415.899H134.744L139.03 427.348H136.521L135.727 424.989ZM132.228 423.078H135.09L133.651 418.793L132.228 423.078Z" fill="#999999"/>
<path d="M147.774 417.81H144.267V427.348H141.908V417.81H138.448V415.899H147.774V417.81Z" fill="#999999"/>
<path d="M157.871 417.81H154.364V427.348H152.005V417.81H148.545V415.899H157.871V417.81Z" fill="#999999"/>
<path d="M166.112 422.386H161.583V425.453H166.898V427.348H159.224V415.899H166.883V417.81H161.583V420.538H166.112V422.386Z" fill="#999999"/>
<path d="M172.521 423.157H170.642V427.348H168.282V415.899H172.537C173.889 415.899 174.932 416.2 175.666 416.803C176.4 417.406 176.767 418.258 176.767 419.359C176.767 420.14 176.597 420.793 176.256 421.317C175.921 421.836 175.41 422.25 174.723 422.559L177.2 427.238V427.348H174.668L172.521 423.157ZM170.642 421.246H172.545C173.137 421.246 173.596 421.097 173.921 420.798C174.246 420.494 174.408 420.077 174.408 419.548C174.408 419.008 174.254 418.583 173.944 418.274C173.64 417.964 173.171 417.81 172.537 417.81H170.642V421.246Z" fill="#999999"/>
<path d="M187.879 427.348H185.52L180.927 419.815V427.348H178.568V415.899H180.927L185.527 423.448V415.899H187.879V427.348Z" fill="#999999"/>
<line x1="250.12" y1="251.899" x2="250.12" y2="88.3609" stroke="#C7C7C7" stroke-width="2"/>
<line x1="346.859" y1="383.517" x2="250.313" y2="251.504" stroke="#C7C7C7" stroke-width="2"/>
<line x1="249.828" y1="250.947" x2="405.484" y2="200.704" stroke="#C7C7C7" stroke-width="2"/>
<line x1="249.96" y1="251.5" x2="154.398" y2="383.513" stroke="#C7C7C7" stroke-width="2"/>
<line x1="249.826" y1="250.88" x2="95.1543" y2="200.636" stroke="#C7C7C7" stroke-width="2"/>
<path d="M250.134 148.456L342.248 220.374L318.604 345.983L193.98 331.205L190.039 232.196L250.134 148.456Z" fill="#00BCC8" fill-opacity="0.5"/>
</svg>
