<svg width="720" height="686" viewBox="0 0 720 686" fill="none" xmlns="http://www.w3.org/2000/svg">
<path d="M153.517 281.303L366.729 126.395L579.941 281.303L498.501 531.949H234.956L153.517 281.303Z" stroke="#E3E3E3" stroke-width="2"/>
<path d="M191.915 293.779L366.729 166.769L541.543 293.779L474.77 499.285H258.688L191.915 293.779Z" stroke="#D6D6D6" stroke-width="2"/>
<path d="M239.272 309.166L366.729 216.563L494.186 309.166L445.502 459.001H287.956L239.272 309.166Z" stroke="#C7C7C7" stroke-width="2"/>
<path d="M284.069 323.722L366.729 263.666L449.388 323.722L417.815 420.894H315.642L284.069 323.722Z" stroke="#BCBCBC" stroke-width="2"/>
<path d="M342.277 18.8965C342.277 18.2878 342.062 17.8223 341.632 17.5C341.202 17.1706 340.429 16.8268 339.312 16.4688C338.194 16.1035 337.31 15.7454 336.658 15.3945C334.882 14.4349 333.994 13.1423 333.994 11.5166C333.994 10.6715 334.231 9.9196 334.703 9.26074C335.183 8.59473 335.867 8.07552 336.755 7.70312C337.65 7.33073 338.653 7.14453 339.763 7.14453C340.88 7.14453 341.875 7.34863 342.749 7.75684C343.623 8.15788 344.3 8.72721 344.779 9.46484C345.266 10.2025 345.51 11.0404 345.51 11.9785H342.287C342.287 11.2624 342.062 10.7074 341.611 10.3135C341.159 9.91243 340.526 9.71191 339.709 9.71191C338.921 9.71191 338.309 9.88021 337.872 10.2168C337.435 10.5462 337.217 10.9831 337.217 11.5273C337.217 12.0358 337.471 12.4619 337.98 12.8057C338.495 13.1494 339.251 13.4717 340.246 13.7725C342.08 14.3239 343.415 15.0078 344.253 15.8242C345.091 16.6406 345.51 17.6576 345.51 18.875C345.51 20.2285 344.998 21.292 343.974 22.0654C342.95 22.8317 341.571 23.2148 339.838 23.2148C338.635 23.2148 337.539 22.9964 336.551 22.5596C335.563 22.1156 334.807 21.5104 334.284 20.7441C333.769 19.9779 333.511 19.0898 333.511 18.0801H336.744C336.744 19.806 337.776 20.6689 339.838 20.6689C340.604 20.6689 341.202 20.515 341.632 20.207C342.062 19.8919 342.277 19.4551 342.277 18.8965ZM359.475 9.96973H354.684V23H351.461V9.96973H346.735V7.35938H359.475V9.96973ZM366.887 14.4062L370.142 7.35938H373.665L368.53 17.3281V23H365.254V17.3281L360.119 7.35938H363.653L366.887 14.4062ZM378.317 20.4111H385.159V23H375.094V7.35938H378.317V20.4111ZM396.428 16.2217H390.24V20.4111H397.502V23H387.018V7.35938H397.481V9.96973H390.24V13.6973H396.428V16.2217Z" fill="#999999"/>
<path d="M646.159 286.949C646.037 288.632 645.414 289.957 644.29 290.924C643.172 291.89 641.697 292.374 639.864 292.374C637.859 292.374 636.28 291.701 635.127 290.354C633.981 289.001 633.408 287.146 633.408 284.79V283.834C633.408 282.33 633.673 281.005 634.203 279.859C634.733 278.713 635.488 277.836 636.469 277.227C637.458 276.611 638.603 276.303 639.907 276.303C641.711 276.303 643.165 276.787 644.268 277.754C645.371 278.72 646.008 280.078 646.18 281.825H642.958C642.879 280.815 642.596 280.085 642.109 279.634C641.629 279.175 640.895 278.946 639.907 278.946C638.833 278.946 638.027 279.333 637.49 280.106C636.96 280.872 636.688 282.065 636.673 283.683V284.865C636.673 286.555 636.928 287.79 637.436 288.571C637.952 289.352 638.761 289.742 639.864 289.742C640.859 289.742 641.6 289.516 642.087 289.065C642.582 288.607 642.864 287.901 642.936 286.949H646.159ZM661.123 284.693C661.123 286.233 660.85 287.583 660.306 288.743C659.762 289.903 658.981 290.798 657.964 291.428C656.955 292.059 655.794 292.374 654.484 292.374C653.188 292.374 652.031 292.062 651.014 291.439C649.997 290.816 649.21 289.928 648.651 288.775C648.092 287.615 647.809 286.283 647.802 284.779V284.006C647.802 282.466 648.078 281.112 648.629 279.945C649.188 278.771 649.972 277.872 650.982 277.249C651.999 276.619 653.159 276.303 654.462 276.303C655.766 276.303 656.922 276.619 657.932 277.249C658.949 277.872 659.733 278.771 660.285 279.945C660.843 281.112 661.123 282.462 661.123 283.995V284.693ZM657.857 283.984C657.857 282.344 657.563 281.098 656.976 280.246C656.389 279.394 655.551 278.968 654.462 278.968C653.381 278.968 652.547 279.39 651.96 280.235C651.372 281.073 651.075 282.305 651.068 283.93V284.693C651.068 286.29 651.362 287.529 651.949 288.41C652.536 289.291 653.381 289.731 654.484 289.731C655.565 289.731 656.396 289.309 656.976 288.464C657.556 287.611 657.85 286.372 657.857 284.747V283.984ZM666.687 289.57H673.53V292.159H663.464V276.518H666.687V289.57ZM687.548 284.693C687.548 286.233 687.276 287.583 686.732 288.743C686.188 289.903 685.407 290.798 684.39 291.428C683.38 292.059 682.22 292.374 680.91 292.374C679.613 292.374 678.457 292.062 677.44 291.439C676.423 290.816 675.635 289.928 675.077 288.775C674.518 287.615 674.235 286.283 674.228 284.779V284.006C674.228 282.466 674.504 281.112 675.055 279.945C675.614 278.771 676.398 277.872 677.408 277.249C678.425 276.619 679.585 276.303 680.888 276.303C682.192 276.303 683.348 276.619 684.358 277.249C685.375 277.872 686.159 278.771 686.71 279.945C687.269 281.112 687.548 282.462 687.548 283.995V284.693ZM684.283 283.984C684.283 282.344 683.989 281.098 683.402 280.246C682.815 279.394 681.977 278.968 680.888 278.968C679.807 278.968 678.973 279.39 678.385 280.235C677.798 281.073 677.501 282.305 677.494 283.93V284.693C677.494 286.29 677.787 287.529 678.375 288.41C678.962 289.291 679.807 289.731 680.91 289.731C681.991 289.731 682.822 289.309 683.402 288.464C683.982 287.611 684.276 286.372 684.283 284.747V283.984ZM695.68 286.433H693.113V292.159H689.89V276.518H695.702C697.549 276.518 698.974 276.93 699.977 277.754C700.98 278.577 701.481 279.741 701.481 281.245C701.481 282.312 701.248 283.204 700.783 283.92C700.324 284.629 699.626 285.194 698.688 285.617L702.072 292.009V292.159H698.613L695.68 286.433ZM693.113 283.823H695.712C696.522 283.823 697.148 283.619 697.592 283.211C698.036 282.795 698.258 282.226 698.258 281.503C698.258 280.765 698.047 280.185 697.625 279.762C697.209 279.34 696.568 279.129 695.702 279.129H693.113V283.823Z" fill="#999999"/>
<rect x="616.374" y="314.916" width="30.9533" height="30.9533" fill="#F7BB87"/>
<rect x="652.71" y="314.916" width="30.9533" height="30.9533" fill="#A3B5BF"/>
<rect x="689.047" y="314.916" width="30.9533" height="30.9533" fill="#647697"/>
<path d="M343.851 67.6284C343.722 68.9937 343.218 70.0601 342.339 70.8276C341.461 71.5894 340.292 71.9702 338.833 71.9702C337.813 71.9702 336.914 71.73 336.134 71.2495C335.361 70.7632 334.763 70.0747 334.341 69.1841C333.92 68.2935 333.7 67.2593 333.682 66.0815V64.8862C333.682 63.6792 333.896 62.6157 334.324 61.6958C334.752 60.7759 335.364 60.0669 336.161 59.5688C336.964 59.0708 337.889 58.8218 338.938 58.8218C340.35 58.8218 341.487 59.2056 342.348 59.9731C343.21 60.7407 343.711 61.8247 343.851 63.2251H341.636C341.531 62.3052 341.261 61.6431 340.828 61.2388C340.4 60.8286 339.77 60.6235 338.938 60.6235C337.971 60.6235 337.227 60.978 336.706 61.687C336.19 62.3901 335.926 63.4243 335.915 64.7896V65.9233C335.915 67.3062 336.161 68.3608 336.653 69.0874C337.151 69.814 337.878 70.1772 338.833 70.1772C339.706 70.1772 340.362 69.981 340.801 69.5884C341.241 69.1958 341.519 68.5425 341.636 67.6284H343.851ZM353.009 68.8149H348.052L347.015 71.7944H344.704L349.538 58.9976H351.533L356.376 71.7944H354.055L353.009 68.8149ZM348.676 67.022H352.385L350.531 61.7134L348.676 67.022ZM364.523 68.4985C364.523 67.936 364.324 67.5024 363.925 67.1978C363.533 66.8931 362.821 66.5854 361.79 66.2749C360.758 65.9644 359.938 65.6187 359.329 65.2378C358.163 64.5054 357.58 63.5503 357.58 62.3726C357.58 61.3413 357.999 60.4917 358.837 59.8237C359.68 59.1558 360.773 58.8218 362.115 58.8218C363.006 58.8218 363.799 58.9858 364.497 59.314C365.194 59.6421 365.742 60.1108 366.14 60.7202C366.539 61.3237 366.738 61.9946 366.738 62.7329H364.523C364.523 62.0649 364.312 61.5435 363.89 61.1685C363.474 60.7876 362.877 60.5972 362.097 60.5972C361.371 60.5972 360.805 60.7524 360.401 61.063C360.003 61.3735 359.803 61.8071 359.803 62.3638C359.803 62.8325 360.02 63.2251 360.454 63.5415C360.887 63.8521 361.602 64.1567 362.598 64.4556C363.594 64.7485 364.394 65.0854 364.998 65.4663C365.601 65.8413 366.044 66.2749 366.325 66.7671C366.606 67.2534 366.747 67.8247 366.747 68.481C366.747 69.5474 366.337 70.397 365.516 71.0298C364.702 71.6567 363.594 71.9702 362.194 71.9702C361.268 71.9702 360.416 71.8003 359.636 71.4604C358.863 71.1147 358.259 70.6401 357.826 70.0366C357.398 69.4331 357.184 68.73 357.184 67.9272H359.408C359.408 68.6538 359.648 69.2163 360.129 69.6147C360.609 70.0132 361.297 70.2124 362.194 70.2124C362.967 70.2124 363.547 70.0571 363.934 69.7466C364.327 69.4302 364.523 69.0142 364.523 68.4985ZM378.058 58.9976V67.5493C378.058 68.9087 377.622 69.9868 376.749 70.7837C375.881 71.5747 374.724 71.9702 373.277 71.9702C371.812 71.9702 370.649 71.5806 369.788 70.8013C368.926 70.0161 368.496 68.9292 368.496 67.5405V58.9976H370.711V67.5581C370.711 68.4136 370.927 69.0669 371.361 69.5181C371.795 69.9692 372.433 70.1948 373.277 70.1948C374.988 70.1948 375.843 69.2925 375.843 67.4878V58.9976H378.058ZM387.41 68.8149H382.453L381.416 71.7944H379.104L383.938 58.9976H385.933L390.776 71.7944H388.456L387.41 68.8149ZM383.077 67.022H386.786L384.931 61.7134L383.077 67.022ZM394.459 70.019H400.268V71.7944H392.235V58.9976H394.459V70.019Z" fill="#D6D6D6"/>
<path d="M45.9625 331.493H40.8121V336.916H38.5885V324.119H46.7184V325.912H40.8121V329.718H45.9625V331.493ZM50.8317 336.916H48.6168V324.119H50.8317V336.916ZM62.5475 325.912H58.5573V336.916H56.3512V325.912H52.3961V324.119H62.5475V325.912ZM73.6217 325.912H69.6315V336.916H67.4254V325.912H63.4703V324.119H73.6217V325.912ZM82.7887 331.203H77.5328V335.141H83.6764V336.916H75.3092V324.119H83.6149V325.912H77.5328V329.445H82.7887V331.203ZM85.4869 336.916V324.119H89.2662C90.3971 324.119 91.3991 324.371 92.2721 324.875C93.151 325.379 93.8307 326.094 94.3112 327.02C94.7916 327.945 95.0319 329.006 95.0319 330.201V330.843C95.0319 332.056 94.7887 333.122 94.3024 334.042C93.8219 334.962 93.1334 335.671 92.2369 336.169C91.3463 336.667 90.3239 336.916 89.1696 336.916H85.4869ZM87.7106 325.912V335.141H89.1608C90.3268 335.141 91.2203 334.777 91.8414 334.051C92.4684 333.318 92.7877 332.27 92.7994 330.904V330.192C92.7994 328.804 92.4977 327.743 91.8942 327.011C91.2907 326.278 90.4147 325.912 89.2662 325.912H87.7106Z" fill="#D6D6D6"/>
<path d="M194.635 636.899C194.506 638.265 194.002 639.331 193.123 640.099C192.244 640.86 191.075 641.241 189.616 641.241C188.597 641.241 187.697 641.001 186.918 640.521C186.145 640.034 185.547 639.346 185.125 638.455C184.703 637.564 184.483 636.53 184.466 635.353V634.157C184.466 632.95 184.68 631.887 185.107 630.967C185.535 630.047 186.148 629.338 186.944 628.84C187.747 628.342 188.673 628.093 189.722 628.093C191.134 628.093 192.271 628.477 193.132 629.244C193.993 630.012 194.494 631.096 194.635 632.496H192.42C192.315 631.576 192.045 630.914 191.611 630.51C191.184 630.1 190.554 629.895 189.722 629.895C188.755 629.895 188.011 630.249 187.489 630.958C186.974 631.661 186.71 632.695 186.698 634.061V635.194C186.698 636.577 186.944 637.632 187.437 638.358C187.935 639.085 188.661 639.448 189.616 639.448C190.489 639.448 191.146 639.252 191.585 638.859C192.024 638.467 192.303 637.813 192.42 636.899H194.635ZM206.79 641.065H204.575V635.379H198.854V641.065H196.63V628.269H198.854V633.595H204.575V628.269H206.79V641.065ZM216.906 635.353H211.65V639.29H217.794V641.065H209.427V628.269H217.732V630.062H211.65V633.595H216.906V635.353ZM229.369 636.899C229.24 638.265 228.736 639.331 227.857 640.099C226.979 640.86 225.81 641.241 224.351 641.241C223.331 641.241 222.432 641.001 221.652 640.521C220.879 640.034 220.281 639.346 219.859 638.455C219.438 637.564 219.218 636.53 219.2 635.353V634.157C219.2 632.95 219.414 631.887 219.842 630.967C220.27 630.047 220.882 629.338 221.679 628.84C222.481 628.342 223.407 628.093 224.456 628.093C225.868 628.093 227.005 628.477 227.866 629.244C228.728 630.012 229.229 631.096 229.369 632.496H227.154C227.049 631.576 226.779 630.914 226.346 630.51C225.918 630.1 225.288 629.895 224.456 629.895C223.489 629.895 222.745 630.249 222.224 630.958C221.708 631.661 221.444 632.695 221.433 634.061V635.194C221.433 636.577 221.679 637.632 222.171 638.358C222.669 639.085 223.396 639.448 224.351 639.448C225.224 639.448 225.88 639.252 226.319 638.859C226.759 638.467 227.037 637.813 227.154 636.899H229.369ZM235.038 635.537L233.588 637.075V641.065H231.364V628.269H233.588V634.271L234.818 632.751L238.563 628.269H241.252L236.497 633.938L241.524 641.065H238.888L235.038 635.537ZM250.199 635.353H244.943V639.29H251.087V641.065H242.72V628.269H251.025V630.062H244.943V633.595H250.199V635.353ZM257.6 636.135H255.121V641.065H252.898V628.269H257.398C258.874 628.269 260.014 628.6 260.816 629.262C261.619 629.924 262.021 630.882 262.021 632.136C262.021 632.991 261.813 633.709 261.397 634.289C260.986 634.863 260.412 635.306 259.674 635.616L262.548 640.951V641.065H260.166L257.6 636.135ZM255.121 634.351H257.406C258.156 634.351 258.742 634.163 259.164 633.788C259.586 633.407 259.797 632.889 259.797 632.232C259.797 631.547 259.601 631.017 259.208 630.642C258.821 630.267 258.241 630.073 257.468 630.062H255.121V634.351ZM271.609 635.353H266.354V639.29H272.497V641.065H264.13V628.269H272.436V630.062H266.354V633.595H271.609V635.353ZM274.308 641.065V628.269H278.087C279.218 628.269 280.22 628.521 281.093 629.024C281.972 629.528 282.651 630.243 283.132 631.169C283.612 632.095 283.853 633.155 283.853 634.351V634.992C283.853 636.205 283.609 637.271 283.123 638.191C282.643 639.111 281.954 639.82 281.058 640.318C280.167 640.816 279.145 641.065 277.99 641.065H274.308ZM276.531 630.062V639.29H277.981C279.148 639.29 280.041 638.927 280.662 638.2C281.289 637.468 281.608 636.419 281.62 635.054V634.342C281.62 632.953 281.318 631.893 280.715 631.16C280.111 630.428 279.235 630.062 278.087 630.062H276.531Z" fill="#D6D6D6"/>
<path d="M452.615 636.359C452.486 637.724 451.982 638.791 451.103 639.558C450.224 640.32 449.055 640.701 447.596 640.701C446.577 640.701 445.677 640.461 444.898 639.98C444.125 639.494 443.527 638.805 443.105 637.915C442.683 637.024 442.463 635.99 442.446 634.812V633.617C442.446 632.41 442.66 631.346 443.087 630.427C443.515 629.507 444.127 628.798 444.924 628.3C445.727 627.802 446.653 627.552 447.702 627.552C449.114 627.552 450.251 627.936 451.112 628.704C451.973 629.471 452.474 630.555 452.615 631.956H450.4C450.294 631.036 450.025 630.374 449.591 629.969C449.164 629.559 448.534 629.354 447.702 629.354C446.735 629.354 445.991 629.709 445.469 630.418C444.954 631.121 444.69 632.155 444.678 633.52V634.654C444.678 636.037 444.924 637.092 445.417 637.818C445.915 638.545 446.641 638.908 447.596 638.908C448.469 638.908 449.126 638.712 449.565 638.319C450.004 637.927 450.283 637.273 450.4 636.359H452.615ZM461.773 637.546H456.816L455.779 640.525H453.467L458.301 627.728H460.296L465.139 640.525H462.819L461.773 637.546ZM457.44 635.753H461.149L459.294 630.444L457.44 635.753ZM468.822 638.75H474.631V640.525H466.598V627.728H468.822V638.75ZM479.035 637.739L482.287 627.728H484.73L480.125 640.525H477.971L473.383 627.728H475.818L479.035 637.739ZM488.527 640.525H486.312V627.728H488.527V640.525ZM501.412 640.525H499.188L493.484 631.446V640.525H491.26V627.728H493.484L499.206 636.843V627.728H501.412V640.525ZM512.196 634.997L510.746 636.535V640.525H508.522V627.728H510.746V633.731L511.976 632.211L515.72 627.728H518.41L513.655 633.397L518.682 640.525H516.045L512.196 634.997ZM522.101 638.75H527.911V640.525H519.877V627.728H522.101V638.75ZM537.095 634.812H531.839V638.75H537.983V640.525H529.616V627.728H537.921V629.521H531.839V633.054H537.095V634.812ZM542.14 640.525H539.925V627.728H542.14V640.525ZM555.025 640.525H552.801L547.097 631.446V640.525H544.874V627.728H547.097L552.819 636.843V627.728H555.025V640.525Z" fill="#D6D6D6"/>
<path d="M31.6979 368.611C31.6979 368.048 31.4987 367.615 31.1002 367.31C30.7076 367.005 29.9957 366.698 28.9645 366.387C27.9332 366.076 27.1129 365.731 26.5035 365.35C25.3375 364.617 24.7545 363.662 24.7545 362.485C24.7545 361.453 25.1735 360.604 26.0114 359.936C26.8551 359.268 27.9479 358.934 29.2897 358.934C30.1803 358.934 30.9743 359.098 31.6715 359.426C32.3688 359.754 32.9166 360.223 33.3151 360.832C33.7135 361.436 33.9127 362.107 33.9127 362.845H31.6979C31.6979 362.177 31.4869 361.656 31.0651 361.281C30.6491 360.9 30.0514 360.709 29.2721 360.709C28.5455 360.709 27.9801 360.865 27.5758 361.175C27.1774 361.486 26.9782 361.919 26.9782 362.476C26.9782 362.945 27.195 363.337 27.6285 363.654C28.0621 363.964 28.777 364.269 29.7731 364.568C30.7692 364.861 31.569 365.198 32.1725 365.578C32.776 365.953 33.2184 366.387 33.4996 366.879C33.7809 367.365 33.9215 367.937 33.9215 368.593C33.9215 369.659 33.5114 370.509 32.691 371.142C31.8766 371.769 30.7692 372.082 29.3688 372.082C28.443 372.082 27.5905 371.912 26.8112 371.573C26.0377 371.227 25.4342 370.752 25.0006 370.149C24.5729 369.545 24.359 368.842 24.359 368.039H26.5826C26.5826 368.766 26.8229 369.328 27.3034 369.727C27.7838 370.125 28.4723 370.324 29.3688 370.324C30.1422 370.324 30.7223 370.169 31.109 369.859C31.5016 369.542 31.6979 369.126 31.6979 368.611ZM45.1188 360.903H41.1285V371.906H38.9225V360.903H34.9674V359.11H45.1188V360.903ZM51.5084 366.976H49.0299V371.906H46.8063V359.11H51.3063C52.7828 359.11 53.9225 359.441 54.7252 360.103C55.528 360.765 55.9293 361.723 55.9293 362.977C55.9293 363.832 55.7213 364.55 55.3053 365.13C54.8951 365.704 54.3209 366.147 53.5826 366.457L56.4567 371.792V371.906H54.0748L51.5084 366.976ZM49.0299 365.192H51.3151C52.0651 365.192 52.651 365.004 53.0729 364.629C53.4948 364.248 53.7057 363.73 53.7057 363.073C53.7057 362.388 53.5094 361.858 53.1168 361.483C52.7301 361.108 52.15 360.914 51.3766 360.903H49.0299V365.192ZM65.2018 368.927H60.2448L59.2076 371.906H56.8961L61.7301 359.11H63.7252L68.568 371.906H66.2477L65.2018 368.927ZM60.8688 367.134H64.5778L62.7233 361.825L60.8688 367.134ZM72.3737 371.906H70.1588V359.11H72.3737V371.906ZM84.9157 370.245C84.4528 370.849 83.8112 371.306 82.9909 371.616C82.1705 371.927 81.2389 372.082 80.1959 372.082C79.1237 372.082 78.1744 371.839 77.3483 371.353C76.5221 370.866 75.8834 370.172 75.4323 369.27C74.9869 368.362 74.7555 367.304 74.7379 366.097V365.095C74.7379 363.161 75.2008 361.653 76.1266 360.569C77.0524 359.479 78.3444 358.934 80.0026 358.934C81.4264 358.934 82.5573 359.285 83.3951 359.989C84.233 360.692 84.7369 361.705 84.9069 363.03H82.7272C82.4811 361.489 81.5875 360.718 80.0465 360.718C79.0504 360.718 78.2916 361.078 77.7701 361.799C77.2545 362.514 76.9879 363.566 76.9703 364.954V365.939C76.9703 367.322 77.2604 368.397 77.8405 369.164C78.4264 369.926 79.2379 370.307 80.275 370.307C81.4118 370.307 82.2203 370.049 82.7008 369.533V367.029H80.0641V365.341H84.9157V370.245ZM97.5192 371.906H95.3043V366.22H89.5826V371.906H87.359V359.11H89.5826V364.436H95.3043V359.11H97.5192V371.906ZM109.138 360.903H105.148V371.906H102.942V360.903H98.9869V359.11H109.138V360.903Z" fill="#D6D6D6"/>
<path d="M212.93 672.76C212.93 672.198 212.731 671.764 212.333 671.459C211.94 671.155 211.228 670.847 210.197 670.537C209.166 670.226 208.345 669.88 207.736 669.5C206.57 668.767 205.987 667.812 205.987 666.634C205.987 665.603 206.406 664.753 207.244 664.085C208.088 663.417 209.18 663.083 210.522 663.083C211.413 663.083 212.207 663.248 212.904 663.576C213.601 663.904 214.149 664.373 214.547 664.982C214.946 665.585 215.145 666.256 215.145 666.995H212.93C212.93 666.327 212.719 665.805 212.297 665.43C211.881 665.049 211.284 664.859 210.505 664.859C209.778 664.859 209.213 665.014 208.808 665.325C208.41 665.635 208.211 666.069 208.211 666.625C208.211 667.094 208.427 667.487 208.861 667.803C209.295 668.114 210.009 668.418 211.006 668.717C212.002 669.01 212.801 669.347 213.405 669.728C214.008 670.103 214.451 670.537 214.732 671.029C215.013 671.515 215.154 672.086 215.154 672.743C215.154 673.809 214.744 674.659 213.923 675.292C213.109 675.918 212.002 676.232 210.601 676.232C209.675 676.232 208.823 676.062 208.044 675.722C207.27 675.376 206.667 674.902 206.233 674.298C205.805 673.695 205.591 672.992 205.591 672.189H207.815C207.815 672.916 208.055 673.478 208.536 673.876C209.016 674.275 209.705 674.474 210.601 674.474C211.375 674.474 211.955 674.319 212.341 674.008C212.734 673.692 212.93 673.276 212.93 672.76ZM226.351 665.052H222.361V676.056H220.155V665.052H216.2V663.259H226.351V665.052ZM232.741 671.125H230.262V676.056H228.039V663.259H232.539C234.015 663.259 235.155 663.59 235.958 664.252C236.76 664.915 237.162 665.873 237.162 667.126C237.162 667.982 236.954 668.7 236.538 669.28C236.128 669.854 235.553 670.296 234.815 670.607L237.689 675.942V676.056H235.307L232.741 671.125ZM230.262 669.341H232.547C233.297 669.341 233.883 669.154 234.305 668.779C234.727 668.398 234.938 667.879 234.938 667.223C234.938 666.538 234.742 666.007 234.349 665.632C233.963 665.257 233.382 665.064 232.609 665.052H230.262V669.341ZM241.618 676.056H239.403V663.259H241.618V676.056ZM246.575 671.301V676.056H244.351V663.259H249.247C250.676 663.259 251.81 663.631 252.648 664.375C253.492 665.12 253.914 666.104 253.914 667.329C253.914 668.583 253.501 669.558 252.674 670.255C251.854 670.953 250.703 671.301 249.22 671.301H246.575ZM246.575 669.517H249.247C250.038 669.517 250.641 669.333 251.057 668.963C251.473 668.588 251.681 668.049 251.681 667.346C251.681 666.655 251.47 666.104 251.048 665.694C250.627 665.278 250.047 665.064 249.308 665.052H246.575V669.517ZM263.344 670.343H258.089V674.281H264.232V676.056H255.865V663.259H264.171V665.052H258.089V668.585H263.344V670.343Z" fill="#D6D6D6"/>
<path d="M478.921 674.281H485.759V676.056H476.232V674.615L482.85 665.052H476.276V663.259H485.548V664.666L478.921 674.281ZM494.961 673.077H490.004L488.967 676.056H486.655L491.489 663.259H493.485L498.327 676.056H496.007L494.961 673.077ZM490.628 671.284H494.337L492.483 665.975L490.628 671.284ZM504.488 671.125H502.01V676.056H499.786V663.259H504.286C505.763 663.259 506.902 663.59 507.705 664.252C508.508 664.915 508.909 665.873 508.909 667.126C508.909 667.982 508.701 668.7 508.285 669.28C507.875 669.854 507.301 670.296 506.563 670.607L509.437 675.942V676.056H507.055L504.488 671.125ZM502.01 669.341H504.295C505.045 669.341 505.631 669.154 506.053 668.779C506.475 668.398 506.686 667.879 506.686 667.223C506.686 666.538 506.489 666.007 506.097 665.632C505.71 665.257 505.13 665.064 504.357 665.052H502.01V669.341ZM518.182 673.077H513.225L512.188 676.056H509.876L514.71 663.259H516.705L521.548 676.056H519.228L518.182 673.077ZM513.849 671.284H517.558L515.703 665.975L513.849 671.284Z" fill="#D6D6D6"/>
<path d="M341.68 102.619C341.551 103.984 341.047 105.051 340.169 105.818C339.29 106.58 338.121 106.961 336.662 106.961C335.642 106.961 334.743 106.721 333.964 106.24C333.19 105.754 332.592 105.065 332.171 104.175C331.749 103.284 331.529 102.25 331.511 101.072V99.877C331.511 98.6699 331.725 97.6064 332.153 96.6865C332.581 95.7666 333.193 95.0576 333.99 94.5596C334.793 94.0615 335.718 93.8125 336.767 93.8125C338.179 93.8125 339.316 94.1963 340.177 94.9639C341.039 95.7314 341.54 96.8154 341.68 98.2158H339.465C339.36 97.2959 339.09 96.6338 338.657 96.2295C338.229 95.8193 337.599 95.6143 336.767 95.6143C335.8 95.6143 335.056 95.9688 334.535 96.6777C334.019 97.3809 333.756 98.415 333.744 99.7803V100.914C333.744 102.297 333.99 103.352 334.482 104.078C334.98 104.805 335.707 105.168 336.662 105.168C337.535 105.168 338.191 104.972 338.631 104.579C339.07 104.187 339.348 103.533 339.465 102.619H341.68ZM345.899 105.01H351.709V106.785H343.675V93.9883H345.899V105.01ZM360.753 103.806H355.796L354.758 106.785H352.447L357.281 93.9883H359.276L364.119 106.785H361.798L360.753 103.806ZM356.42 102.013H360.129L358.274 96.7041L356.42 102.013ZM372.266 103.489C372.266 102.927 372.067 102.493 371.669 102.188C371.276 101.884 370.564 101.576 369.533 101.266C368.502 100.955 367.681 100.609 367.072 100.229C365.906 99.4961 365.323 98.541 365.323 97.3633C365.323 96.332 365.742 95.4824 366.58 94.8145C367.423 94.1465 368.516 93.8125 369.858 93.8125C370.749 93.8125 371.543 93.9766 372.24 94.3047C372.937 94.6328 373.485 95.1016 373.883 95.7109C374.282 96.3145 374.481 96.9854 374.481 97.7236H372.266C372.266 97.0557 372.055 96.5342 371.633 96.1592C371.217 95.7783 370.62 95.5879 369.84 95.5879C369.114 95.5879 368.548 95.7432 368.144 96.0537C367.746 96.3643 367.547 96.7979 367.547 97.3545C367.547 97.8232 367.763 98.2158 368.197 98.5322C368.631 98.8428 369.345 99.1475 370.341 99.4463C371.338 99.7393 372.137 100.076 372.741 100.457C373.344 100.832 373.787 101.266 374.068 101.758C374.349 102.244 374.49 102.815 374.49 103.472C374.49 104.538 374.08 105.388 373.259 106.021C372.445 106.647 371.338 106.961 369.937 106.961C369.011 106.961 368.159 106.791 367.38 106.451C366.606 106.105 366.003 105.631 365.569 105.027C365.141 104.424 364.927 103.721 364.927 102.918H367.151C367.151 103.645 367.391 104.207 367.872 104.605C368.352 105.004 369.041 105.203 369.937 105.203C370.711 105.203 371.291 105.048 371.677 104.737C372.07 104.421 372.266 104.005 372.266 103.489ZM383.13 103.489C383.13 102.927 382.93 102.493 382.532 102.188C382.139 101.884 381.427 101.576 380.396 101.266C379.365 100.955 378.545 100.609 377.935 100.229C376.769 99.4961 376.186 98.541 376.186 97.3633C376.186 96.332 376.605 95.4824 377.443 94.8145C378.287 94.1465 379.38 93.8125 380.721 93.8125C381.612 93.8125 382.406 93.9766 383.103 94.3047C383.8 94.6328 384.348 95.1016 384.747 95.7109C385.145 96.3145 385.344 96.9854 385.344 97.7236H383.13C383.13 97.0557 382.919 96.5342 382.497 96.1592C382.081 95.7783 381.483 95.5879 380.704 95.5879C379.977 95.5879 379.412 95.7432 379.007 96.0537C378.609 96.3643 378.41 96.7979 378.41 97.3545C378.41 97.8232 378.627 98.2158 379.06 98.5322C379.494 98.8428 380.209 99.1475 381.205 99.4463C382.201 99.7393 383.001 100.076 383.604 100.457C384.208 100.832 384.65 101.266 384.931 101.758C385.213 102.244 385.353 102.815 385.353 103.472C385.353 104.538 384.943 105.388 384.123 106.021C383.308 106.647 382.201 106.961 380.8 106.961C379.875 106.961 379.022 106.791 378.243 106.451C377.469 106.105 376.866 105.631 376.432 105.027C376.005 104.424 375.791 103.721 375.791 102.918H378.014C378.014 103.645 378.255 104.207 378.735 104.605C379.215 105.004 379.904 105.203 380.8 105.203C381.574 105.203 382.154 105.048 382.541 104.737C382.933 104.421 383.13 104.005 383.13 103.489ZM389.651 106.785H387.436V93.9883H389.651V106.785ZM402.149 102.619C402.02 103.984 401.516 105.051 400.637 105.818C399.758 106.58 398.589 106.961 397.131 106.961C396.111 106.961 395.212 106.721 394.432 106.24C393.659 105.754 393.061 105.065 392.639 104.175C392.217 103.284 391.998 102.25 391.98 101.072V99.877C391.98 98.6699 392.194 97.6064 392.622 96.6865C393.049 95.7666 393.662 95.0576 394.459 94.5596C395.261 94.0615 396.187 93.8125 397.236 93.8125C398.648 93.8125 399.785 94.1963 400.646 94.9639C401.507 95.7314 402.008 96.8154 402.149 98.2158H399.934C399.829 97.2959 399.559 96.6338 399.126 96.2295C398.698 95.8193 398.068 95.6143 397.236 95.6143C396.269 95.6143 395.525 95.9688 395.004 96.6777C394.488 97.3809 394.224 98.415 394.213 99.7803V100.914C394.213 102.297 394.459 103.352 394.951 104.078C395.449 104.805 396.175 105.168 397.131 105.168C398.004 105.168 398.66 104.972 399.099 104.579C399.539 104.187 399.817 103.533 399.934 102.619H402.149Z" fill="#D6D6D6"/>
<path d="M41.4655 288.364C41.4655 287.755 41.2507 287.29 40.821 286.967C40.3913 286.638 39.6179 286.294 38.5007 285.936C37.3835 285.571 36.4991 285.213 35.8474 284.862C34.0713 283.902 33.1833 282.61 33.1833 280.984C33.1833 280.139 33.4196 279.387 33.8923 278.728C34.3721 278.062 35.056 277.543 35.944 277.17C36.8392 276.798 37.8418 276.612 38.9519 276.612C40.069 276.612 41.0645 276.816 41.9382 277.224C42.8119 277.625 43.4886 278.194 43.9685 278.932C44.4554 279.67 44.6989 280.508 44.6989 281.446H41.4763C41.4763 280.73 41.2507 280.175 40.7995 279.781C40.3483 279.38 39.7146 279.179 38.8982 279.179C38.1104 279.179 37.4981 279.347 37.0612 279.684C36.6244 280.014 36.406 280.45 36.406 280.995C36.406 281.503 36.6602 281.929 37.1687 282.273C37.6843 282.617 38.4398 282.939 39.4353 283.24C41.2686 283.791 42.6042 284.475 43.4421 285.292C44.28 286.108 44.6989 287.125 44.6989 288.342C44.6989 289.696 44.1869 290.759 43.1628 291.533C42.1387 292.299 40.7601 292.682 39.0271 292.682C37.8239 292.682 36.7282 292.464 35.7399 292.027C34.7517 291.583 33.9961 290.978 33.4733 290.211C32.9577 289.445 32.6999 288.557 32.6999 287.547H35.9333C35.9333 289.273 36.9646 290.136 39.0271 290.136C39.7933 290.136 40.3913 289.982 40.821 289.674C41.2507 289.359 41.4655 288.922 41.4655 288.364ZM59.6198 292.467H56.3972V285.764H50.113V292.467H46.8903V276.827H50.113V283.165H56.3972V276.827H59.6198V292.467ZM71.4685 289.245H65.8181L64.7439 292.467H61.3171L67.1394 276.827H70.1257L75.9802 292.467H72.5534L71.4685 289.245ZM66.6882 286.634H70.5983L68.6325 280.78L66.6882 286.634ZM80.6638 286.957V292.467H77.4411V276.827H83.5427C84.7172 276.827 85.7484 277.042 86.6364 277.471C87.5316 277.901 88.2191 278.513 88.6989 279.308C89.1788 280.096 89.4187 280.995 89.4187 282.004C89.4187 283.537 88.8923 284.747 87.8396 285.635C86.794 286.516 85.3438 286.957 83.489 286.957H80.6638ZM80.6638 284.346H83.5427C84.3949 284.346 85.043 284.146 85.487 283.745C85.9382 283.344 86.1638 282.771 86.1638 282.026C86.1638 281.26 85.9382 280.64 85.487 280.167C85.0358 279.695 84.4128 279.451 83.6179 279.437H80.6638V284.346ZM101.052 285.689H94.8649V289.878H102.127V292.467H91.6423V276.827H102.105V279.437H94.8649V283.165H101.052V285.689Z" fill="#999999"/>
<path d="M463.64 590.925V575.285H469.119C471.017 575.285 472.456 575.65 473.437 576.38C474.418 577.104 474.909 578.167 474.909 579.571C474.909 580.337 474.712 581.014 474.318 581.601C473.924 582.181 473.376 582.607 472.674 582.879C473.477 583.08 474.107 583.485 474.565 584.093C475.031 584.702 475.263 585.447 475.263 586.328C475.263 587.832 474.784 588.97 473.824 589.744C472.864 590.517 471.496 590.911 469.72 590.925H463.64ZM466.863 584.115V588.336H469.624C470.383 588.336 470.974 588.157 471.396 587.799C471.826 587.434 472.041 586.933 472.041 586.295C472.041 584.863 471.299 584.136 469.817 584.115H466.863ZM466.863 581.837H469.248C470.873 581.809 471.686 581.161 471.686 579.893C471.686 579.184 471.479 578.676 471.063 578.368C470.655 578.053 470.007 577.895 469.119 577.895H466.863V581.837ZM483.481 585.2H480.914V590.925H477.691V575.285H483.503C485.35 575.285 486.775 575.696 487.778 576.52C488.781 577.344 489.282 578.507 489.282 580.011C489.282 581.078 489.049 581.97 488.584 582.686C488.125 583.395 487.427 583.961 486.489 584.383L489.873 590.775V590.925H486.414L483.481 585.2ZM480.914 582.589H483.513C484.323 582.589 484.949 582.385 485.393 581.977C485.837 581.562 486.059 580.992 486.059 580.269C486.059 579.531 485.848 578.951 485.425 578.529C485.01 578.106 484.369 577.895 483.503 577.895H480.914V582.589ZM500.572 587.703H494.922L493.847 590.925H490.421L496.243 575.285H499.229L505.084 590.925H501.657L500.572 587.703ZM495.792 585.092H499.702L497.736 579.238L495.792 585.092ZM519.263 590.925H516.041L509.767 580.634V590.925H506.545V575.285H509.767L516.051 585.597V575.285H519.263V590.925ZM522.078 590.925V575.285H526.89C528.265 575.285 529.493 575.596 530.575 576.219C531.663 576.835 532.512 577.716 533.121 578.862C533.729 580 534.034 581.297 534.034 582.75V583.47C534.034 584.924 533.733 586.217 533.132 587.348C532.537 588.48 531.696 589.357 530.607 589.98C529.519 590.603 528.29 590.918 526.923 590.925H522.078ZM525.3 577.895V588.336H526.858C528.118 588.336 529.082 587.925 529.748 587.101C530.414 586.278 530.754 585.099 530.768 583.567V582.74C530.768 581.15 530.439 579.947 529.78 579.13C529.121 578.307 528.158 577.895 526.89 577.895H525.3Z" fill="#999999"/>
<path d="M191.873 585.415V590.925H188.65V575.285H194.752C195.926 575.285 196.957 575.5 197.845 575.929C198.741 576.359 199.428 576.971 199.908 577.766C200.388 578.554 200.628 579.453 200.628 580.462C200.628 581.995 200.101 583.205 199.048 584.093C198.003 584.974 196.553 585.415 194.698 585.415H191.873ZM191.873 582.804H194.752C195.604 582.804 196.252 582.604 196.696 582.203C197.147 581.802 197.373 581.229 197.373 580.484C197.373 579.718 197.147 579.098 196.696 578.625C196.245 578.153 195.622 577.909 194.827 577.895H191.873V582.804ZM209.769 587.703H204.119L203.045 590.925H199.618L205.44 575.285H208.426L214.281 590.925H210.854L209.769 587.703ZM204.989 585.092H208.899L206.933 579.238L204.989 585.092ZM226.226 577.895H221.435V590.925H218.213V577.895H213.486V575.285H226.226V577.895ZM240.019 577.895H235.228V590.925H232.006V577.895H227.279V575.285H240.019V577.895ZM251.277 584.147H245.089V588.336H252.351V590.925H241.867V575.285H252.33V577.895H245.089V581.623H251.277V584.147ZM260.032 585.2H257.464V590.925H254.242V575.285H260.053C261.901 575.285 263.326 575.696 264.329 576.52C265.331 577.344 265.833 578.507 265.833 580.011C265.833 581.078 265.6 581.97 265.134 582.686C264.676 583.395 263.978 583.961 263.04 584.383L266.423 590.775V590.925H262.964L260.032 585.2ZM257.464 582.589H260.064C260.873 582.589 261.5 582.385 261.944 581.977C262.388 581.562 262.61 580.992 262.61 580.269C262.61 579.531 262.399 578.951 261.976 578.529C261.561 578.106 260.92 577.895 260.053 577.895H257.464V582.589ZM281.011 590.925H277.789L271.515 580.634V590.925H268.293V575.285H271.515L277.799 585.597V575.285H281.011V590.925Z" fill="#999999"/>
<line x1="366.402" y1="351.252" x2="366.402" y2="127.85" stroke="#C7C7C7" stroke-width="2"/>
<line x1="498.483" y1="530.833" x2="366.595" y2="350.497" stroke="#C7C7C7" stroke-width="2"/>
<line x1="365.749" y1="350.301" x2="578.385" y2="281.665" stroke="#C7C7C7" stroke-width="2"/>
<line x1="365.521" y1="350.493" x2="234.979" y2="530.829" stroke="#C7C7C7" stroke-width="2"/>
<line x1="365.748" y1="349.511" x2="154.458" y2="280.876" stroke="#C7C7C7" stroke-width="2"/>
<path d="M366.056 209.944L491.888 308.187L459.589 479.776L289.346 459.589L283.962 324.336L366.056 209.944Z" fill="#00BCC8" fill-opacity="0.5"/>
</svg>
