<svg width="236" height="49" viewBox="0 0 236 49" fill="none" xmlns="http://www.w3.org/2000/svg">
<path d="M7.57643 14.0288C7.57643 7.88285 11.3631 7.34842 12.1466 7.34842C12.93 7.34842 16.7167 8.01645 16.7167 13.3608H23.5066C23.5066 13.3608 24.29 0 11.8854 0C-0.519208 0 0.655965 14.6968 0.655965 14.6968C0.655965 14.6968 0.00309073 23.6485 9.27391 26.9887C16.7167 29.7945 16.5861 31.665 16.5861 36.074C16.5861 40.4831 13.0606 41.552 12.016 41.552C10.9714 41.552 7.18471 40.7503 7.18471 36.3413H0.00309054C0.00309054 36.3413 -0.519209 48.9004 12.016 48.9004C19.067 48.9004 23.5066 43.2889 23.5066 35.9404C23.5066 29.5273 21.9397 26.3207 20.1116 24.4502C15.6721 19.9075 7.57643 20.0411 7.57643 14.0288Z" fill="#999999"/>
<path d="M28.3857 8.01756H36.0897V48.9013H42.749V8.01756H50.4529V1.20361H28.3857V8.01756Z" fill="#999999"/>
<path d="M142.9 4.00928H150.996V48.6328H153.738V4.00928H161.833V1.20361H142.9V4.00928Z" fill="#999999"/>
<path d="M233.388 1.60413V22.5804H220.984V1.33691H218.372V22.5804V25.3861V47.9657H220.984V25.3861H233.388V48.2329H236V1.60413H233.388Z" fill="#999999"/>
<path d="M191.866 1.33691V1.73773V4.14262V48.0987H209.363V47.9651V45.293V35.9406H206.621V45.293H194.608V4.14262H206.621V12.0253H209.363V4.14262V1.33691H206.621H191.866Z" fill="#999999"/>
<path d="M168.493 1.60412V4.14258V22.847V25.3855V45.426V47.9644H171.235H182.987V45.426H171.235V25.3855H181.159V22.847H171.235V4.14258H182.987V1.33691H168.493V1.60412Z" fill="#999999"/>
<path d="M67.9504 20.1758L62.0745 1.20361H55.0234L64.686 29.2611V48.9013H71.2147V29.2611L81.0079 1.20361H73.9568L67.9504 20.1758Z" fill="#999999"/>
<path d="M95.1095 0.668457H88.4502V41.6844V47.6965V48.3645H95.1095H106.6V41.6844H95.1095V0.668457Z" fill="#999999"/>
<path d="M116.002 1.20361V8.01744V21.3779V26.7221V41.4185V48.0988H122.661H134.152V41.4185H122.661V26.7221H132.193V21.3779H122.661V8.01744H134.152V1.20361H122.661H116.002Z" fill="#999999"/>
</svg>
