<svg width="351" height="56" viewBox="0 0 351 56" fill="none" xmlns="http://www.w3.org/2000/svg">
<rect width="351" height="56" rx="28" fill="#00BCC8"/>
<path d="M168.642 19.66H164.762V18.14H162.122V19.66H158.202V21.54H168.642V19.66ZM161.442 24.72C161.442 24.04 162.202 23.7 163.442 23.7C164.682 23.7 165.422 24.04 165.422 24.72C165.422 25.4 164.682 25.76 163.442 25.76C162.202 25.76 161.442 25.4 161.442 24.72ZM169.122 27.98C167.722 28.14 166.262 28.26 164.762 28.32V27.38C166.722 27.08 167.922 26.12 167.922 24.72C167.922 23.04 166.162 22 163.442 22C160.722 22 158.942 23.04 158.942 24.72C158.942 26.12 160.162 27.08 162.122 27.38V28.42C160.562 28.46 159.062 28.46 157.742 28.46L158.022 30.48C161.262 30.48 165.462 30.44 169.322 29.76L169.122 27.98ZM160.082 33.62H169.922V36.74H172.562V31.58H160.082V33.62ZM174.882 23.58H172.562V18.3H169.922V30.86H172.562V25.74H174.882V23.58ZM191.66 18.32H189V31.54H191.66V18.32ZM179.2 24.16C179.2 22.64 180.28 21.76 181.64 21.76C183.02 21.76 184.06 22.64 184.06 24.16C184.06 25.64 183.02 26.54 181.64 26.54C180.28 26.54 179.2 25.64 179.2 24.16ZM186.64 24.16C186.64 21.44 184.46 19.48 181.64 19.48C178.82 19.48 176.62 21.44 176.62 24.16C176.62 26.84 178.82 28.82 181.64 28.82C184.46 28.82 186.64 26.84 186.64 24.16ZM182.04 34.3V30.24H179.4V36.4H192.12V34.3H182.04Z" fill="white"/>
</svg>
