<svg width="65" height="65" viewBox="0 0 65 65" fill="none" xmlns="http://www.w3.org/2000/svg">
<path d="M19.0131 30.5286C18.1197 29.6352 16.6679 29.6352 15.7745 30.5286C14.8811 31.422 14.8811 32.8737 15.7745 33.7671L26.3278 44.3204C26.7745 44.7671 27.3328 44.9904 27.9471 44.9904C28.0029 44.9904 28.0029 44.9904 28.0587 44.9904C28.6729 44.9346 29.2872 44.6554 29.7339 44.1529L56.1449 12.4932C56.9266 11.5439 56.8149 10.0922 55.8657 9.2546C54.9164 8.47287 53.4647 8.58455 52.6271 9.53378L27.7795 39.295L19.0131 30.5286Z" fill="#00BCC8"/>
<path d="M49.4997 4.95509C36.6571 -3.08547 20.1852 -1.187 9.46441 9.53375C-3.1548 22.153 -3.1548 42.7569 9.46441 55.3761C15.774 61.6857 24.0938 64.8685 32.3577 64.8685C40.6216 64.8685 48.9413 61.6857 55.2509 55.3761C66.0275 44.5995 67.8702 28.0717 59.7738 15.2291C59.1037 14.1682 57.7078 13.8332 56.6469 14.5033C55.586 15.1733 55.2509 16.5692 55.921 17.6301C62.9007 28.6859 61.2814 42.8686 52.0124 52.1376C41.18 62.97 23.4796 62.97 12.6471 52.1376C1.81471 41.3051 1.81471 23.6047 12.6471 12.7723C21.9161 3.55916 36.0429 1.93988 47.0987 8.80786C48.1596 9.47791 49.5555 9.14289 50.2256 8.08198C50.8956 7.02107 50.5606 5.62514 49.4997 4.95509Z" fill="#00BCC8"/>
</svg>
